<?xml version="1.0" standalone="no"?>
<!DOCTYPE svg PUBLIC "-//W3C//DTD SVG 1.1//EN" "http://www.w3.org/Graphics/SVG/1.1/DTD/svg11.dtd" >
<svg>
<metadata>
Created by FontForge 20090914 at Fri Feb 24 00:39:57 2012
 By root
Copyright \251 2000 - Font Diner - http://www.fontdiner.com
</metadata>
<defs>
<font id="FontdinerdotcomLoungy" horiz-adv-x="515" >
  <font-face 
    font-family="Fontdinerdotcom Loungy"
    font-weight="400"
    font-stretch="normal"
    units-per-em="1000"
    panose-1="2 0 5 6 7 0 0 2 0 4"
    ascent="700"
    descent="-300"
    x-height="287"
    cap-height="524"
    bbox="-113 -319 779 763"
    underline-thickness="20"
    underline-position="-113"
    unicode-range="U+0020-U+FB02"
  />
<missing-glyph horiz-adv-x="1000" 
 />
    <glyph glyph-name="fi" unicode="fi" horiz-adv-x="-8000" 
 />
    <glyph glyph-name="fl" unicode="fl" horiz-adv-x="-8000" 
 />
    <glyph glyph-name=".notdef" horiz-adv-x="1000" 
 />
    <glyph glyph-name="NUL" horiz-adv-x="500" 
 />
    <glyph glyph-name="nonmarkingreturn" horiz-adv-x="-8000" 
 />
    <glyph glyph-name="space" unicode=" " horiz-adv-x="325" 
 />
    <glyph glyph-name="exclam" unicode="!" horiz-adv-x="161" 
d="M121 12q-1 -12 -7 -20t-15 -12.5t-18.5 -5.5t-17.5 -1q-7 1 -17 4t-19 8.5t-15 14t-5 19.5q2 23 21.5 34.5t40.5 9.5q15 -1 25 -7t16 -14t8.5 -16.5t2.5 -13.5zM100 91l-60 7l19 485l125 -10z" />
    <glyph glyph-name="quotedbl" unicode="&#x22;" horiz-adv-x="206" 
d="M76 296l-51 1l-13 154h78zM176 296l-51 1l-13 154h78z" />
    <glyph glyph-name="numbersign" unicode="#" horiz-adv-x="356" 
d="M148 298l-1 -54l54 1l1 54zM336 301l-88 -1l1 -54l89 1l-2 -55l-85 3l3 -85l-55 -2l1 89l-54 1l-1 -88l-39 -4l-3 94l-93 3l3 38l89 2l-2 54l-89 -2l3 55l84 -2l-2 84l55 2l-2 -88l54 -2l2 89l38 3l3 -93l94 -3z" />
    <glyph glyph-name="dollar" unicode="$" horiz-adv-x="362" 
d="M357 186q1 -25 -10.5 -43.5t-31.5 -31t-46 -19.5t-55 -9q-5 -1 -10.5 -1h-10.5l4 -53l53 -33l-151 1l44 31l4 59q-29 6 -53.5 16.5t-35.5 23.5l-37 -46l7 161q20 -43 48 -75q24 -27 58.5 -45t78.5 -6q23 1 44 11t20 30q0 20 -25 38t-85 36q-29 9 -55.5 21t-47 27.5
t-32.5 35t-12 42.5q0 22 10 40.5t27.5 32.5t40.5 22.5t47 10.5l-4 48l-53 33l151 -1l-44 -31l-4 -52q28 -5 49 -15.5t36 -21.5q18 -13 30 -28l26 50l5 -161q-21 43 -47 76q-11 14 -25 27.5t-30.5 24t-35 16.5t-39.5 6q-11 0 -24.5 -2t-25 -7.5t-19 -15.5t-7.5 -27t7 -28
t21.5 -19.5t37 -16l53.5 -18.5q30 -10 58 -21t49 -24t34 -29.5t13 -39.5z" />
    <glyph glyph-name="percent" unicode="%" horiz-adv-x="442" 
d="M372 72q0 25 -13 42.5t-33 17.5q-15 0 -25 -6t-16 -15t-9 -19.5t-3 -18.5q0 -9 2 -20t7.5 -20.5t14.5 -16.5t23 -7q28 0 40 18.5t12 44.5zM165 441q0 25 -13 42.5t-33 17.5q-15 0 -25 -6t-16 -15t-9 -19.5t-3 -18.5q0 -9 2 -20t7.5 -20.5t14.5 -16.5t23 -7q28 0 40 18.5
t12 44.5zM420 71q0 -23 -8.5 -40.5t-22.5 -29t-32 -17.5t-37 -6q-38 0 -66.5 24t-28.5 69q0 44 27.5 67.5t74.5 23.5q17 0 34 -6t30 -17t21 -28t8 -40zM129 -56l-59 23l227 597l74 -26zM213 440q0 -23 -8.5 -40.5t-22.5 -29t-32 -17.5t-37 -6q-38 0 -66.5 24t-28.5 69
q0 44 27.5 67.5t74.5 23.5q17 0 34 -6t30 -17t21 -28t8 -40z" />
    <glyph glyph-name="ampersand" unicode="&#x26;" horiz-adv-x="449" 
d="M142 224q-18 -16 -31 -35.5t-19.5 -40t-5 -41.5t12.5 -41q12 -21 31 -35t42.5 -19t50.5 0t55 21zM208 463q-19 14 -42.5 11t-40 -17t-20.5 -36t14 -46l70 -92q27 21 40 46.5t14.5 50.5t-8 47t-27.5 36zM284 -108l41 76l-30 42l-4 -2q-4 -2 -6 -4q-29 -18 -66 -33
t-74.5 -17t-71.5 12.5t-56 53.5q-16 29 -14 60t16.5 60.5t38.5 54t52 39.5q5 2 9.5 4.5t9.5 4.5l-63 88q-33 47 -30.5 80.5t26.5 53.5t62.5 28t76.5 3t68 -22.5t37.5 -46.5t-14.5 -70t-88 -94l136 -177q17 23 27.5 54t-0.5 73l75 -102l-54 10q-7 -16 -15.5 -29.5
t-17.5 -25.5l33 -43l114 24z" />
    <glyph glyph-name="quotesingle" unicode="'" horiz-adv-x="99" 
d="M76 296l-51 1l-13 154h78z" />
    <glyph glyph-name="parenleft" unicode="(" horiz-adv-x="321" 
d="M273 547q-37 3 -63 -10t-43.5 -35.5t-27.5 -52t-15.5 -59t-7.5 -57t-4 -45.5q-5 -54 0.5 -106.5t24 -94.5t50 -69t79.5 -30q15 -1 26.5 -6t13.5 -10t-7.5 -9.5t-37.5 -4.5q-58 0 -103.5 29t-76 74.5t-46.5 102t-15 111.5q1 83 23.5 142t56 96t73 53t73.5 13
q23 -2 37 -7.5t18 -11.5t-3 -10t-25 -3z" />
    <glyph glyph-name="parenright" unicode=")" horiz-adv-x="337" 
d="M313 275q1 -55 -14.5 -111.5t-46.5 -102t-76 -74.5t-104 -29q-28 0 -37.5 4.5t-7.5 9.5t13.5 10t26.5 6q48 3 79.5 30t50 69t24 94.5t0.5 106.5q-1 19 -3.5 46t-8 56.5t-15.5 59t-27.5 52t-43.5 35.5t-63 10q-18 -1 -24.5 3t-3 10t17.5 11.5t37 7.5q35 3 74 -13t72.5 -53
t56 -96t23.5 -142z" />
    <glyph glyph-name="asterisk" unicode="*" horiz-adv-x="434" 
d="M412 286q-2 -3 -4 -14q-2 -9 -3.5 -26.5t-2.5 -46.5q-6 5 -23 8.5t-37 6t-40 4.5t-33 3q9 -15 13 -19q1 -2 11 -17.5l22 -33.5l23 -33t15 -16t-5.5 -4.5l-23.5 -9t-28.5 -13t-20.5 -16.5l-65 138q-9 -14 -21.5 -38l-24 -46l-20 -37t-8.5 -12q-1 4 -10 12q-8 7 -22.5 18.5
t-40.5 30.5q8 3 21.5 14.5t28.5 26l29.5 29.5t22.5 25l-140 -16q5 9 5 24t-2 29t-4 23t1 6q3 -4 21.5 -6t40 -3.5t40 -2t20.5 -0.5t8.5 -0.5t14.5 -1.5q-6 12 -17.5 29t-25 34t-25.5 30.5t-20 17.5q27 16 42 26t23 16q9 7 10 11q1 3 8 -12.5t16 -38l19 -47t17 -39.5l63 135
q5 -9 19 -18.5t28.5 -17.5t24.5 -13t5 -5q-4 0 -16.5 -14l-26 -30.5t-24 -31t-12.5 -16.5q-1 -2 -5 -6.5t-9 -11.5l42.5 5l49.5 6l41 5t15 0z" />
    <glyph glyph-name="plus" unicode="+" horiz-adv-x="454" 
d="M420 232l-160 -4l-7 -170l-62 4l-4 164l-160 -4l3 88l156 -6l-4 151l88 -3l-7 -152l161 -7z" />
    <glyph glyph-name="comma" unicode="," horiz-adv-x="117" 
d="M115 19q-1 -18 -11 -31q-8 -11 -26.5 -20.5t-53.5 -7.5q12 2 18.5 6t9.5 8q4 4 4 9q-26 0 -41 10.5t-15 24.5q0 23 18.5 35.5t40.5 12.5q15 0 25.5 -5.5t17 -13t10 -15.5t3.5 -13z" />
    <glyph glyph-name="hyphen" unicode="-" horiz-adv-x="292" 
d="M260 132l-243 -10l3 88l244 -17z" />
    <glyph glyph-name="period" unicode="." horiz-adv-x="115" 
d="M115 28q0 -12 -6 -20.5t-14.5 -13.5t-18.5 -7t-18 -2q-7 0 -17 2t-19 7t-15.5 13t-6.5 20q0 23 18.5 35t40.5 12q15 0 25.5 -5.5t17 -13t10 -15t3.5 -12.5z" />
    <glyph glyph-name="slash" unicode="/" horiz-adv-x="458" 
d="M82 -19l-77 47l345 597l93 -61z" />
    <glyph glyph-name="zero" unicode="0" 
d="M411 252q0 39 -11 73.5t-30 60t-45 40t-57 14.5q-45 0 -77 -19t-51.5 -47t-28.5 -60.5t-9 -58.5t6.5 -60.5t23 -65t45 -52t71.5 -21.5q44 0 75 16t50.5 43t28.5 62.5t9 74.5zM501 251q0 -57 -21.5 -100.5t-56.5 -72.5t-80 -44t-92 -15t-90 15.5t-75.5 45t-52 72.5
t-19.5 98v1q0 109 68.5 167.5t185.5 59.5q43 0 85 -14t75 -42.5t53 -71t20 -99.5z" />
    <glyph glyph-name="one" unicode="1" 
d="M144 -5l100 47l-17 430l-120 26l221 51l-15 -508l95 -47z" />
    <glyph glyph-name="two" unicode="2" 
d="M470 396q0 -40 -14 -68t-37 -48.5t-52 -35l-58 -28.5q-76 -35 -111.5 -77t-48.5 -85l251 8l59 123l-10 -193l-404 17q3 28 20.5 60t46.5 62.5t67 57.5t80 45q74 32 103.5 70t29.5 94q0 29 -11 49t-28 32.5t-37 18.5t-37 6q-30 0 -60.5 -14t-54.5 -37t-39.5 -52t-17.5 -60
l-26 208l54 -77q19 23 45 41q22 15 52.5 26.5t68.5 7.5q35 0 65.5 -12.5t53.5 -33.5t36.5 -48.5t13.5 -56.5z" />
    <glyph glyph-name="three" unicode="3" 
d="M466 141q-1 -38 -18.5 -67.5t-45.5 -49.5t-63 -30.5t-70 -10.5q-38 -3 -68.5 9t-51.5 28q-25 18 -44 42l-56 -77l30 208q1 -31 16.5 -60.5t39.5 -53t54 -38t60 -15.5q17 0 36.5 5.5t37 18t29 32.5t12.5 48q-1 33 -18 59q-14 22 -44.5 38t-87.5 11l-3 40q61 -11 93.5 3
t48.5 36q18 26 21 61q1 28 -11 49t-29.5 35t-38 21.5t-37.5 7.5q-31 1 -61.5 -12.5t-55 -36t-41 -51.5t-18.5 -59l-22 208l53 -79q19 23 45 41q22 15 53 25.5t69 5.5q35 -1 66 -13t54.5 -32.5t37 -47t12.5 -56.5q-1 -48 -20 -73.5t-51 -46.5q16 -2 32 -12.5t28 -27t19.5 -38
t7.5 -45.5z" />
    <glyph glyph-name="four" unicode="4" 
d="M303 351l-181 -180l184 4zM476 80l-39 74l-60 -2l-5 -152l96 -46l-255 1l100 47l-6 149l-279 -4l358 410l-2 -51l-6 -331l55 2l53 103z" />
    <glyph glyph-name="five" unicode="5" 
d="M462 186q0 -46 -15 -82.5t-39.5 -61t-57 -37.5t-67.5 -13q-38 -5 -68.5 6.5t-52.5 26.5q-26 18 -44 42l-55 -78l27 208q2 -43 23 -74.5t51 -49t64.5 -20.5t63.5 10t48.5 42.5t19.5 77.5q0 36 -22.5 67t-59 45.5t-83.5 7.5t-96 -48q-16 74 -25 121l-14 74q-6 32 -8 47
l407 44l-52 -183l-10 113l-261 -18l10 -121q68 20 126 17.5t100 -23.5t66 -57t24 -83z" />
    <glyph glyph-name="six" unicode="6" 
d="M404 157q0 32 -9.5 60t-27 48.5t-41 32.5t-50.5 12q-41 0 -69.5 -15.5t-46 -38t-25.5 -49t-8 -47.5t6 -49t20.5 -53t40 -42.5t64.5 -17.5t66.5 13t45.5 34.5t26 50.5t8 61zM492 165q0 -45 -17 -81t-47.5 -61t-73.5 -38t-94 -13q-110 0 -173.5 57t-63.5 169q0 56 12 105
t33.5 88.5t51 69t65.5 45.5q13 6 32 11.5t43.5 3.5t55 -14t66.5 -42l40 104l29 -243q-10 34 -29.5 59.5t-43 43t-50 26t-51.5 8.5q-53 0 -87.5 -42t-39.5 -114q22 14 49 21.5t79 7.5q47 0 86 -9.5t67.5 -30.5t44.5 -53.5t16 -77.5z" />
    <glyph glyph-name="seven" unicode="7" 
d="M288 35l104 -58l-257 9l102 54l103 437l-215 15l-32 -133l-54 184l436 -21z" />
    <glyph glyph-name="eight" unicode="8" 
d="M377 105q1 33 -11 56t-30.5 38t-39.5 22t-39 7t-39 -7t-39.5 -22t-30.5 -38t-11 -56q0 -30 11.5 -54t29 -41t38.5 -26t41 -9t41.5 9t38.5 26t28.5 41t11.5 54zM362 376q0 32 -8.5 56.5t-23.5 41t-34 25.5t-39 9t-39 -9t-33.5 -25.5t-23 -41t-8.5 -56.5q0 -35 10 -58
t25.5 -36.5t33.5 -19t35 -6.5q17 1 35 6.5t33.5 19t25.5 36.5t11 58zM482 112q-1 -39 -18.5 -70t-48 -52.5t-71 -33t-87.5 -11.5q-46 0 -86.5 11.5t-71 33t-48 52.5t-18.5 70q0 25 10.5 49t26.5 43.5t35 32t35 14.5q-16 11 -29 23t-22.5 27t-15 34t-5.5 44q-1 31 12.5 60
t38.5 51t60 35t78 13t78.5 -13t60.5 -35t38.5 -51t12.5 -60q0 -25 -5.5 -44t-15 -34t-22.5 -27t-30 -23q17 -2 36 -14.5t35 -32t26.5 -43.5t10.5 -49z" />
    <glyph glyph-name="nine" unicode="9" 
d="M376 348q0 21 -4.5 49t-17 53.5t-34 43.5t-56.5 19q-34 1 -59 -11.5t-41 -34t-24 -50t-9 -60.5q0 -32 8 -60t22.5 -49t35 -33.5t44.5 -13.5q36 -1 61.5 14t41.5 37.5t24 48.5t8 47zM478 297q-2 -106 -36 -178t-91 -97q-13 -6 -36 -14t-52.5 -9t-63.5 9t-69 40l-33 -102
l-42 244q10 -34 29.5 -60.5t44.5 -44t53 -27t53 -9.5q53 -2 88 39.5t42 113.5q-11 -7 -22.5 -12t-26.5 -9t-34 -5.5t-45 -0.5q-93 2 -147.5 44t-52.5 132q1 45 17.5 80.5t46 60t71 36.5t92.5 11q109 -3 163 -66.5t51 -175.5z" />
    <glyph glyph-name="colon" unicode=":" horiz-adv-x="115" 
d="M115 28q0 -12 -6 -20.5t-14.5 -13.5t-18.5 -7t-18 -2q-7 0 -17 2t-19 7t-15.5 13t-6.5 20q0 23 18.5 35t40.5 12q15 0 25.5 -5.5t17 -13t10 -15t3.5 -12.5zM115 208q0 -12 -6 -20.5t-14.5 -13.5t-18.5 -7t-18 -2q-7 0 -17 2t-19 7t-15.5 13t-6.5 20q0 23 18.5 35t40.5 12
q15 0 25.5 -5.5t17 -13t10 -15t3.5 -12.5z" />
    <glyph glyph-name="semicolon" unicode=";" horiz-adv-x="117" 
d="M115 19q-1 -18 -11 -31q-8 -11 -26.5 -20.5t-53.5 -7.5q12 2 18.5 6t9.5 8q4 4 4 9q-26 0 -41 10.5t-15 24.5q0 23 18.5 35.5t40.5 12.5q15 0 25.5 -5.5t17 -13t10 -15.5t3.5 -13zM117 208q0 -12 -6 -20.5t-14.5 -13.5t-18 -7t-17.5 -2t-18 2.5t-19 7.5t-15 12.5t-6 19.5
q0 23 18.5 35t40.5 12q14 0 24.5 -5.5t17.5 -13t10 -15t3 -12.5z" />
    <glyph glyph-name="less" unicode="&#x3c;" horiz-adv-x="402" 
d="M138 233l220 -176l-4 -23l-340 215l347 205l25 -92z" />
    <glyph glyph-name="equal" unicode="=" horiz-adv-x="454" 
d="M421 102l-394 17l4 61l393 10zM420 232l-393 -10l3 88l394 -17z" />
    <glyph glyph-name="greater" unicode="&#x3e;" horiz-adv-x="402" 
d="M46 34l-3 23l220 176l-249 129l25 92l347 -205z" />
    <glyph glyph-name="question" unicode="?" horiz-adv-x="367" 
d="M133 2q-3 -15 -24 -24t-46 -4q-29 7 -43.5 21t-9.5 32q4 17 24 27t49 4q35 -7 44 -24.5t6 -31.5zM359 280q-9 -25 -27.5 -43.5t-44 -29.5t-57 -15.5t-64.5 -1.5l-44 -103l-58 15l18 134q8 -3 15.5 -5.5t15.5 -4.5q27 -7 53.5 -5t49 12t39 28t25.5 44q8 23 5 46t-16 43.5
t-35.5 37.5t-55.5 27q-44 14 -76.5 7t-55.5 -21q-26 -16 -46 -41l26 120l27 -46q23 6 49 9q22 2 48.5 1.5t53.5 -9.5q32 -10 65.5 -26.5t58 -41t35 -57t-3.5 -74.5z" />
    <glyph glyph-name="at" unicode="@" horiz-adv-x="524" 
d="M322 214q-17 2 -28.5 3t-19.5 2q-10 1 -16 1q-7 1 -19.5 0t-24 -6t-20 -15t-9.5 -27q-1 -13 5 -22.5t15.5 -16t20.5 -9t20 -1.5q9 0 20 1q9 1 21 2.5t25 3.5zM433 227q0 40 -12 74.5t-34 60.5t-51.5 41t-64.5 15q-52 0 -88 -19.5t-58.5 -48t-32.5 -61t-10 -59.5t7.5 -62
t26 -66.5t51 -53t81.5 -21.5q45 0 77.5 13t55.5 36l-78 1l4 34q-37 -8 -59 -7t-22 0q-7 0 -24.5 2t-35.5 8t-32.5 17t-15.5 30q-2 38 32.5 58t96.5 15l77 -7q4 42 -1 74q-2 14 -6.5 26.5t-12 21.5t-19 13t-28.5 1q-24 2 -38.5 -4.5t-22.5 -14.5q-9 -9 -13 -21q15 -7 18 -17
q2 -5 2 -10q-2 -14 -13 -21.5t-26 -7.5q-16 1 -26 12.5t-4 28.5q3 9 11 22t23.5 25t40 19.5t61.5 6.5q71 -2 97 -37.5t19 -104.5l-13 -136l22 -10q20 27 29 61.5t9 72.5zM507 225q0 -58 -21.5 -102t-57.5 -74t-82 -45t-94 -15t-92 16t-77 46t-53 73.5t-20 99.5v1
q0 112 70 171.5t190 60.5q44 0 86 -14.5t76 -43.5t54.5 -72.5t20.5 -101.5z" />
    <glyph glyph-name="A" unicode="A" horiz-adv-x="609" 
d="M226 419l-94 -197h177zM390 -196l65 76l-138 315l-205 -17l-50 -101l85 -61l-217 16l110 51l216 456l283 -614l140 -17z" />
    <glyph glyph-name="B" unicode="B" horiz-adv-x="487" 
d="M393 105q-3 32 -28 56q-10 10 -26.5 19.5t-39.5 16.5t-54.5 11t-73.5 2l8 -223q40 1 70.5 6.5t53 14t38 19t25.5 21.5q24 26 27 57zM432 360q-3 36 -34 62q-13 11 -33 20.5t-49.5 15t-68.5 6t-91 -6.5l5 -198q51 -6 89.5 -5t67 7t48 15.5t32.5 20.5q30 26 34 63zM509 360
q-3 -37 -25 -66q-19 -25 -59 -45.5t-114 -20.5q62 -10 93.5 -34t45.5 -50q16 -30 16 -64q-3 -34 -25.5 -55t-59.5 -34t-85.5 -20.5t-102.5 -13.5l-213 -24l103 64l-36 445l-103 64l293 -6q48 -1 96.5 -9.5t87.5 -25.5t63.5 -43t24.5 -62z" />
    <glyph glyph-name="C" unicode="C" horiz-adv-x="469" 
d="M449 312q-18 53 -44 95q-11 18 -24 35.5t-28.5 31.5t-32.5 23t-37 10q-56 4 -92 -14.5t-57 -48t-30.5 -64t-11.5 -62.5q-5 -54 1 -107t24 -96t50 -71t80 -32q48 0 89 20q18 9 35.5 23t33 35.5t27 52t17.5 70.5q0 -4 -1 -28q-1 -20 -2.5 -62.5l-4.5 -121.5l-22 70
q-15 -29 -39.5 -47.5t-50.5 -29t-50 -14.5t-38 -2q-58 6 -103.5 37.5t-76 77.5t-46.5 101.5t-15 110.5q1 83 28.5 134t66.5 79t83 36t78 5q38 -3 64.5 -11.5t43.5 -16.5q19 -10 32 -21l69 77z" />
    <glyph glyph-name="D" unicode="D" horiz-adv-x="627" 
d="M518 262q0 56 -13.5 92.5t-33.5 59.5t-44 34t-45.5 15.5t-37 4t-19.5 -0.5h-75l-21 -416q15 0 32 -1q14 -1 33 -1h39v1h27.5t38 4.5t41.5 16.5t38.5 35.5t28.5 61.5t11 94zM613 273q0 -66 -17 -111t-43 -74t-58 -44.5t-62.5 -22t-55.5 -7.5t-38 -1t-42.5 -1.5l-68 -3.5
l-82.5 -4.5t-88 -4.5l99 54q1 46 -2 100.5t-7.5 108.5l-9 103.5t-6.5 85.5l-132 59q52 -1 96 -1.5t83 -0.5t75 1t72 1q81 -3 144 -29q27 -11 52.5 -28t46 -42t32.5 -59t12 -79z" />
    <glyph glyph-name="E" unicode="E" horiz-adv-x="547" 
d="M530 355l-59 165l-241 -21l-5 -243l94 5l54 99l-4 -241l-55 94l-90 7l-4 -190l261 1l40 168l-3 -193l-494 -3l100 40l-13 432l-111 37l532 40z" />
    <glyph glyph-name="F" unicode="F" horiz-adv-x="531" 
d="M530 357l-59 165l-241 -21l-5 -244l94 6l54 99l-4 -242l-55 94l-90 7l-4 -209l93 -42l-289 1l99 40l-12 466l-111 36l532 41z" />
    <glyph glyph-name="G" unicode="G" horiz-adv-x="499" 
d="M462 225l18 -230l-61 62q-15 -29 -39.5 -48t-50.5 -29.5t-50 -14t-38 -1.5q-58 6 -103.5 37t-76 77t-46.5 101.5t-15 110.5t13.5 96t33.5 70t47.5 47.5t55 28t56 12.5t50.5 1q38 -3 64.5 -11.5t43.5 -16.5q19 -10 32 -22l69 77l-16 -275q-18 53 -44 95q-11 18 -24 35.5
t-28.5 31.5t-32.5 23.5t-37 10.5q-56 4 -92 -14.5t-57 -48.5t-30.5 -64.5t-11.5 -61.5q-5 -54 0.5 -108.5t24 -99t50.5 -72t80 -27.5q49 3 83 28q15 11 28 27t21 39t10.5 54.5t-4.5 72.5l-100 44l250 -1z" />
    <glyph glyph-name="H" unicode="H" horiz-adv-x="573" 
d="M325 3l96 33l-5 154l-203 -27l-3 -149l104 -33h-290l96 33l-13 443l-107 44l307 -3l-89 -36l-4 -251h201l-7 268l-107 43l307 -3l-90 -36l-7 -447l104 -33h-290z" />
    <glyph glyph-name="I" unicode="I" horiz-adv-x="293" 
d="M26 -50l95 33l-11 497l-107 44l307 -3l-90 -36l-9 -502l104 -33h-289z" />
    <glyph glyph-name="J" unicode="J" horiz-adv-x="490" 
d="M429 473q3 -52 13 -116t16 -130t4 -129t-21.5 -113.5t-62.5 -83.5t-118 -38q-45 -3 -79 10t-57.5 37t-36.5 57.5t-18 72.5l-69 40h177l-59 -34q0 -21 3.5 -49t17 -52.5t39 -40.5t69.5 -14q55 3 83.5 37.5t40 87.5t9 117t-10.5 126t-18 115t-14 83l-141 20l330 57z" />
    <glyph glyph-name="K" unicode="K" horiz-adv-x="677" 
d="M409 7l95 38l-206 248l-74 -44l-3 -194l118 -40l-314 -2l117 42l-22 459l-120 48l333 -4l-99 -35l-8 -244l309 196l-91 41h240l-98 -41l-206 -138l229 -293l116 -38z" />
    <glyph glyph-name="L" unicode="L" horiz-adv-x="472" 
d="M19 -49l104 53l-24 479l-99 40l308 1l-93 -42l-8 -483l194 -8l55 170v-189z" />
    <glyph glyph-name="M" unicode="M" horiz-adv-x="679" 
d="M648 500l-13 -474l96 -32h-318l122 32l-1 420l-180 -389l-195 363l14 -409l104 -33h-234l96 33l-32 473l-107 43l246 -2l149 -292l153 308l207 -7z" />
    <glyph glyph-name="N" unicode="N" horiz-adv-x="593" 
d="M559 486l-10 -540l-381 475l11 -392l165 -66l-342 2l129 62v439l-121 60l228 -4l283 -375l-3 327l-140 62l289 6z" />
    <glyph glyph-name="O" unicode="O" horiz-adv-x="498" 
d="M397 242q0 39 -11 73.5t-30 60t-45 40t-57 14.5q-45 0 -77 -19t-51.5 -47t-28.5 -60.5t-9 -58.5t6.5 -60.5t23 -65t45 -52t71.5 -21.5q44 0 75 16t50.5 43t28.5 62.5t9 74.5zM486 240q0 -57 -21 -100t-56 -72t-80 -44t-92 -15t-90 15.5t-75.5 45t-52 72.5t-19.5 98
q0 110 68.5 168t185.5 59q43 0 84.5 -14t74.5 -42.5t53 -71t20 -99.5z" />
    <glyph glyph-name="P" unicode="P" horiz-adv-x="526" 
d="M464 358q-4 32 -35 53q-13 9 -33 17t-49 12.5t-68.5 5t-91.5 -5.5l5 -179q51 -3 90 -0.5t67.5 8.5t48 15t32.5 19q30 23 34 55zM528 358q-5 -32 -41 -58q-15 -11 -38.5 -22t-58 -20.5t-81 -16.5t-108.5 -10l7 -190l97 -42l-298 -4l99 55l-6 387l-100 48l264 -8
q47 -1 94 -8.5t84.5 -21.5t61.5 -36t24 -53z" />
    <glyph glyph-name="Q" unicode="Q" horiz-adv-x="498" 
d="M397 269q0 39 -11 73.5t-30 60t-45 40t-57 14.5q-45 0 -77 -19t-51.5 -47t-28.5 -60.5t-9 -58.5t6.5 -60.5t23 -65t45 -52t71.5 -21.5q44 0 75 16t50.5 43t28.5 62.5t9 74.5zM223 -247l83 79l-46 205q-6 -1 -11.5 -1h-11.5q-47 0 -90 15.5t-75.5 45t-52 72.5t-19.5 98
q0 110 68.5 168t185.5 59q43 0 84.5 -14t74.5 -42.5t53 -71t20 -99.5q0 -44 -13 -79.5t-35 -63t-52 -46.5t-65 -30l75 -181l132 -19z" />
    <glyph glyph-name="R" unicode="R" horiz-adv-x="642" 
d="M464 372q-4 31 -35 53q-26 19 -82 30t-160 0l5 -180q51 -3 90 -0.5t67.5 8.5t48 15t32.5 19q30 23 34 55zM405 -166l65 76l-151 346l8 3l-41 -6q-18 -2 -40 -4l-45 -4l7 -190l97 -42l-298 -4l99 55l-6 387l-100 48l264 -8q47 -1 94 -8.5t84.5 -21.5t61.5 -36t24 -53
q0 -19 -12.5 -35t-32.5 -28.5t-46.5 -22t-55.5 -16.5l173 -315l134 -2z" />
    <glyph glyph-name="S" unicode="S" horiz-adv-x="423" 
d="M427 142q0 -34 -15 -64t-43 -52t-68 -34t-90 -10q-24 1 -48 8.5t-45 18t-37.5 23t-26.5 24.5l-33 -81l-8 222q15 -60 44.5 -98t65 -58t72.5 -24t67.5 5t50 29.5t19.5 48.5q0 27 -17 46.5t-41 32.5t-50 21t-44 12q-16 4 -46 12.5t-60 26.5t-52 48.5t-22 76.5q0 47 19 77
t47.5 48t62 25t63.5 7q25 0 47 -3.5t43 -11.5t43.5 -20t47.5 -30l41 59l-20 -205q-11 63 -39 102.5t-62.5 59.5t-72 23t-69 -7.5t-51.5 -32.5t-20 -51q0 -20 10 -33t28 -22t42.5 -15.5l53.5 -14.5q38 -10 75.5 -23t68.5 -34t50 -53t19 -79z" />
    <glyph glyph-name="T" unicode="T" horiz-adv-x="527" 
d="M491 356l-50 140l-143 2l-13 -442l131 -53l-323 3l113 55l-12 438l-135 1l-59 -141l6 174l487 -8z" />
    <glyph glyph-name="U" unicode="U" horiz-adv-x="581" 
d="M508 478l-11 -356q-1 -31 -14 -52t-33 -34t-45 -19.5t-50.5 -9.5t-49 -3h-40.5q-49 0 -81.5 16.5t-51.5 40t-26.5 49t-7.5 44.5l1 41q0 15 1 38.5t2 57.5t2 80t2 106l-106 39l301 -6l-97 -41l-2 -119q-1 -51 -1.5 -105.5t-0.5 -95.5t10.5 -64.5t28.5 -35t41 -14.5t47 -3
q48 0 77 9.5t44 26t19.5 38.5t3.5 48q-1 28 -2 73q-1 38 -2.5 100t-5.5 153l-136 48l298 -6z" />
    <glyph glyph-name="V" unicode="V" horiz-adv-x="586" 
d="M603 446l-217 -456l-252 546l-134 2l283 119l-65 -76l199 -470l163 341l-85 61l217 -15z" />
    <glyph glyph-name="W" unicode="W" horiz-adv-x="727" 
d="M676 418l-180 -476l-111 326l-100 -330l-196 504l-89 27l304 -2l-89 -27l96 -331l102 334l128 -327l106 307l-109 38l241 -4z" />
    <glyph glyph-name="X" unicode="X" horiz-adv-x="603" 
d="M382 -83l87 45l-189 221l-180 -138l86 -59l-249 15l117 47l200 173l-188 222l-143 46l339 2l-94 -44l147 -168l151 123l-108 41l272 3l-114 -50l-170 -141l236 -281l161 -50z" />
    <glyph glyph-name="Y" unicode="Y" horiz-adv-x="682" 
d="M621 419l-180 -194l22 -233l120 -40l-325 -2l91 39l10 226l-225 250l-134 48l302 14l-65 -39l196 -228l166 162l-85 50l217 -8z" />
    <glyph glyph-name="Z" unicode="Z" horiz-adv-x="479" 
d="M181 7l213 -8l72 139l-9 -170l-445 4l327 407l-276 -10l-22 -124l-41 159l485 13z" />
    <glyph glyph-name="bracketleft" unicode="[" horiz-adv-x="321" 
d="M273 547q-37 3 -63 -10t-43.5 -35.5t-27.5 -52t-15.5 -59t-7.5 -57t-4 -45.5q-5 -54 0.5 -106.5t24 -94.5t50 -69t79.5 -30q15 -1 26.5 -6t13.5 -10t-7.5 -9.5t-37.5 -4.5q-58 0 -103.5 29t-76 74.5t-46.5 102t-15 111.5q1 83 23.5 142t56 96t73 53t73.5 13
q23 -2 37 -7.5t18 -11.5t-3 -10t-25 -3z" />
    <glyph glyph-name="backslash" unicode="\" horiz-adv-x="458" 
d="M366 -19l-361 583l92 61l346 -597z" />
    <glyph glyph-name="bracketright" unicode="]" horiz-adv-x="337" 
d="M313 275q1 -55 -14.5 -111.5t-46.5 -102t-76 -74.5t-104 -29q-28 0 -37.5 4.5t-7.5 9.5t13.5 10t26.5 6q48 3 79.5 30t50 69t24 94.5t0.5 106.5q-1 19 -3.5 46t-8 56.5t-15.5 59t-27.5 52t-43.5 35.5t-63 10q-18 -1 -24.5 3t-3 10t17.5 11.5t37 7.5q35 3 74 -13t72.5 -53
t56 -96t23.5 -142z" />
    <glyph glyph-name="asciicircum" unicode="^" horiz-adv-x="402" 
d="M388 287l-176 220l-129 -249l-93 25l205 347l215 -340z" />
    <glyph glyph-name="underscore" unicode="_" horiz-adv-x="611" 
d="M-36 24v90l686 9l4 -110z" />
    <glyph glyph-name="grave" unicode="`" horiz-adv-x="151" 
d="M86 450l-74 136l80 36l50 -148z" />
    <glyph glyph-name="a" unicode="a" horiz-adv-x="348" 
d="M239 202q-18 3 -31.5 4.5l-22.5 2.5q-11 1 -17 1q-8 1 -21.5 -0.5t-26.5 -7.5t-22.5 -18.5t-10.5 -33.5q-1 -16 5.5 -27.5t17 -19t22.5 -11t22 -2.5q11 0 23 1q11 1 23.5 3t26.5 4zM218 32l5 42q-43 -8 -66 -8q-14 0 -24 1q-9 -1 -28.5 1t-39.5 9.5t-36 21.5t-17 38
q-2 48 36.5 71.5t106.5 17.5l87 -8q5 52 -1 92q-3 17 -8 32.5t-13.5 26.5t-21.5 16t-31 1q-27 2 -43 -5.5t-25 -17.5q-11 -11 -14 -26q9 -5 13.5 -11t6.5 -11q3 -6 2 -12q-3 -18 -15 -27t-29 -8t-27.5 14.5t-4.5 35.5q3 12 11.5 28t26 30t45 24t68.5 8q78 -3 107 -46
t21 -129l-15 -168l69 -35z" />
    <glyph glyph-name="b" unicode="b" horiz-adv-x="426" 
d="M321 97q-1 46 -35 74.5t-88 28.5q-20 0 -48.5 -5t-46.5 -16l-17 -185q9 -2 23 -3.5t29.5 -2.5t30.5 -0.5t26 1.5q68 8 97 35.5t29 72.5zM413 102q0 -36 -22 -62t-54.5 -43t-68.5 -25.5t-63 -9.5l-263 -9l84 61l3 470l-110 29l217 31l-30 -333q11 4 27 8q14 3 35.5 6
t50.5 3q90 2 142 -28.5t52 -97.5z" />
    <glyph glyph-name="c" unicode="c" horiz-adv-x="363" 
d="M353 131q-3 -51 -23.5 -80.5t-43.5 -44.5q-27 -18 -60 -24q-46 -6 -83.5 7.5t-64.5 38t-43 56t-20 61.5q-7 57 6.5 100t38.5 72t57 45.5t62 20.5q26 4 47.5 2t38 -8t29 -15t21.5 -18q21 -22 31 -53q5 -21 -6 -34.5t-29 -13.5q-17 0 -28.5 9.5t-13.5 26.5q-1 7 1 14
q2 6 4.5 12.5t8.5 11.5q-8 13 -21 23q-11 8 -28.5 14.5t-43.5 3.5q-23 -5 -39.5 -16t-27.5 -26t-18 -32t-11 -35q-9 -41 -5 -90q3 -25 12 -51.5t25.5 -48t41.5 -34t59 -9.5q28 3 49.5 14.5t36.5 28t25 36t15 36.5z" />
    <glyph glyph-name="d" unicode="d" horiz-adv-x="430" 
d="M324 222q-17 14 -43.5 22t-58.5 11q-66 6 -103.5 -29t-41.5 -90q-2 -28 7.5 -49.5t26.5 -37t40.5 -25t48.5 -13.5q42 -7 70.5 1t43.5 15zM312 -63v2l-3 -1l3 59q-21 -8 -52.5 -12t-65.5 -2t-68 11t-62 27t-45.5 46.5t-18.5 69.5q-1 25 10.5 54t36 53t62.5 38t91 9
q45 -4 74.5 -14.5t51.5 -22.5l14 271l-88 42l187 -13l-74 -581l80 -19z" />
    <glyph glyph-name="e" unicode="e" horiz-adv-x="378" 
d="M292 178q1 21 -4 42t-16.5 38.5t-28.5 29t-40 14.5q-13 2 -32 -0.5t-36.5 -15t-31.5 -37.5t-19 -69zM84 148q1 -17 7.5 -36t20.5 -35.5t36.5 -27t54.5 -10.5q49 0 84.5 22.5t69.5 54.5q-9 -18 -21.5 -37.5t-32 -36t-46 -27.5t-63.5 -11q-35 0 -67.5 9t-58 28t-42 49
t-19.5 72q-2 36 11.5 69.5t40.5 59.5t66.5 40t89.5 11q40 -3 68.5 -21.5t47.5 -46t27.5 -59.5t7.5 -62z" />
    <glyph glyph-name="f" unicode="f" horiz-adv-x="205" 
d="M303 587q6 -21 -4.5 -35t-27.5 -15t-29 8.5t-14 26.5q0 6 2 12q2 5 6 11.5t13 11.5q-3 15 -14 26q-9 10 -25 17.5t-43 5.5q-22 -1 -34 -19t-18 -45t-6.5 -59.5t1.5 -64t5 -57.5t4 -40h133v-32h-127l39 -332q5 -46 3 -87.5t-15 -73t-38.5 -51t-67.5 -20.5
q-41 -1 -68.5 8.5t-45 24t-26 30.5t-11.5 28q-6 21 4.5 35t28.5 15q17 0 29 -9t14 -26q1 -6 -2 -12q-2 -5 -6.5 -11.5t-13.5 -11.5q3 -15 14 -26q9 -10 25 -17.5t43 -5.5q17 1 28.5 11.5t19 26.5t10.5 36t4 41q2 49 -7 110l-39 317h-101v32h97q-2 24 -5 56t-3 65.5t5 66.5
t18 59t36 42.5t59 17.5q41 2 68 -8t44.5 -24t26 -30.5t11.5 -28.5z" />
    <glyph glyph-name="g" unicode="g" horiz-adv-x="398" 
d="M338 -164q0 28 -10.5 49t-28.5 35.5t-42.5 22t-51.5 7.5t-51 -7.5t-42 -22t-28.5 -35.5t-10.5 -49t10.5 -49t28.5 -35.5t42 -22t51 -7.5t51.5 7.5t42.5 22t28.5 35.5t10.5 49zM300 213q0 29 -8.5 55t-23 45t-34 30t-41.5 11t-41.5 -11t-34.5 -30t-23.5 -45t-8.5 -55
q0 -30 8.5 -55.5t23.5 -45t34.5 -30.5t41.5 -11t41.5 11t34 30.5t23 45t8.5 55.5zM418 376q-12 -17 -28.5 -21.5t-33.5 7.5q-6 4 -10 11q-9 14 -5 37q-14 9 -23.5 4.5t-16 -15t-12 -23t-12.5 -20.5q44 -20 70.5 -58t26.5 -85q0 -29 -11 -55.5t-30 -47.5t-45 -35.5t-56 -20.5
q-17 -3 -33.5 -4.5t-29.5 -2.5q-15 -1 -29 -1q-14 -11 -8 -20.5t23 -17t40.5 -12.5t44.5 -6q5 0 19.5 -2.5t34 -8.5t41 -16.5t39.5 -27.5t29.5 -41.5t11.5 -57.5t-16.5 -59t-45 -43.5t-66.5 -27t-82 -9.5q-43 0 -81.5 9.5t-67 27t-45 43.5t-16.5 59q0 47 31.5 74.5
t82.5 47.5q3 1 -8 2.5t-25.5 6.5t-27 14.5t-12.5 26.5q0 18 14 28.5t30.5 16.5t29 8.5t9.5 3.5q-48 19 -77.5 58.5t-29.5 89.5q0 33 14 62.5t39 51.5t58 35t70 13q32 0 59 -9q20 45 40.5 65.5t39.5 26t36 1t29 -10.5q23 -11 28 -32.5t-7 -39.5z" />
    <glyph glyph-name="h" unicode="h" horiz-adv-x="407" 
d="M218 -69l84 60l4 112q2 45 -22 75t-78 30q-20 0 -48.5 -5t-46.5 -16l-16 -161l79 -63l-224 -2l84 61l3 470l-110 29l217 31l-30 -333q10 4 24 8q12 3 28.5 5t37.5 2q90 1 138 -30t49 -97l-28 -112l79 -63z" />
    <glyph glyph-name="i" unicode="i" horiz-adv-x="202" 
d="M11 -16l78 48l-11 247l-78 37h168l-22 -288l70 -48zM166 430l15 -20l-24 -7l1 -25l-24 9l-14 -21l-14 21l-23 -9v25l-23 7l15 20l-15 19l23 7v25l23 -8l14 20l14 -20l24 8l-1 -25l24 -7z" />
    <glyph glyph-name="j" unicode="j" horiz-adv-x="250" 
d="M206 15q6 -46 5.5 -94t-11 -87t-34.5 -64.5t-66 -26.5q-41 -2 -68.5 8t-45 24t-26 30t-11.5 28q-6 21 4.5 35t28.5 15q17 1 29 -8t14 -27q1 -6 -2 -12q-2 -5 -6.5 -11t-13.5 -11q3 -15 14 -26q9 -10 25 -18t43 -6q18 -1 29.5 10t17.5 29.5t8 42.5t2 49q-1 59 -14 135
l-28 205l-84 35l156 19zM161 399l15 -19l-23 -7v-25l-23 8l-14 -20l-14 20l-24 -8l1 25l-24 7l15 19l-15 20l24 7l-1 25l24 -8l14 20l14 -20l23 8v-25l23 -7z" />
    <glyph glyph-name="k" unicode="k" horiz-adv-x="402" 
d="M242 -51l95 42l-138 244l-74 -49l-3 -169l118 -45l-304 -2l117 47l-30 489l-106 15l219 44l-9 -347l189 161l-91 46h240l-98 -46l-126 -96l161 -293l116 -42z" />
    <glyph glyph-name="l" unicode="l" horiz-adv-x="147" 
d="M-40 -69l78 47v540l-90 37l188 -3l-45 -572l70 -47z" />
    <glyph glyph-name="m" unicode="m" horiz-adv-x="631" 
d="M453 30l86 57l4 78q1 23 -1.5 42.5t-11 34t-25 22.5t-43.5 8q-6 0 -18 -3t-25 -13.5t-23.5 -30t-12.5 -51.5l-8 -116l59 -59l-214 -1l84 60l4 112q1 23 -1.5 42.5t-11 33.5t-25 22.5t-43.5 8.5q-21 0 -47 -8t-39 -31l-16 -146l79 -63l-215 -1l84 60l-23 185l-110 28
l207 32l-4 -48q41 18 70.5 27.5t54 9.5t48 -11t53.5 -35l31 16q14 7 30 13.5t30 8.5q45 0 73.5 -10t45.5 -29t23.5 -46t6.5 -60l-9 -81l76 -67z" />
    <glyph glyph-name="n" unicode="n" horiz-adv-x="428" 
d="M242 -41l84 61l4 111q2 46 -22 76t-78 29q-20 0 -48.5 -4.5t-46.5 -15.5l-16 -162l79 -63l-215 -1l84 60l-23 185l-110 28l207 32l-4 -48q11 4 25 8q12 3 28.5 5t37.5 2q90 1 133.5 -29.5t43.5 -96.5l-28 -112l79 -63z" />
    <glyph glyph-name="o" unicode="o" horiz-adv-x="485" 
d="M382 133q0 27 -10 50.5t-28 40.5t-42 27t-53 10q-42 0 -71.5 -13t-48 -32t-26.5 -41t-8 -40t6 -41t21.5 -44t42 -35.5t66.5 -14.5q41 0 69.5 11t46.5 29t26.5 42t8.5 51zM465 132q0 -39 -19.5 -68t-52 -49t-74 -30t-85.5 -10t-84 10.5t-70.5 31t-48.5 49.5t-18 66
q0 75 63.5 114.5t172.5 40.5q40 0 79 -9.5t69.5 -29t49 -48.5t18.5 -68z" />
    <glyph glyph-name="p" unicode="p" horiz-adv-x="446" 
d="M360 149q0 27 -10 47t-27.5 34t-40 21.5t-46.5 10.5q-40 4 -66.5 -4.5t-40.5 -16.5v-187q17 -11 42.5 -18t56.5 -8q63 -2 97 33t35 88zM434 153q2 -24 -7 -52t-31 -52t-57.5 -39.5t-86.5 -13.5q-43 2 -72.5 9.5t-50.5 18.5l3 -168l86 -35l-251 -10l91 41l-18 430l-106 51
l192 -6v-2l2 1v-57q20 9 50 14.5t62.5 5.5t66 -6.5t60.5 -22.5t45.5 -42t21.5 -65z" />
    <glyph glyph-name="q" unicode="q" horiz-adv-x="422" 
d="M304 255q-14 8 -40.5 16.5t-66.5 4.5q-24 -3 -46.5 -10.5t-39.5 -21.5t-27 -33.5t-10 -46.5q1 -53 34.5 -87.5t96.5 -32.5q64 2 98 26zM393 306l-19 -438l90 -41l-249 10l85 35l3 167q-21 -11 -50 -18.5t-71 -9.5q-51 -1 -86.5 14t-57.5 39t-31 52t-7 52q3 39 21.5 65
t45.5 41.5t60 22t65.5 6.5t62 -5.5t49.5 -14.5v57l3 -1v1l170 6z" />
    <glyph glyph-name="r" unicode="r" horiz-adv-x="333" 
d="M328 320q8 -26 -4 -43t-38 -22q-9 -1 -16.5 0.5t-16.5 6l-21 11t-31 13.5q-15 4 -31 -2q-14 -5 -28.5 -22.5t-28.5 -55.5l-7 -159l117 -42l-280 -33l108 66l-28 260l-103 28l197 43l-2 -75q14 11 27 19.5t24 14.5l23 13q22 11 45 14.5t42.5 0.5t33.5 -12t18 -24z" />
    <glyph glyph-name="s" unicode="s" horiz-adv-x="362" 
d="M357 86q1 -25 -10.5 -43.5t-31.5 -31t-46 -19.5t-55 -9q-21 -2 -45 1t-45.5 9.5t-39 15t-26.5 18.5l-37 -46l7 161q20 -43 48 -75q24 -27 58.5 -45t78.5 -6q23 1 44 11t20 30q0 20 -25 38t-85 36q-29 9 -55.5 21t-47 27.5t-32.5 35t-12 42.5t11.5 42.5t31 33.5t44 22
t50.5 8q35 1 62.5 -10t47.5 -24q23 -15 39 -34l26 50l5 -161q-21 43 -47 76q-11 14 -25 27.5t-30.5 24t-35 16.5t-39.5 6q-11 0 -24.5 -2t-25 -7.5t-19 -15.5t-7.5 -27t7 -28t21.5 -19.5t37 -16l53.5 -18.5q30 -10 58 -21t49 -24t34 -29.5t13 -39.5z" />
    <glyph glyph-name="t" unicode="t" horiz-adv-x="281" 
d="M263 362l-132 13l-27 -277q-5 -45 12 -70.5t42 -24.5q18 1 36 9q15 7 31.5 20.5t28.5 38.5q-6 -28 -20 -50q-12 -19 -35 -35t-62 -15q-13 0 -33 6.5t-37.5 21t-29 39t-8.5 60.5l9 110l7 89q4 45 7 82l-70 5l-2 23q20 -1 39 4q17 5 35.5 15.5t32.5 32.5q13 20 22.5 41.5
t16.5 39.5q8 21 13 41h16l-22 -171l133 -14z" />
    <glyph glyph-name="u" unicode="u" horiz-adv-x="419" 
d="M287 -41v38q-12 -5 -27 -9q-13 -3 -29.5 -5.5t-36.5 -2.5q-51 0 -84.5 9t-52.5 27.5t-26 46.5t-4 66l8 121l-69 41h157l-24 -162q0 -26 3 -48t12.5 -38t28 -25t49.5 -9q23 0 50.5 5.5t47.5 18.5l19 200l-91 46l181 1l-49 -269l76 -31z" />
    <glyph glyph-name="v" unicode="v" horiz-adv-x="402" 
d="M372 206l-143 -274l-205 347l-130 32l303 51l-81 -59l129 -248l104 154l-92 51l217 10z" />
    <glyph glyph-name="w" unicode="w" horiz-adv-x="500" 
d="M488 333l-160 -359l-99 227l-89 -231l-174 385l-79 24l270 -2l-79 -24l94 -232l90 226l105 -219l94 210l-96 34l214 -4z" />
    <glyph glyph-name="x" unicode="x" horiz-adv-x="401" 
d="M212 -15l67 36l-88 100l-81 -68l66 -43l-192 7l90 38l96 95l-133 146l-110 33l276 7l-72 -36l93 -96l73 66l-84 29l209 7l-86 -40l-88 -81l133 -153l125 -36z" />
    <glyph glyph-name="y" unicode="y" horiz-adv-x="395" 
d="M363 -104q-5 -116 -54 -170.5t-132 -40.5q-41 7 -66 21.5t-39 32t-19 35.5t-6 30q-2 22 11.5 33.5t30.5 8.5t27 -14t8 -29q0 -7 -4 -12q-3 -5 -8.5 -9.5t-15.5 -7.5q0 -15 8 -28q7 -11 21.5 -22t40.5 -15q22 -8 39.5 -4t30.5 15t22.5 28t15.5 36q15 44 20 105l6 146
l-24 -7q-12 -3 -29 -5.5t-38 -2.5q-90 0 -138 30t-48 97l28 111l-64 70l158 -53l-38 -124q0 -45 23 -75t77 -30q20 0 48.5 5t46.5 16l17 189l-99 54l159 -7z" />
    <glyph glyph-name="z" unicode="z" horiz-adv-x="375" 
d="M168 51l132 -24l41 103l6 -132l-332 24l234 271l-178 -6l-21 -109l-30 140l356 5z" />
    <glyph glyph-name="braceleft" unicode="{" horiz-adv-x="321" 
d="M273 547q-37 3 -63 -10t-43.5 -35.5t-27.5 -52t-15.5 -59t-7.5 -57t-4 -45.5q-5 -54 0.5 -106.5t24 -94.5t50 -69t79.5 -30q15 -1 26.5 -6t13.5 -10t-7.5 -9.5t-37.5 -4.5q-58 0 -103.5 29t-76 74.5t-46.5 102t-15 111.5q1 83 23.5 142t56 96t73 53t73.5 13
q23 -2 37 -7.5t18 -11.5t-3 -10t-25 -3z" />
    <glyph glyph-name="bar" unicode="|" horiz-adv-x="140" 
d="M116 -70h-90l-9 686l110 4z" />
    <glyph glyph-name="braceright" unicode="}" horiz-adv-x="337" 
d="M313 275q1 -55 -14.5 -111.5t-46.5 -102t-76 -74.5t-104 -29q-28 0 -37.5 4.5t-7.5 9.5t13.5 10t26.5 6q48 3 79.5 30t50 69t24 94.5t0.5 106.5q-1 19 -3.5 46t-8 56.5t-15.5 59t-27.5 52t-43.5 35.5t-63 10q-18 -1 -24.5 3t-3 10t17.5 11.5t37 7.5q35 3 74 -13t72.5 -53
t56 -96t23.5 -142z" />
    <glyph glyph-name="asciitilde" unicode="~" horiz-adv-x="629" 
d="M417 532q-31 -18 -59 -18q-16 0 -31 4q-17 5 -49 19q-11 5 -17.5 7.5t-10.5 3.5q-8 2 -13 2q-9 0 -21 -5q-5 -2 -13 -7.5t-23 -17.5v83q38 18 60 18q20 0 40.5 -7.5t37.5 -15.5q9 -5 18 -9t20 -4t25.5 6.5t35.5 23.5v-83z" />
    <glyph glyph-name="Adieresis" unicode="&#xc4;" horiz-adv-x="609" 
d="M226 419l-94 -197h177zM390 -196l65 76l-138 315l-205 -17l-50 -101l85 -61l-217 16l110 51l216 456l283 -614l140 -17zM251 603q0 -17 -11.5 -28.5t-28.5 -11.5q-16 0 -27 11.5t-11 28.5t11 27.5t27 10.5q17 0 28.5 -10.5t11.5 -27.5zM346 603q0 -17 -11.5 -28.5
t-27.5 -11.5q-17 0 -28 11.5t-11 28.5t11 27.5t28 10.5q16 0 27.5 -10.5t11.5 -27.5z" />
    <glyph glyph-name="Aring" unicode="&#xc5;" horiz-adv-x="609" 
d="M276 637q0 10 -7 16.5t-16 6.5t-16 -6.5t-7 -16.5q0 -9 7 -15.5t16 -6.5t16 6.5t7 15.5zM311 638q0 -23 -17.5 -40.5t-40.5 -17.5t-40.5 17.5t-17.5 40.5t17.5 40.5t40.5 17.5t40.5 -17.5t17.5 -40.5zM226 419l-94 -197h177zM390 -196l65 76l-138 315l-205 -17l-50 -101
l85 -61l-217 16l110 51l216 456l283 -614l140 -17z" />
    <glyph glyph-name="Ccedilla" unicode="&#xc7;" horiz-adv-x="469" 
d="M449 312q-18 53 -44 95q-11 18 -24 35.5t-28.5 31.5t-32.5 23t-37 10q-56 4 -92 -14.5t-57 -48t-30.5 -64t-11.5 -62.5q-5 -54 1 -107t24 -96t50 -71t80 -32q48 0 89 20q18 9 35.5 23t33 35.5t27 52t17.5 70.5q0 -4 -1 -28q-1 -20 -2.5 -62.5l-4.5 -121.5l-22 70
q-15 -29 -39.5 -47.5t-50.5 -29t-50 -14.5t-38 -2q-58 6 -103.5 37.5t-76 77.5t-46.5 101.5t-15 110.5q1 83 28.5 134t66.5 79t83 36t78 5q38 -3 64.5 -11.5t43.5 -16.5q19 -10 32 -21l69 77zM308 -152q0 -33 -21 -55q-23 -23 -57 -23q-21 0 -36 8t-33 26l28 31
q14 -13 22 -18t18 -5q17 0 26.5 10t9.5 26t-9.5 26t-25.5 10q-9 0 -18 -4.5t-21 -18.5l-3 3l-27 26l74 117l28 -27l-34 -53q22 -10 40 -22q15 -11 27 -25.5t12 -31.5z" />
    <glyph glyph-name="Eacute" unicode="&#xc9;" horiz-adv-x="547" 
d="M530 355l-59 165l-241 -21l-5 -243l94 5l54 99l-4 -241l-55 94l-90 7l-4 -190l261 1l40 168l-3 -193l-494 -3l100 40l-13 432l-111 37l532 40zM298 582l-56 24l50 148l80 -36z" />
    <glyph glyph-name="Ntilde" unicode="&#xd1;" horiz-adv-x="593" 
d="M559 486l-10 -540l-381 475l11 -392l165 -66l-342 2l129 62v439l-121 60l228 -4l283 -375l-3 327l-140 62l289 6zM434 610q-31 -18 -59 -18q-16 0 -31 4q-17 5 -49 19q-11 5 -17.5 7.5t-10.5 3.5q-8 2 -13 2q-9 0 -21 -5q-5 -2 -13 -7.5t-23 -17.5v83q38 18 60 18
q20 0 40.5 -7.5t37.5 -15.5q9 -5 18 -9t20 -4t25.5 6.5t35.5 23.5v-83z" />
    <glyph glyph-name="Odieresis" unicode="&#xd6;" horiz-adv-x="498" 
d="M397 242q0 39 -11 73.5t-30 60t-45 40t-57 14.5q-45 0 -77 -19t-51.5 -47t-28.5 -60.5t-9 -58.5t6.5 -60.5t23 -65t45 -52t71.5 -21.5q44 0 75 16t50.5 43t28.5 62.5t9 74.5zM486 240q0 -57 -21 -100t-56 -72t-80 -44t-92 -15t-90 15.5t-75.5 45t-52 72.5t-19.5 98
q0 110 68.5 168t185.5 59q43 0 84.5 -14t74.5 -42.5t53 -71t20 -99.5zM231 553q0 -17 -11.5 -28.5t-28.5 -11.5q-16 0 -27 11.5t-11 28.5t11 27.5t27 10.5q17 0 28.5 -10.5t11.5 -27.5zM326 553q0 -17 -11.5 -28.5t-27.5 -11.5q-17 0 -28 11.5t-11 28.5t11 27.5t28 10.5
q16 0 27.5 -10.5t11.5 -27.5z" />
    <glyph glyph-name="Udieresis" unicode="&#xdc;" horiz-adv-x="581" 
d="M288 612q0 -17 -11.5 -28.5t-28.5 -11.5q-16 0 -27 11.5t-11 28.5t11 27.5t27 10.5q17 0 28.5 -10.5t11.5 -27.5zM383 612q0 -17 -11.5 -28.5t-27.5 -11.5q-17 0 -28 11.5t-11 28.5t11 27.5t28 10.5q16 0 27.5 -10.5t11.5 -27.5zM508 478l-11 -356q-1 -31 -14 -52
t-33 -34t-45 -19.5t-50.5 -9.5t-49 -3h-40.5q-49 0 -81.5 16.5t-51.5 40t-26.5 49t-7.5 44.5l1 41q0 15 1 38.5t2 57.5t2 80t2 106l-106 39l301 -6l-97 -41l-2 -119q-1 -51 -1.5 -105.5t-0.5 -95.5t10.5 -64.5t28.5 -35t41 -14.5t47 -3q48 0 77 9.5t44 26t19.5 38.5t3.5 48
q-1 28 -2 73q-1 38 -2.5 100t-5.5 153l-136 48l298 -6z" />
    <glyph glyph-name="aacute" unicode="&#xe1;" horiz-adv-x="348" 
d="M239 202q-18 3 -31.5 4.5l-22.5 2.5q-11 1 -17 1q-8 1 -21.5 -0.5t-26.5 -7.5t-22.5 -18.5t-10.5 -33.5q-1 -16 5.5 -27.5t17 -19t22.5 -11t22 -2.5q11 0 23 1q11 1 23.5 3t26.5 4zM218 32l5 42q-43 -8 -66 -8q-14 0 -24 1q-9 -1 -28.5 1t-39.5 9.5t-36 21.5t-17 38
q-2 48 36.5 71.5t106.5 17.5l87 -8q5 52 -1 92q-3 17 -8 32.5t-13.5 26.5t-21.5 16t-31 1q-27 2 -43 -5.5t-25 -17.5q-11 -11 -14 -26q9 -5 13.5 -11t6.5 -11q3 -6 2 -12q-3 -18 -15 -27t-29 -8t-27.5 14.5t-4.5 35.5q3 12 11.5 28t26 30t45 24t68.5 8q78 -3 107 -46
t21 -129l-15 -168l69 -35zM194 467l-56 24l50 148l80 -36z" />
    <glyph glyph-name="agrave" unicode="&#xe0;" horiz-adv-x="348" 
d="M166 464l-74 136l80 36l50 -148zM239 202q-18 3 -31.5 4.5l-22.5 2.5q-11 1 -17 1q-8 1 -21.5 -0.5t-26.5 -7.5t-22.5 -18.5t-10.5 -33.5q-1 -16 5.5 -27.5t17 -19t22.5 -11t22 -2.5q11 0 23 1q11 1 23.5 3t26.5 4zM218 32l5 42q-43 -8 -66 -8q-14 0 -24 1q-9 -1 -28.5 1
t-39.5 9.5t-36 21.5t-17 38q-2 48 36.5 71.5t106.5 17.5l87 -8q5 52 -1 92q-3 17 -8 32.5t-13.5 26.5t-21.5 16t-31 1q-27 2 -43 -5.5t-25 -17.5q-11 -11 -14 -26q9 -5 13.5 -11t6.5 -11q3 -6 2 -12q-3 -18 -15 -27t-29 -8t-27.5 14.5t-4.5 35.5q3 12 11.5 28t26 30t45 24
t68.5 8q78 -3 107 -46t21 -129l-15 -168l69 -35z" />
    <glyph glyph-name="acircumflex" unicode="&#xe2;" horiz-adv-x="348" 
d="M239 202q-18 3 -31.5 4.5l-22.5 2.5q-11 1 -17 1q-8 1 -21.5 -0.5t-26.5 -7.5t-22.5 -18.5t-10.5 -33.5q-1 -16 5.5 -27.5t17 -19t22.5 -11t22 -2.5q11 0 23 1q11 1 23.5 3t26.5 4zM218 32l5 42q-43 -8 -66 -8q-14 0 -24 1q-9 -1 -28.5 1t-39.5 9.5t-36 21.5t-17 38
q-2 48 36.5 71.5t106.5 17.5l87 -8q5 52 -1 92q-3 17 -8 32.5t-13.5 26.5t-21.5 16t-31 1q-27 2 -43 -5.5t-25 -17.5q-11 -11 -14 -26q9 -5 13.5 -11t6.5 -11q3 -6 2 -12q-3 -18 -15 -27t-29 -8t-27.5 14.5t-4.5 35.5q3 12 11.5 28t26 30t45 24t68.5 8q78 -3 107 -46
t21 -129l-15 -168l69 -35zM263 475l-88 72l-88 -72l-15 15l98 161h10l98 -161z" />
    <glyph glyph-name="adieresis" unicode="&#xe4;" horiz-adv-x="348" 
d="M176 483q0 -17 -11.5 -28.5t-28.5 -11.5q-16 0 -27 11.5t-11 28.5t11 27.5t27 10.5q17 0 28.5 -10.5t11.5 -27.5zM271 483q0 -17 -11.5 -28.5t-27.5 -11.5q-17 0 -28 11.5t-11 28.5t11 27.5t28 10.5q16 0 27.5 -10.5t11.5 -27.5zM239 202q-18 3 -31.5 4.5l-22.5 2.5
q-11 1 -17 1q-8 1 -21.5 -0.5t-26.5 -7.5t-22.5 -18.5t-10.5 -33.5q-1 -16 5.5 -27.5t17 -19t22.5 -11t22 -2.5q11 0 23 1q11 1 23.5 3t26.5 4zM218 32l5 42q-43 -8 -66 -8q-14 0 -24 1q-9 -1 -28.5 1t-39.5 9.5t-36 21.5t-17 38q-2 48 36.5 71.5t106.5 17.5l87 -8
q5 52 -1 92q-3 17 -8 32.5t-13.5 26.5t-21.5 16t-31 1q-27 2 -43 -5.5t-25 -17.5q-11 -11 -14 -26q9 -5 13.5 -11t6.5 -11q3 -6 2 -12q-3 -18 -15 -27t-29 -8t-27.5 14.5t-4.5 35.5q3 12 11.5 28t26 30t45 24t68.5 8q78 -3 107 -46t21 -129l-15 -168l69 -35z" />
    <glyph glyph-name="atilde" unicode="&#xe3;" horiz-adv-x="348" 
d="M239 202q-18 3 -31.5 4.5l-22.5 2.5q-11 1 -17 1q-8 1 -21.5 -0.5t-26.5 -7.5t-22.5 -18.5t-10.5 -33.5q-1 -16 5.5 -27.5t17 -19t22.5 -11t22 -2.5q11 0 23 1q11 1 23.5 3t26.5 4zM218 32l5 42q-43 -8 -66 -8q-14 0 -24 1q-9 -1 -28.5 1t-39.5 9.5t-36 21.5t-17 38
q-2 48 36.5 71.5t106.5 17.5l87 -8q5 52 -1 92q-3 17 -8 32.5t-13.5 26.5t-21.5 16t-31 1q-27 2 -43 -5.5t-25 -17.5q-11 -11 -14 -26q9 -5 13.5 -11t6.5 -11q3 -6 2 -12q-3 -18 -15 -27t-29 -8t-27.5 14.5t-4.5 35.5q3 12 11.5 28t26 30t45 24t68.5 8q78 -3 107 -46
t21 -129l-15 -168l69 -35zM306 492q-31 -18 -59 -18q-16 0 -31 4q-17 5 -49 19q-11 5 -17.5 7.5t-10.5 3.5q-8 2 -13 2q-9 0 -21 -5q-5 -2 -13 -7.5t-23 -17.5v83q38 18 60 18q20 0 40.5 -7.5t37.5 -15.5q9 -5 18 -9t20 -4t25.5 6.5t35.5 23.5v-83z" />
    <glyph glyph-name="aring" unicode="&#xe5;" horiz-adv-x="348" 
d="M194 510q0 10 -7 16.5t-16 6.5t-16 -6.5t-7 -16.5q0 -9 7 -15.5t16 -6.5t16 6.5t7 15.5zM229 511q0 -23 -17.5 -40.5t-40.5 -17.5t-40.5 17.5t-17.5 40.5t17.5 40.5t40.5 17.5t40.5 -17.5t17.5 -40.5zM239 202q-18 3 -31.5 4.5l-22.5 2.5q-11 1 -17 1q-8 1 -21.5 -0.5
t-26.5 -7.5t-22.5 -18.5t-10.5 -33.5q-1 -16 5.5 -27.5t17 -19t22.5 -11t22 -2.5q11 0 23 1q11 1 23.5 3t26.5 4zM218 32l5 42q-43 -8 -66 -8q-14 0 -24 1q-9 -1 -28.5 1t-39.5 9.5t-36 21.5t-17 38q-2 48 36.5 71.5t106.5 17.5l87 -8q5 52 -1 92q-3 17 -8 32.5t-13.5 26.5
t-21.5 16t-31 1q-27 2 -43 -5.5t-25 -17.5q-11 -11 -14 -26q9 -5 13.5 -11t6.5 -11q3 -6 2 -12q-3 -18 -15 -27t-29 -8t-27.5 14.5t-4.5 35.5q3 12 11.5 28t26 30t45 24t68.5 8q78 -3 107 -46t21 -129l-15 -168l69 -35z" />
    <glyph glyph-name="ccedilla" unicode="&#xe7;" horiz-adv-x="363" 
d="M353 131q-3 -51 -23.5 -80.5t-43.5 -44.5q-27 -18 -60 -24q-46 -6 -83.5 7.5t-64.5 38t-43 56t-20 61.5q-7 57 6.5 100t38.5 72t57 45.5t62 20.5q26 4 47.5 2t38 -8t29 -15t21.5 -18q21 -22 31 -53q5 -21 -6 -34.5t-29 -13.5q-17 0 -28.5 9.5t-13.5 26.5q-1 7 1 14
q2 6 4.5 12.5t8.5 11.5q-8 13 -21 23q-11 8 -28.5 14.5t-43.5 3.5q-23 -5 -39.5 -16t-27.5 -26t-18 -32t-11 -35q-9 -41 -5 -90q3 -25 12 -51.5t25.5 -48t41.5 -34t59 -9.5q28 3 49.5 14.5t36.5 28t25 36t15 36.5zM256 -146q0 -33 -21 -55q-23 -23 -57 -23q-21 0 -36 8
t-33 26l28 31q14 -13 22 -18t18 -5q17 0 26.5 10t9.5 26t-9.5 26t-25.5 10q-9 0 -18 -4.5t-21 -18.5l-3 3l-27 26l74 117l28 -27l-34 -53q22 -10 40 -22q15 -11 27 -25.5t12 -31.5z" />
    <glyph glyph-name="eacute" unicode="&#xe9;" horiz-adv-x="378" 
d="M292 178q1 21 -4 42t-16.5 38.5t-28.5 29t-40 14.5q-13 2 -32 -0.5t-36.5 -15t-31.5 -37.5t-19 -69zM84 148q1 -17 7.5 -36t20.5 -35.5t36.5 -27t54.5 -10.5q49 0 84.5 22.5t69.5 54.5q-9 -18 -21.5 -37.5t-32 -36t-46 -27.5t-63.5 -11q-35 0 -67.5 9t-58 28t-42 49
t-19.5 72q-2 36 11.5 69.5t40.5 59.5t66.5 40t89.5 11q40 -3 68.5 -21.5t47.5 -46t27.5 -59.5t7.5 -62zM209 407l-56 24l50 148l80 -36z" />
    <glyph glyph-name="egrave" unicode="&#xe8;" horiz-adv-x="378" 
d="M183 392l-74 136l80 36l50 -148zM292 178q1 21 -4 42t-16.5 38.5t-28.5 29t-40 14.5q-13 2 -32 -0.5t-36.5 -15t-31.5 -37.5t-19 -69zM84 148q1 -17 7.5 -36t20.5 -35.5t36.5 -27t54.5 -10.5q49 0 84.5 22.5t69.5 54.5q-9 -18 -21.5 -37.5t-32 -36t-46 -27.5t-63.5 -11
q-35 0 -67.5 9t-58 28t-42 49t-19.5 72q-2 36 11.5 69.5t40.5 59.5t66.5 40t89.5 11q40 -3 68.5 -21.5t47.5 -46t27.5 -59.5t7.5 -62z" />
    <glyph glyph-name="ecircumflex" unicode="&#xea;" horiz-adv-x="378" 
d="M292 178q1 21 -4 42t-16.5 38.5t-28.5 29t-40 14.5q-13 2 -32 -0.5t-36.5 -15t-31.5 -37.5t-19 -69zM84 148q1 -17 7.5 -36t20.5 -35.5t36.5 -27t54.5 -10.5q49 0 84.5 22.5t69.5 54.5q-9 -18 -21.5 -37.5t-32 -36t-46 -27.5t-63.5 -11q-35 0 -67.5 9t-58 28t-42 49
t-19.5 72q-2 36 11.5 69.5t40.5 59.5t66.5 40t89.5 11q40 -3 68.5 -21.5t47.5 -46t27.5 -59.5t7.5 -62zM278 376l-88 72l-88 -72l-15 15l98 161h10l98 -161z" />
    <glyph glyph-name="edieresis" unicode="&#xeb;" horiz-adv-x="378" 
d="M184 436q0 -17 -11.5 -28.5t-28.5 -11.5q-16 0 -27 11.5t-11 28.5t11 27.5t27 10.5q17 0 28.5 -10.5t11.5 -27.5zM279 436q0 -17 -11.5 -28.5t-27.5 -11.5q-17 0 -28 11.5t-11 28.5t11 27.5t28 10.5q16 0 27.5 -10.5t11.5 -27.5zM292 178q1 21 -4 42t-16.5 38.5t-28.5 29
t-40 14.5q-13 2 -32 -0.5t-36.5 -15t-31.5 -37.5t-19 -69zM84 148q1 -17 7.5 -36t20.5 -35.5t36.5 -27t54.5 -10.5q49 0 84.5 22.5t69.5 54.5q-9 -18 -21.5 -37.5t-32 -36t-46 -27.5t-63.5 -11q-35 0 -67.5 9t-58 28t-42 49t-19.5 72q-2 36 11.5 69.5t40.5 59.5t66.5 40
t89.5 11q40 -3 68.5 -21.5t47.5 -46t27.5 -59.5t7.5 -62z" />
    <glyph glyph-name="iacute" unicode="&#xed;" horiz-adv-x="202" 
d="M118 392l-57 24l51 148l80 -36zM11 -16l78 48l-11 247l-78 37h168l-22 -288l70 -48z" />
    <glyph glyph-name="igrave" unicode="&#xec;" horiz-adv-x="202" 
d="M95 389l-74 136l80 36l50 -148zM11 -16l78 48l-11 247l-78 37h168l-22 -288l70 -48z" />
    <glyph glyph-name="icircumflex" unicode="&#xee;" horiz-adv-x="202" 
d="M189 391l-88 72l-88 -72l-15 15l98 161h10l98 -161zM11 -16l78 48l-11 247l-78 37h168l-22 -288l70 -48z" />
    <glyph glyph-name="idieresis" unicode="&#xef;" horiz-adv-x="202" 
d="M92 436q0 -16 -11.5 -27.5t-27.5 -11.5q-17 0 -28 11.5t-11 27.5q0 17 11 28t28 11q16 0 27.5 -11t11.5 -28zM188 436q0 -16 -11.5 -27.5t-28.5 -11.5q-16 0 -27 11.5t-11 27.5q0 17 11 28t27 11q17 0 28.5 -11t11.5 -28zM11 -16l78 48l-11 247l-78 37h168l-22 -288
l70 -48z" />
    <glyph glyph-name="ntilde" unicode="&#xf1;" horiz-adv-x="428" 
d="M242 -41l84 61l4 111q2 46 -22 76t-78 29q-20 0 -48.5 -4.5t-46.5 -15.5l-16 -162l79 -63l-215 -1l84 60l-23 185l-110 28l207 32l-4 -48q11 4 25 8q12 3 28.5 5t37.5 2q90 1 133.5 -29.5t43.5 -96.5l-28 -112l79 -63zM337 354q-31 -18 -59 -18q-16 0 -31 4q-17 5 -49 19
q-11 5 -17.5 7.5t-10.5 3.5q-8 2 -13 2q-9 0 -21 -5q-5 -2 -13 -7.5t-23 -17.5v83q38 18 60 18q20 0 40.5 -7.5t37.5 -15.5q9 -5 18 -9t20 -4t25.5 6.5t35.5 23.5v-83z" />
    <glyph glyph-name="oacute" unicode="&#xf3;" horiz-adv-x="485" 
d="M382 133q0 27 -10 50.5t-28 40.5t-42 27t-53 10q-42 0 -71.5 -13t-48 -32t-26.5 -41t-8 -40t6 -41t21.5 -44t42 -35.5t66.5 -14.5q41 0 69.5 11t46.5 29t26.5 42t8.5 51zM465 132q0 -39 -19.5 -68t-52 -49t-74 -30t-85.5 -10t-84 10.5t-70.5 31t-48.5 49.5t-18 66
q0 75 63.5 114.5t172.5 40.5q40 0 79 -9.5t69.5 -29t49 -48.5t18.5 -68zM272 380l-56 24l50 148l80 -36z" />
    <glyph glyph-name="ograve" unicode="&#xf2;" horiz-adv-x="485" 
d="M218 369l-74 136l80 36l50 -148zM382 133q0 27 -10 50.5t-28 40.5t-42 27t-53 10q-42 0 -71.5 -13t-48 -32t-26.5 -41t-8 -40t6 -41t21.5 -44t42 -35.5t66.5 -14.5q41 0 69.5 11t46.5 29t26.5 42t8.5 51zM465 132q0 -39 -19.5 -68t-52 -49t-74 -30t-85.5 -10t-84 10.5
t-70.5 31t-48.5 49.5t-18 66q0 75 63.5 114.5t172.5 40.5q40 0 79 -9.5t69.5 -29t49 -48.5t18.5 -68z" />
    <glyph glyph-name="ocircumflex" unicode="&#xf4;" horiz-adv-x="485" 
d="M382 133q0 27 -10 50.5t-28 40.5t-42 27t-53 10q-42 0 -71.5 -13t-48 -32t-26.5 -41t-8 -40t6 -41t21.5 -44t42 -35.5t66.5 -14.5q41 0 69.5 11t46.5 29t26.5 42t8.5 51zM465 132q0 -39 -19.5 -68t-52 -49t-74 -30t-85.5 -10t-84 10.5t-70.5 31t-48.5 49.5t-18 66
q0 75 63.5 114.5t172.5 40.5q40 0 79 -9.5t69.5 -29t49 -48.5t18.5 -68zM322 342l-88 72l-88 -72l-15 15l98 161h10l98 -161z" />
    <glyph glyph-name="odieresis" unicode="&#xf6;" horiz-adv-x="485" 
d="M228 381q0 -17 -11.5 -28.5t-28.5 -11.5q-16 0 -27 11.5t-11 28.5t11 27.5t27 10.5q17 0 28.5 -10.5t11.5 -27.5zM323 381q0 -17 -11.5 -28.5t-27.5 -11.5q-17 0 -28 11.5t-11 28.5t11 27.5t28 10.5q16 0 27.5 -10.5t11.5 -27.5zM382 133q0 27 -10 50.5t-28 40.5t-42 27
t-53 10q-42 0 -71.5 -13t-48 -32t-26.5 -41t-8 -40t6 -41t21.5 -44t42 -35.5t66.5 -14.5q41 0 69.5 11t46.5 29t26.5 42t8.5 51zM465 132q0 -39 -19.5 -68t-52 -49t-74 -30t-85.5 -10t-84 10.5t-70.5 31t-48.5 49.5t-18 66q0 75 63.5 114.5t172.5 40.5q40 0 79 -9.5
t69.5 -29t49 -48.5t18.5 -68z" />
    <glyph glyph-name="otilde" unicode="&#xf5;" horiz-adv-x="485" 
d="M382 133q0 27 -10 50.5t-28 40.5t-42 27t-53 10q-42 0 -71.5 -13t-48 -32t-26.5 -41t-8 -40t6 -41t21.5 -44t42 -35.5t66.5 -14.5q41 0 69.5 11t46.5 29t26.5 42t8.5 51zM465 132q0 -39 -19.5 -68t-52 -49t-74 -30t-85.5 -10t-84 10.5t-70.5 31t-48.5 49.5t-18 66
q0 75 63.5 114.5t172.5 40.5q40 0 79 -9.5t69.5 -29t49 -48.5t18.5 -68zM355 365q-31 -18 -59 -18q-16 0 -31 4q-17 5 -49 19q-11 5 -17.5 7.5t-10.5 3.5q-8 2 -13 2q-9 0 -21 -5q-5 -2 -13 -7.5t-23 -17.5v83q38 18 60 18q20 0 40.5 -7.5t37.5 -15.5q9 -5 18 -9t20 -4
t25.5 6.5t35.5 23.5v-83z" />
    <glyph glyph-name="uacute" unicode="&#xfa;" horiz-adv-x="419" 
d="M287 -41v38q-12 -5 -27 -9q-13 -3 -29.5 -5.5t-36.5 -2.5q-51 0 -84.5 9t-52.5 27.5t-26 46.5t-4 66l8 121l-69 41h157l-24 -162q0 -26 3 -48t12.5 -38t28 -25t49.5 -9q23 0 50.5 5.5t47.5 18.5l19 200l-91 46l181 1l-49 -269l76 -31zM215 400l-56 24l50 148l80 -36z" />
    <glyph glyph-name="ugrave" unicode="&#xf9;" horiz-adv-x="419" 
d="M195 381l-74 136l80 36l50 -148zM287 -41v38q-12 -5 -27 -9q-13 -3 -29.5 -5.5t-36.5 -2.5q-51 0 -84.5 9t-52.5 27.5t-26 46.5t-4 66l8 121l-69 41h157l-24 -162q0 -26 3 -48t12.5 -38t28 -25t49.5 -9q23 0 50.5 5.5t47.5 18.5l19 200l-91 46l181 1l-49 -269l76 -31z
" />
    <glyph glyph-name="ucircumflex" unicode="&#xfb;" horiz-adv-x="419" 
d="M287 -41v38q-12 -5 -27 -9q-13 -3 -29.5 -5.5t-36.5 -2.5q-51 0 -84.5 9t-52.5 27.5t-26 46.5t-4 66l8 121l-69 41h157l-24 -162q0 -26 3 -48t12.5 -38t28 -25t49.5 -9q23 0 50.5 5.5t47.5 18.5l19 200l-91 46l181 1l-49 -269l76 -31zM273 372l-88 72l-88 -72l-15 15
l98 161h10l98 -161z" />
    <glyph glyph-name="udieresis" unicode="&#xfc;" horiz-adv-x="419" 
d="M188 411q0 -17 -11.5 -28.5t-28.5 -11.5q-16 0 -27 11.5t-11 28.5t11 27.5t27 10.5q17 0 28.5 -10.5t11.5 -27.5zM283 411q0 -17 -11.5 -28.5t-27.5 -11.5q-17 0 -28 11.5t-11 28.5t11 27.5t28 10.5q16 0 27.5 -10.5t11.5 -27.5zM287 -41v38q-12 -5 -27 -9
q-13 -3 -29.5 -5.5t-36.5 -2.5q-51 0 -84.5 9t-52.5 27.5t-26 46.5t-4 66l8 121l-69 41h157l-24 -162q0 -26 3 -48t12.5 -38t28 -25t49.5 -9q23 0 50.5 5.5t47.5 18.5l19 200l-91 46l181 1l-49 -269l76 -31z" />
    <glyph glyph-name="dagger" unicode="&#x2020;" horiz-adv-x="-8000" 
 />
    <glyph glyph-name="degree" unicode="&#xb0;" horiz-adv-x="-8000" 
 />
    <glyph glyph-name="cent" unicode="&#xa2;" horiz-adv-x="363" 
d="M353 131q-3 -51 -23.5 -80.5t-43.5 -44.5q-27 -18 -60 -24q-2 0 -5 -0.5t-5 -0.5l11 -140h-78l13 143q-32 7 -58 23.5t-44.5 39t-30 48t-14.5 50.5q-7 53 4.5 93.5t33.5 69.5t51 47t57 25l-12 146h78l-13 -141q42 -1 67.5 -16t39.5 -32q17 -20 25 -46q5 -21 -6 -34.5
t-29 -13.5q-17 0 -28.5 9.5t-13.5 26.5q-1 7 1 14q2 6 4.5 12.5t8.5 11.5q-8 13 -21 23q-11 8 -28.5 14.5t-43.5 3.5q-23 -5 -39.5 -16t-27.5 -26t-18 -32t-11 -35q-9 -41 -5 -90q3 -25 12 -51.5t25.5 -48t41.5 -34t59 -9.5q28 3 49.5 14.5t36.5 28t25 36t15 36.5z" />
    <glyph glyph-name="sterling" unicode="&#xa3;" horiz-adv-x="472" 
d="M556 -28q-50 -3 -99 -8.5t-95 -10t-86 -6.5t-71.5 2t-52.5 17t-29 38l-12 238l-63 -3l2 91l57 -4l-8 157q-6 35 11 56.5t45 32.5t60.5 12t58 -6t37 -21t-2.5 -33q-36 12 -59 11.5t-41 -26.5v-189l101 -7l-3 -64l-98 -3l-1 -247l294 -8l55 170v-189z" />
    <glyph glyph-name="section" unicode="&#xa7;" horiz-adv-x="-8000" 
 />
    <glyph glyph-name="bullet" unicode="&#x2022;" horiz-adv-x="206" 
d="M154 206q0 -34 -24 -58t-58 -24t-57.5 24t-23.5 58t23.5 57.5t57.5 23.5t58 -23.5t24 -57.5z" />
    <glyph glyph-name="paragraph" unicode="&#xb6;" horiz-adv-x="526" 
d="M327 231q-8 0 -16 0.5t-16 0.5l-7 -205l31 14zM244 446q-20 0 -44 -2.5t-47 -9t-43.5 -17.5t-33.5 -29q-5 -6 -8.5 -14.5t-3.5 -15.5t3 -15t6 -13q12 -19 32 -32t43.5 -21t48 -11.5t45.5 -4.5zM341 440q-10 2 -19 2.5t-19 1.5l-7 -184h19.5t19.5 1zM427 437l-6 -387
l100 -55l-358 -16l80 29h-5l3 230q-25 3 -57 8.5t-63.5 15.5t-59.5 25t-46 37q-5 6 -10 16t-5 18q0 25 14.5 43t38 31t53 21.5t58.5 13.5t55.5 7t43.5 3l132.5 4l132.5 4z" />
    <glyph glyph-name="germandbls" unicode="&#xdf;" horiz-adv-x="485" 
d="M315 -140l63 74q-5 68 -11.5 111t-13.5 69q-8 30 -17 46q-10 15 -33 33q-20 16 -53 38t-87 50q28 3 64 10.5t68.5 20.5t54.5 31t22 41q0 27 -23 45t-56 28t-71 12t-68 -1q-11 -2 -22 -12q-9 -8 -17 -24t-13 -45l21 -312l95 -41l-291 -3l97 53l-6 327l89 89q45 -2 102 -9
t107 -21t84 -35t34 -51t-20 -49t-49.5 -30.5t-63 -18t-61.5 -13.5q42 -14 71.5 -29t49.5 -28q23 -15 38 -29q14 -16 26 -44q11 -24 20.5 -64t14.5 -101l131 -2z" />
    <glyph glyph-name="registered" unicode="&#xae;" horiz-adv-x="441" 
d="M376 283q0 33 -11 62t-30.5 50t-45.5 33.5t-57 12.5q-46 0 -78 -16t-52 -39.5t-29 -50.5t-9 -49q0 -15 3 -33t9.5 -36.5t18 -36.5t27.5 -32l57 35l-17 156l-62 17l119 26l-2 -46q8 7 16 12l15 9q8 4 14 8q26 12 52 8.5t31 -21.5q5 -16 -2 -26t-23 -13q-6 -1 -10.5 0.5
t-9.5 4l-12.5 6.5t-18.5 8q-9 3 -19 -1q-8 -4 -17 -14t-17 -33l-4 -96l70 -25l-156 -18q17 -12 38 -19t48 -7q44 0 75 13.5t51 36t29 52t9 62.5zM425 282q0 -48 -18 -84.5t-47 -60.5t-67 -36.5t-77 -12.5q-40 0 -76 13t-63.5 38t-44 60.5t-16.5 81.5v1q0 93 57.5 141.5
t156.5 49.5q36 0 71 -12t62.5 -36t44.5 -59.5t17 -83.5z" />
    <glyph glyph-name="copyright" unicode="&#xa9;" horiz-adv-x="441" 
d="M319 245q-2 -30 -14.5 -47.5t-26.5 -26.5q-17 -11 -36 -15q-28 -3 -50 5t-38.5 22.5t-26 33.5t-11.5 37q-4 34 4 59.5t23 43.5t34 27.5t37 12.5q32 5 51 -3.5t30 -19.5q13 -13 19 -32q3 -13 -3.5 -21.5t-17.5 -8.5q-10 0 -17 5.5t-8 16.5q0 5 1 9q2 9 7 14q-4 9 -12 15
q-7 5 -17 8.5t-26 0.5q-28 -5 -40.5 -24t-17.5 -40q-5 -25 -3 -55q2 -15 7.5 -31t15 -28.5t24.5 -20.5t35 -6q17 2 30 9t22.5 17t15.5 21.5t9 21.5zM377 285q0 33 -11 62t-30.5 50t-46 33.5t-57.5 12.5q-46 0 -77.5 -16t-51.5 -40t-29 -51t-9 -49t6.5 -50.5t23 -54.5t45 -44
t72.5 -18t75.5 13.5t51.5 36t29 52.5t9 63zM426 284q0 -48 -18 -84.5t-47.5 -61t-67 -37t-77.5 -12.5t-76 13t-63.5 38t-43.5 61t-16 82v1q0 92 57 140.5t157 49.5q36 0 70.5 -12t62.5 -35.5t45 -59t17 -83.5z" />
    <glyph glyph-name="trademark" unicode="&#x2122;" horiz-adv-x="410" 
d="M311 261l35 23l2 31q2 18 -4.5 30.5t-28.5 12.5q-2 0 -7 -1.5t-10 -5.5t-9 -11.5t-5 -20.5l-4 -47l24 -23l-86 -1l34 24l1 45q1 18 -4.5 30.5t-27.5 12.5q-8 0 -18.5 -3t-15.5 -13l-7 -58l32 -25l-83 -1q-4 -9 -13.5 -18t-28.5 -8q-6 0 -13.5 2.5t-14.5 8.5t-11.5 15.5
t-3.5 24.5q2 23 3.5 43.5t3.5 35.5q2 18 2 33l-28 2l-1 9q8 0 16 2q7 2 14.5 6.5t12.5 12.5t9 16t7 16q4 9 5 17h6l-9 -69l54 -5l-2 -14l-53 5l-10 -111q-2 -18 4.5 -28t16.5 -9q8 0 15 3q6 2 12.5 8t11.5 16q0 -1 -1 -3t-1 -3.5t-1 -3.5l29 20l-10 74l-44 12l83 12l-1 -19
q17 7 28.5 11t21 4t19 -4.5t21.5 -14.5q6 3 12 7q13 7 24 9q36 0 48 -16t12 -42l-4 -33l31 -26z" />
    <glyph glyph-name="acute" unicode="&#xb4;" horiz-adv-x="150" 
d="M68 370l-56 24l50 148l80 -36z" />
    <glyph glyph-name="dieresis" unicode="&#xa8;" horiz-adv-x="208" 
d="M97 439q0 -17 -11.5 -28.5t-28.5 -11.5q-16 0 -27 11.5t-11 28.5t11 27.5t27 10.5q17 0 28.5 -10.5t11.5 -27.5zM192 439q0 -17 -11.5 -28.5t-27.5 -11.5q-17 0 -28 11.5t-11 28.5t11 27.5t28 10.5q16 0 27.5 -10.5t11.5 -27.5z" />
    <glyph glyph-name="notequal" unicode="&#x2260;" horiz-adv-x="-8000" 
 />
    <glyph glyph-name="AE" unicode="&#xc6;" horiz-adv-x="-8000" 
 />
    <glyph glyph-name="Oslash" unicode="&#xd8;" 
d="M305 434q-18 6 -37 6q-45 0 -77 -19t-51.5 -47t-28.5 -60.5t-9 -58.5t6 -59t22 -64zM411 252q0 63 -26 110l-184 -298q22 -8 47 -8q44 0 75 16t50.5 43t28.5 62.5t9 74.5zM501 251q0 -57 -21.5 -100.5t-56.5 -72.5t-80 -44t-92 -15q-39 0 -72 10l-66 -105l-77 46l59 102
q-37 29 -59 74t-22 104v1q0 109 68.5 167.5t185.5 59.5q15 0 29.5 -2t28.5 -5l56 96l93 -60l-52 -83q35 -29 56.5 -72t21.5 -101z" />
    <glyph glyph-name="infinity" unicode="&#x221e;" horiz-adv-x="-8000" 
 />
    <glyph glyph-name="plusminus" unicode="&#xb1;" horiz-adv-x="-8000" 
 />
    <glyph glyph-name="lessequal" unicode="&#x2264;" horiz-adv-x="-8000" 
 />
    <glyph glyph-name="greaterequal" unicode="&#x2265;" horiz-adv-x="-8000" 
 />
    <glyph glyph-name="yen" unicode="&#xa5;" horiz-adv-x="682" 
d="M621 419l-180 -194l4 -37l145 -4l-4 -48l-136 -3l3 -32l137 3l-3 -68l-128 4l4 -48l120 -40l-325 -2l91 39l2 55l-154 5l5 47l152 3l1 33l-158 -3l3 67l158 -5l1 24l-225 250l-134 48l302 14l-65 -39l196 -228l166 162l-85 50l217 -8z" />
    <glyph glyph-name="mu" unicode="&#xb5;" horiz-adv-x="-8000" 
 />
    <glyph glyph-name="mu" unicode="&#x3bc;" horiz-adv-x="-8000" 
 />
    <glyph glyph-name="partialdiff" unicode="&#x2202;" horiz-adv-x="430" 
d="M324 222q-17 14 -43.5 22t-58.5 11q-66 6 -103.5 -29t-41.5 -90q-2 -28 7.5 -49.5t26.5 -37t40.5 -25t48.5 -13.5q42 -7 70.5 1t43.5 15zM312 -63v2l-3 -1l3 59q-21 -8 -52.5 -12t-65.5 -2t-68 11t-62 27t-45.5 46.5t-18.5 69.5q-1 25 10.5 54t36 53t62.5 38t91 9
q45 -4 74.5 -14.5t51.5 -22.5q4 81 -1 132t-17.5 82t-31 46.5t-40.5 23.5t-47.5 14t-51.5 18q48 11 89.5 17.5t74 -3.5t54.5 -44t31.5 -103.5t4.5 -182.5t-26 -281l80 -19z" />
    <glyph glyph-name="summation" unicode="&#x2211;" horiz-adv-x="-8000" 
 />
    <glyph glyph-name="product" unicode="&#x220f;" horiz-adv-x="-8000" 
 />
    <glyph glyph-name="pi" unicode="&#x3c0;" horiz-adv-x="-8000" 
 />
    <glyph glyph-name="integral" unicode="&#x222b;" horiz-adv-x="-8000" 
 />
    <glyph glyph-name="ordfeminine" unicode="&#xaa;" horiz-adv-x="-8000" 
 />
    <glyph glyph-name="ordmasculine" unicode="&#xba;" horiz-adv-x="-8000" 
 />
    <glyph glyph-name="ae" unicode="&#xe6;" horiz-adv-x="-8000" 
 />
    <glyph glyph-name="oslash" unicode="&#xf8;" 
d="M305 434q-18 6 -37 6q-45 0 -77 -19t-51.5 -47t-28.5 -60.5t-9 -58.5t6 -59t22 -64zM411 252q0 63 -26 110l-184 -298q22 -8 47 -8q44 0 75 16t50.5 43t28.5 62.5t9 74.5zM501 251q0 -57 -21.5 -100.5t-56.5 -72.5t-80 -44t-92 -15q-39 0 -72 10l-66 -105l-77 46l59 102
q-37 29 -59 74t-22 104v1q0 109 68.5 167.5t185.5 59.5q15 0 29.5 -2t28.5 -5l56 96l93 -60l-52 -83q35 -29 56.5 -72t21.5 -101z" />
    <glyph glyph-name="questiondown" unicode="&#xbf;" horiz-adv-x="367" 
d="M333 -26l-27 45q-22 -6 -48 -9q-22 -2 -49 -1t-54 9q-31 10 -64.5 27t-58.5 41.5t-35.5 57t3.5 73.5q9 25 27.5 43.5t44 30t57 15.5t64.5 1l44 103l58 -14l-18 -135q-8 3 -15.5 5.5t-15.5 4.5q-27 7 -53.5 5t-49 -12t-39 -28t-25.5 -44q-7 -23 -4.5 -46t15.5 -43.5
t35.5 -37t55.5 -26.5q44 -13 77 -6.5t56 20.5q26 16 45 40zM349 471q-5 -18 -24.5 -28t-47.5 -4l-1 1q-35 8 -44 24.5t-6 31.5t24 24t46 4q29 -7 43 -21.5t10 -31.5z" />
    <glyph glyph-name="exclamdown" unicode="&#xa1;" horiz-adv-x="161" 
d="M70 544q1 12 7 20t15 12.5t19 6t17 0.5q8 -1 17.5 -4t18.5 -8.5t15 -14t5 -19.5q-2 -23 -21.5 -34t-40.5 -9q-15 1 -25 7t-16 14t-8.5 16t-2.5 13zM91 465l60 -7l-19 -485l-125 10z" />
    <glyph glyph-name="logicalnot" unicode="&#xac;" horiz-adv-x="-8000" 
 />
    <glyph glyph-name="radical" unicode="&#x221a;" horiz-adv-x="-8000" 
 />
    <glyph glyph-name="florin" unicode="&#x192;" horiz-adv-x="-8000" 
 />
    <glyph glyph-name="approxequal" unicode="&#x2248;" horiz-adv-x="-8000" 
 />
    <glyph glyph-name="Delta" unicode="&#x394;" horiz-adv-x="-8000" 
 />
    <glyph glyph-name="Delta" unicode="&#x2206;" horiz-adv-x="-8000" 
 />
    <glyph glyph-name="guillemotleft" unicode="&#xab;" horiz-adv-x="285" 
d="M252 402l-59 -133l59 -134l-10 -22l-109 148v15l109 149zM152 402l-59 -133l59 -134l-10 -22l-109 148v15l109 149z" />
    <glyph glyph-name="guillemotright" unicode="&#xbb;" horiz-adv-x="285" 
d="M43 425l109 -149v-15l-109 -148l-10 22l59 134l-59 133zM143 425l109 -149v-15l-109 -148l-10 22l59 134l-59 133z" />
    <glyph glyph-name="ellipsis" unicode="&#x2026;" horiz-adv-x="-8000" 
 />
    <glyph glyph-name="nonbreakingspace" unicode="&#xa0;" horiz-adv-x="-8000" 
 />
    <glyph glyph-name="Agrave" unicode="&#xc0;" horiz-adv-x="609" 
d="M226 419l-94 -197h177zM390 -196l65 76l-138 315l-205 -17l-50 -101l85 -61l-217 16l110 51l216 456l283 -614l140 -17zM241 584l-74 136l80 36l50 -148z" />
    <glyph glyph-name="Atilde" unicode="&#xc3;" horiz-adv-x="609" 
d="M387 600q-31 -18 -59 -18q-16 0 -31 4q-17 5 -49 19q-11 5 -17.5 7.5t-10.5 3.5q-8 2 -13 2q-9 0 -21 -5q-5 -2 -13 -7.5t-23 -17.5v83q38 18 60 18q20 0 40.5 -7.5t37.5 -15.5q9 -5 18 -9t20 -4t25.5 6.5t35.5 23.5v-83zM226 419l-94 -197h177zM390 -196l65 76l-138 315
l-205 -17l-50 -101l85 -61l-217 16l110 51l216 456l283 -614l140 -17z" />
    <glyph glyph-name="Otilde" unicode="&#xd5;" horiz-adv-x="498" 
d="M397 242q0 39 -11 73.5t-30 60t-45 40t-57 14.5q-45 0 -77 -19t-51.5 -47t-28.5 -60.5t-9 -58.5t6.5 -60.5t23 -65t45 -52t71.5 -21.5q44 0 75 16t50.5 43t28.5 62.5t9 74.5zM486 240q0 -57 -21 -100t-56 -72t-80 -44t-92 -15t-90 15.5t-75.5 45t-52 72.5t-19.5 98
q0 110 68.5 168t185.5 59q43 0 84.5 -14t74.5 -42.5t53 -71t20 -99.5z" />
    <glyph glyph-name="OE" unicode="&#x152;" horiz-adv-x="-8000" 
 />
    <glyph glyph-name="oe" unicode="&#x153;" horiz-adv-x="-8000" 
 />
    <glyph glyph-name="endash" unicode="&#x2013;" horiz-adv-x="424" 
d="M37 224v90l342 9l3 -110z" />
    <glyph glyph-name="emdash" unicode="&#x2014;" horiz-adv-x="767" 
d="M44 224v90l686 9l4 -110z" />
    <glyph glyph-name="quotedblleft" unicode="&#x201c;" horiz-adv-x="265" 
d="M92 370l-80 36l74 136l56 -25zM202 370l-80 36l74 136l56 -25z" />
    <glyph glyph-name="quotedblright" unicode="&#x201d;" horiz-adv-x="265" 
d="M68 370l-56 24l50 148l80 -36zM178 370l-56 24l50 148l80 -36z" />
    <glyph glyph-name="quoteleft" unicode="&#x2018;" horiz-adv-x="150" 
d="M92 370l-80 36l74 136l56 -25z" />
    <glyph glyph-name="quoteright" unicode="&#x2019;" horiz-adv-x="150" 
d="M68 370l-56 24l50 148l80 -36z" />
    <glyph glyph-name="divide" unicode="&#xf7;" horiz-adv-x="-8000" 
 />
    <glyph glyph-name="lozenge" unicode="&#x25ca;" horiz-adv-x="-8000" 
 />
    <glyph glyph-name="ydieresis" unicode="&#xff;" horiz-adv-x="395" 
d="M363 -104q-5 -116 -54 -170.5t-132 -40.5q-41 7 -66 21.5t-39 32t-19 35.5t-6 30q-2 22 11.5 33.5t30.5 8.5t27 -14t8 -29q0 -7 -4 -12q-3 -5 -8.5 -9.5t-15.5 -7.5q0 -15 8 -28q7 -11 21.5 -22t40.5 -15q22 -8 39.5 -4t30.5 15t22.5 28t15.5 36q15 44 20 105l6 146
l-24 -7q-12 -3 -29 -5.5t-38 -2.5q-90 0 -138 30t-48 97l28 111l-64 70l158 -53l-38 -124q0 -45 23 -75t77 -30q20 0 48.5 5t46.5 16l17 189l-99 54l159 -7zM186 412q0 -17 -11.5 -28.5t-28.5 -11.5q-16 0 -27 11.5t-11 28.5t11 27.5t27 10.5q17 0 28.5 -10.5t11.5 -27.5z
M281 412q0 -17 -11.5 -28.5t-27.5 -11.5q-17 0 -28 11.5t-11 28.5t11 27.5t28 10.5q16 0 27.5 -10.5t11.5 -27.5z" />
    <glyph glyph-name="Ydieresis" unicode="&#x178;" horiz-adv-x="682" 
d="M396 598q0 -17 -11.5 -28.5t-28.5 -11.5q-16 0 -27 11.5t-11 28.5t11 27.5t27 10.5q17 0 28.5 -10.5t11.5 -27.5zM491 598q0 -17 -11.5 -28.5t-27.5 -11.5q-17 0 -28 11.5t-11 28.5t11 27.5t28 10.5q16 0 27.5 -10.5t11.5 -27.5zM621 419l-180 -194l22 -233l120 -40
l-325 -2l91 39l10 226l-225 250l-134 48l302 14l-65 -39l196 -228l166 162l-85 50l217 -8z" />
    <glyph glyph-name="fraction" unicode="&#x2044;" horiz-adv-x="458" 
d="M82 -19l-77 47l345 597l93 -61z" />
    <glyph glyph-name="guilsinglleft" unicode="&#x2039;" horiz-adv-x="185" 
d="M152 402l-59 -133l59 -134l-10 -22l-109 148v15l109 149z" />
    <glyph glyph-name="guilsinglright" unicode="&#x203a;" horiz-adv-x="185" 
d="M43 425l109 -149v-15l-109 -148l-10 22l59 134l-59 133z" />
    <glyph glyph-name="daggerdbl" unicode="&#x2021;" horiz-adv-x="-8000" 
 />
    <glyph glyph-name="periodcentered" unicode="&#xb7;" horiz-adv-x="206" 
d="M154 206q0 -34 -24 -58t-58 -24t-57.5 24t-23.5 58t23.5 57.5t57.5 23.5t58 -23.5t24 -57.5z" />
    <glyph glyph-name="quotesinglbase" unicode="&#x201a;" horiz-adv-x="150" 
d="M68 -50l-56 24l50 148l80 -36z" />
    <glyph glyph-name="quotedblbase" unicode="&#x201e;" horiz-adv-x="265" 
d="M68 -50l-56 24l50 148l80 -36zM178 -50l-56 24l50 148l80 -36z" />
    <glyph glyph-name="perthousand" unicode="&#x2030;" horiz-adv-x="645" 
d="M372 72q0 25 -13 42.5t-33 17.5q-15 0 -25 -6t-16 -15t-9 -19.5t-3 -18.5q0 -9 2 -20t7.5 -20.5t14.5 -16.5t23 -7q28 0 40 18.5t12 44.5zM165 441q0 25 -13 42.5t-33 17.5q-15 0 -25 -6t-16 -15t-9 -19.5t-3 -18.5q0 -9 2 -20t7.5 -20.5t14.5 -16.5t23 -7q28 0 40 18.5
t12 44.5zM582 72q0 25 -13 42.5t-33 17.5q-15 0 -25 -6t-16 -15t-9 -19.5t-3 -18.5q0 -9 2 -20t7.5 -20.5t14.5 -16.5t23 -7q28 0 40 18.5t12 44.5zM420 71q0 -23 -8.5 -40.5t-22.5 -29t-32 -17.5t-37 -6q-38 0 -66.5 24t-28.5 69q0 44 27.5 67.5t74.5 23.5q17 0 34 -6
t30 -17t21 -28t8 -40zM129 -56l-59 23l227 597l74 -26zM213 440q0 -23 -8.5 -40.5t-22.5 -29t-32 -17.5t-37 -6q-38 0 -66.5 24t-28.5 69q0 44 27.5 67.5t74.5 23.5q17 0 34 -6t30 -17t21 -28t8 -40zM630 71q0 -23 -8.5 -40.5t-22.5 -29t-32 -17.5t-37 -6q-38 0 -66.5 24
t-28.5 69q0 44 27.5 67.5t74.5 23.5q17 0 34 -6t30 -17t21 -28t8 -40z" />
    <glyph glyph-name="Acircumflex" unicode="&#xc2;" horiz-adv-x="609" 
d="M226 419l-94 -197h177zM390 -196l65 76l-138 315l-205 -17l-50 -101l85 -61l-217 16l110 51l216 456l283 -614l140 -17zM346 584l-88 72l-88 -72l-15 15l98 161h10l98 -161z" />
    <glyph glyph-name="Ecircumflex" unicode="&#xca;" horiz-adv-x="547" 
d="M372 587l-88 72l-88 -72l-15 15l98 161h10l98 -161zM530 355l-59 165l-241 -21l-5 -243l94 5l54 99l-4 -241l-55 94l-90 7l-4 -190l261 1l40 168l-3 -193l-494 -3l100 40l-13 432l-111 37l532 40z" />
    <glyph glyph-name="Aacute" unicode="&#xc1;" horiz-adv-x="609" 
d="M226 419l-94 -197h177zM390 -196l65 76l-138 315l-205 -17l-50 -101l85 -61l-217 16l110 51l216 456l283 -614l140 -17zM298 582l-56 24l50 148l80 -36z" />
    <glyph glyph-name="Edieresis" unicode="&#xcb;" horiz-adv-x="547" 
d="M530 355l-59 165l-241 -21l-5 -243l94 5l54 99l-4 -241l-55 94l-90 7l-4 -190l261 1l40 168l-3 -193l-494 -3l100 40l-13 432l-111 37l532 40zM261 623q0 -17 -11.5 -28.5t-28.5 -11.5q-16 0 -27 11.5t-11 28.5t11 27.5t27 10.5q17 0 28.5 -10.5t11.5 -27.5zM356 623
q0 -17 -11.5 -28.5t-27.5 -11.5q-17 0 -28 11.5t-11 28.5t11 27.5t28 10.5q16 0 27.5 -10.5t11.5 -27.5z" />
    <glyph glyph-name="Egrave" unicode="&#xc8;" horiz-adv-x="547" 
d="M262 574l-74 136l80 36l50 -148zM530 355l-59 165l-241 -21l-5 -243l94 5l54 99l-4 -241l-55 94l-90 7l-4 -190l261 1l40 168l-3 -193l-494 -3l100 40l-13 432l-111 37l532 40z" />
    <glyph glyph-name="Iacute" unicode="&#xcd;" horiz-adv-x="293" 
d="M26 -50l95 33l-11 497l-107 44l307 -3l-90 -36l-9 -502l104 -33h-289zM166 574l-56 24l50 148l80 -36z" />
    <glyph glyph-name="Icircumflex" unicode="&#xce;" horiz-adv-x="293" 
d="M246 575l-88 72l-88 -72l-15 15l98 161h10l98 -161zM26 -50l95 33l-11 497l-107 44l307 -3l-90 -36l-9 -502l104 -33h-289z" />
    <glyph glyph-name="Idieresis" unicode="&#xcf;" horiz-adv-x="293" 
d="M26 -50l95 33l-11 497l-107 44l307 -3l-90 -36l-9 -502l104 -33h-289zM153 613q0 -17 -11.5 -28.5t-28.5 -11.5q-16 0 -27 11.5t-11 28.5t11 27.5t27 10.5q17 0 28.5 -10.5t11.5 -27.5zM248 613q0 -17 -11.5 -28.5t-27.5 -11.5q-17 0 -28 11.5t-11 28.5t11 27.5t28 10.5
q16 0 27.5 -10.5t11.5 -27.5z" />
    <glyph glyph-name="Igrave" unicode="&#xcc;" horiz-adv-x="293" 
d="M141 574l-74 136l80 36l50 -148zM26 -50l95 33l-11 497l-107 44l307 -3l-90 -36l-9 -502l104 -33h-289z" />
    <glyph glyph-name="Oacute" unicode="&#xd3;" horiz-adv-x="498" 
d="M397 242q0 39 -11 73.5t-30 60t-45 40t-57 14.5q-45 0 -77 -19t-51.5 -47t-28.5 -60.5t-9 -58.5t6.5 -60.5t23 -65t45 -52t71.5 -21.5q44 0 75 16t50.5 43t28.5 62.5t9 74.5zM486 240q0 -57 -21 -100t-56 -72t-80 -44t-92 -15t-90 15.5t-75.5 45t-52 72.5t-19.5 98
q0 110 68.5 168t185.5 59q43 0 84.5 -14t74.5 -42.5t53 -71t20 -99.5zM253 533l-56 24l50 148l80 -36z" />
    <glyph glyph-name="Ocircumflex" unicode="&#xd4;" horiz-adv-x="498" 
d="M330 501l-88 72l-88 -72l-15 15l98 161h10l98 -161zM397 242q0 39 -11 73.5t-30 60t-45 40t-57 14.5q-45 0 -77 -19t-51.5 -47t-28.5 -60.5t-9 -58.5t6.5 -60.5t23 -65t45 -52t71.5 -21.5q44 0 75 16t50.5 43t28.5 62.5t9 74.5zM486 240q0 -57 -21 -100t-56 -72t-80 -44
t-92 -15t-90 15.5t-75.5 45t-52 72.5t-19.5 98q0 110 68.5 168t185.5 59q43 0 84.5 -14t74.5 -42.5t53 -71t20 -99.5z" />
    <glyph glyph-name="Ograve" unicode="&#xd2;" horiz-adv-x="498" 
d="M397 242q0 39 -11 73.5t-30 60t-45 40t-57 14.5q-45 0 -77 -19t-51.5 -47t-28.5 -60.5t-9 -58.5t6.5 -60.5t23 -65t45 -52t71.5 -21.5q44 0 75 16t50.5 43t28.5 62.5t9 74.5zM486 240q0 -57 -21 -100t-56 -72t-80 -44t-92 -15t-90 15.5t-75.5 45t-52 72.5t-19.5 98
q0 110 68.5 168t185.5 59q43 0 84.5 -14t74.5 -42.5t53 -71t20 -99.5zM224 516l-74 136l80 36l50 -148z" />
    <glyph glyph-name="Uacute" unicode="&#xda;" horiz-adv-x="581" 
d="M508 478l-11 -356q-1 -31 -14 -52t-33 -34t-45 -19.5t-50.5 -9.5t-49 -3h-40.5q-49 0 -81.5 16.5t-51.5 40t-26.5 49t-7.5 44.5l1 41q0 15 1 38.5t2 57.5t2 80t2 106l-106 39l301 -6l-97 -41l-2 -119q-1 -51 -1.5 -105.5t-0.5 -95.5t10.5 -64.5t28.5 -35t41 -14.5t47 -3
q48 0 77 9.5t44 26t19.5 38.5t3.5 48q-1 28 -2 73q-1 38 -2.5 100t-5.5 153l-136 48l298 -6zM313 583l-56 24l50 148l80 -36z" />
    <glyph glyph-name="Ucircumflex" unicode="&#xdb;" horiz-adv-x="581" 
d="M390 573l-88 72l-88 -72l-15 15l98 161h10l98 -161zM508 478l-11 -356q-1 -31 -14 -52t-33 -34t-45 -19.5t-50.5 -9.5t-49 -3h-40.5q-49 0 -81.5 16.5t-51.5 40t-26.5 49t-7.5 44.5l1 41q0 15 1 38.5t2 57.5t2 80t2 106l-106 39l301 -6l-97 -41l-2 -119
q-1 -51 -1.5 -105.5t-0.5 -95.5t10.5 -64.5t28.5 -35t41 -14.5t47 -3q48 0 77 9.5t44 26t19.5 38.5t3.5 48q-1 28 -2 73q-1 38 -2.5 100t-5.5 153l-136 48l298 -6z" />
    <glyph glyph-name="Ugrave" unicode="&#xd9;" horiz-adv-x="581" 
d="M508 478l-11 -356q-1 -31 -14 -52t-33 -34t-45 -19.5t-50.5 -9.5t-49 -3h-40.5q-49 0 -81.5 16.5t-51.5 40t-26.5 49t-7.5 44.5l1 41q0 15 1 38.5t2 57.5t2 80t2 106l-106 39l301 -6l-97 -41l-2 -119q-1 -51 -1.5 -105.5t-0.5 -95.5t10.5 -64.5t28.5 -35t41 -14.5t47 -3
q48 0 77 9.5t44 26t19.5 38.5t3.5 48q-1 28 -2 73q-1 38 -2.5 100t-5.5 153l-136 48l298 -6zM284 568l-74 136l80 36l50 -148z" />
    <glyph glyph-name="dotlessi" unicode="&#x131;" horiz-adv-x="-8000" 
 />
    <glyph glyph-name="circumflex" unicode="&#x2c6;" horiz-adv-x="258" 
d="M209 486l-88 72l-88 -72l-15 15l98 161h10l98 -161z" />
    <glyph glyph-name="tilde" unicode="&#x2dc;" horiz-adv-x="629" 
d="M417 532q-31 -18 -59 -18q-16 0 -31 4q-17 5 -49 19q-11 5 -17.5 7.5t-10.5 3.5q-8 2 -13 2q-9 0 -21 -5q-5 -2 -13 -7.5t-23 -17.5v83q38 18 60 18q20 0 40.5 -7.5t37.5 -15.5q9 -5 18 -9t20 -4t25.5 6.5t35.5 23.5v-83z" />
    <glyph glyph-name="macron" unicode="&#xaf;" horiz-adv-x="337" 
d="M50 520v85h214v-85h-214z" />
    <glyph glyph-name="breve" unicode="&#x2d8;" horiz-adv-x="258" 
d="M224 647q-6 -14 -16 -35t-23 -40.5t-29.5 -33.5t-35.5 -14q-18 0 -34.5 13.5t-30 33t-23 40.5t-14.5 36l15 15l18 -20t21 -20t24 -15t26 -6q14 0 26 6t23.5 15t21 19.5t16.5 20.5z" />
    <glyph glyph-name="dotaccent" unicode="&#x2d9;" horiz-adv-x="252" 
d="M181 581q0 -28 -21 -49q-20 -20 -48 -20q-29 0 -49.5 20t-20.5 49t20.5 49t49.5 20t49 -20t20 -49z" />
    <glyph glyph-name="ring" unicode="&#x2da;" horiz-adv-x="153" 
d="M99 558q0 10 -7 16.5t-16 6.5t-16 -6.5t-7 -16.5q0 -9 7 -15.5t16 -6.5t16 6.5t7 15.5zM134 559q0 -23 -17.5 -40.5t-40.5 -17.5t-40.5 17.5t-17.5 40.5t17.5 40.5t40.5 17.5t40.5 -17.5t17.5 -40.5z" />
    <glyph glyph-name="cedilla" unicode="&#xb8;" horiz-adv-x="183" 
d="M167 -241q0 -33 -21 -55q-23 -23 -57 -23q-21 0 -36 8t-33 26l28 31q14 -13 22 -18t18 -5q17 0 26.5 10t9.5 26t-9.5 26t-25.5 10q-9 0 -18 -4.5t-21 -18.5l-3 3l-27 26l74 117l28 -27l-34 -53q22 -10 40 -22q15 -11 27 -25.5t12 -31.5z" />
    <glyph glyph-name="hungarumlaut" unicode="&#x2dd;" horiz-adv-x="66" 
d="M30 456q-5 -7 -6.5 -15t-6.5 -16l1 -1q2 -6 -4 -10q-3 0 -4.5 -2t-4.5 -3q0 2 -1 1.5t-2 0.5q0 6 0.5 11.5t2.5 10.5t2.5 9t2.5 9q-1 5 2.5 8t4.5 8q3 2 7 1t6 -4v-8zM64 452q-5 -8 -8.5 -21l-5.5 -21q-3 0 -6 -2t-6 0q-4 2 -3 7t1 9q1 4 3.5 10t4.5 9q0 5 3 10.5t5 10.5
q2 0 4 1t4 -1q4 -2 3.5 -5.5t0.5 -6.5z" />
    <glyph glyph-name="ogonek" unicode="&#x2db;" horiz-adv-x="296" 
d="M288 -238q-5 -9 -18 -16q-11 -6 -31.5 -11t-55.5 -5q-48 0 -79 7.5t-48.5 19t-24 25.5t-6.5 28t7 28.5t15 28.5q10 16 22 31l29 -5q-4 -17 -3 -34q1 -14 6 -29.5t20 -26.5q21 -16 46.5 -21t48.5 -4q26 1 53 7z" />
    <glyph glyph-name="caron" unicode="&#x2c7;" horiz-adv-x="258" 
d="M126 486h-10l-98 161l15 15l88 -71l88 71l15 -15z" />
    <glyph glyph-name="lslash" unicode="&#x142;" horiz-adv-x="147" 
d="M117 316l-26 -336l70 -47l-201 -2l78 47v310l-90 -33l-24 84l114 29v150l-90 37l188 -3l-13 -160l67 19l15 -60z" />
    <glyph glyph-name="Scaron" unicode="&#x160;" horiz-adv-x="423" 
d="M427 142q0 -34 -15 -64t-43 -52t-68 -34t-90 -10q-24 1 -48 8.5t-45 18t-37.5 23t-26.5 24.5l-33 -81l-8 222q15 -60 44.5 -98t65 -58t72.5 -24t67.5 5t50 29.5t19.5 48.5q0 27 -17 46.5t-41 32.5t-50 21t-44 12q-16 4 -46 12.5t-60 26.5t-52 48.5t-22 76.5q0 47 19 77
t47.5 48t62 25t63.5 7q25 0 47 -3.5t43 -11.5t43.5 -20t47.5 -30l41 59l-20 -205q-11 63 -39 102.5t-62.5 59.5t-72 23t-69 -7.5t-51.5 -32.5t-20 -51q0 -20 10 -33t28 -22t42.5 -15.5l53.5 -14.5q38 -10 75.5 -23t68.5 -34t50 -53t19 -79zM307 697q-6 -14 -16 -35
t-23 -40.5t-29.5 -33.5t-35.5 -14q-18 0 -34.5 13.5t-30 33t-23 40.5t-14.5 36l15 15l18 -20t21 -20t24 -15t26 -6q14 0 26 6t23.5 15t21 19.5t16.5 20.5z" />
    <glyph glyph-name="scaron" unicode="&#x161;" horiz-adv-x="362" 
d="M287 517q-6 -14 -16 -35t-23 -40.5t-29.5 -33.5t-35.5 -14q-18 0 -34.5 13.5t-30 33t-23 40.5t-14.5 36l15 15l18 -20t21 -20t24 -15t26 -6q14 0 26 6t23.5 15t21 19.5t16.5 20.5zM357 86q1 -25 -10.5 -43.5t-31.5 -31t-46 -19.5t-55 -9q-21 -2 -45 1t-45.5 9.5t-39 15
t-26.5 18.5l-37 -46l7 161q20 -43 48 -75q24 -27 58.5 -45t78.5 -6q23 1 44 11t20 30q0 20 -25 38t-85 36q-29 9 -55.5 21t-47 27.5t-32.5 35t-12 42.5t11.5 42.5t31 33.5t44 22t50.5 8q35 1 62.5 -10t47.5 -24q23 -15 39 -34l26 50l5 -161q-21 43 -47 76q-11 14 -25 27.5
t-30.5 24t-35 16.5t-39.5 6q-11 0 -24.5 -2t-25 -7.5t-19 -15.5t-7.5 -27t7 -28t21.5 -19.5t37 -16l53.5 -18.5q30 -10 58 -21t49 -24t34 -29.5t13 -39.5z" />
    <glyph glyph-name="Yacute" unicode="&#xdd;" horiz-adv-x="682" 
d="M621 419l-180 -194l22 -233l120 -40l-325 -2l91 39l10 226l-225 250l-134 48l302 14l-65 -39l196 -228l166 162l-85 50l217 -8zM428 511l-56 24l50 148l80 -36z" />
    <glyph glyph-name="yacute" unicode="&#xfd;" horiz-adv-x="395" 
d="M195 356l-56 24l50 148l80 -36zM363 -104q-5 -116 -54 -170.5t-132 -40.5q-41 7 -66 21.5t-39 32t-19 35.5t-6 30q-2 22 11.5 33.5t30.5 8.5t27 -14t8 -29q0 -7 -4 -12q-3 -5 -8.5 -9.5t-15.5 -7.5q0 -15 8 -28q7 -11 21.5 -22t40.5 -15q22 -8 39.5 -4t30.5 15t22.5 28
t15.5 36q15 44 20 105l6 146l-24 -7q-12 -3 -29 -5.5t-38 -2.5q-90 0 -138 30t-48 97l28 111l-64 70l158 -53l-38 -124q0 -45 23 -75t77 -30q20 0 48.5 5t46.5 16l17 189l-99 54l159 -7z" />
    <glyph glyph-name="HT" horiz-adv-x="-8000" 
 />
    <glyph glyph-name="LF" horiz-adv-x="-8000" 
 />
    <glyph glyph-name="Thorn" unicode="&#xde;" horiz-adv-x="446" 
d="M360 149q0 27 -10 47t-27.5 34t-40 21.5t-46.5 10.5q-40 4 -66.5 -4.5t-40.5 -16.5v-187q17 -11 42.5 -18t56.5 -8q63 -2 97 33t35 88zM434 153q2 -24 -7 -52t-31 -52t-57.5 -39.5t-86.5 -13.5q-43 2 -72.5 9.5t-50.5 18.5l3 -168l86 -35l-251 -10l91 41l-18 560l-106 51
l192 -6v-2l2 1v-187q20 9 50 14.5t62.5 5.5t66 -6.5t60.5 -22.5t45.5 -42t21.5 -65z" />
    <glyph glyph-name="thorn" unicode="&#xfe;" horiz-adv-x="446" 
d="M360 69q0 27 -10 47t-27.5 34t-40 21.5t-46.5 10.5q-40 4 -66.5 -4.5t-40.5 -16.5v-187q17 -11 42.5 -18t56.5 -8q63 -2 97 33t35 88zM434 73q2 -24 -7 -52t-31 -52t-57.5 -39.5t-86.5 -13.5q-43 2 -72.5 9.5t-50.5 18.5l3 -178l86 -35l-251 -10l91 41l-18 650l-106 51
l192 -6v-2l2 1v-267q20 9 50 14.5t62.5 5.5t66 -6.5t60.5 -22.5t45.5 -42t21.5 -65z" />
    <glyph glyph-name="eth" unicode="&#xf0;" horiz-adv-x="430" 
d="M324 222q-17 14 -43 22t-59 11q-66 6 -103.5 -29t-41.5 -90q-2 -28 7.5 -49.5t26.5 -37t40.5 -25t48.5 -13.5q42 -7 70.5 1t43.5 15zM507 358l-114 -2q2 -69 -5 -162.5t-23 -220.5l80 -19l-133 -17v2l-3 -1l3 59q-21 -8 -52.5 -12t-65.5 -2t-68 11t-62 27t-45.5 46.5
t-18.5 69.5q-1 25 10.5 54t36 53t62.5 38t91 9q45 -4 74.5 -14.5t51.5 -22.5q2 29 2 53.5t-1 46.5l-213 -5l3 88l202 -9q-9 48 -27.5 71t-43 34t-53 17t-58.5 20q49 11 91.5 17.5t75 -4.5t54.5 -47t30 -111l123 -5z" />
    <glyph glyph-name="Zcaron" unicode="&#x17d;" horiz-adv-x="479" 
d="M181 7l213 -8l72 139l-9 -170l-445 4l327 407l-276 -10l-22 -124l-41 159l485 13zM338 591q-6 -14 -16 -35t-23 -40.5t-29.5 -33.5t-35.5 -14q-18 0 -34.5 13.5t-30 33t-23 40.5t-14.5 36l15 15l18 -20t21 -20t24 -15t26 -6q14 0 26 6t23.5 15t21 19.5t16.5 20.5z" />
    <glyph glyph-name="zcaron" unicode="&#x17e;" horiz-adv-x="375" 
d="M298 480q-6 -14 -16 -35t-23 -40.5t-29.5 -33.5t-35.5 -14q-18 0 -34.5 13.5t-30 33t-23 40.5t-14.5 36l15 15l18 -20t21 -20t24 -15t26 -6q14 0 26 6t23.5 15t21 19.5t16.5 20.5zM168 51l132 -24l41 103l6 -132l-332 24l234 271l-178 -6l-21 -109l-30 140l356 5z" />
    <glyph glyph-name="DLE" horiz-adv-x="-8000" 
 />
    <glyph glyph-name="DC1" horiz-adv-x="-8000" 
 />
    <glyph glyph-name="DC2" horiz-adv-x="-8000" 
 />
    <glyph glyph-name="DC3" horiz-adv-x="-8000" 
 />
    <glyph glyph-name="DC4" horiz-adv-x="-8000" 
 />
    <glyph glyph-name="onehalf" unicode="&#xbd;" horiz-adv-x="-8000" 
 />
    <glyph glyph-name="onequarter" unicode="&#xbc;" horiz-adv-x="-8000" 
 />
    <glyph glyph-name="onesuperior" unicode="&#xb9;" horiz-adv-x="-8000" 
 />
    <glyph glyph-name="threequarters" unicode="&#xbe;" horiz-adv-x="-8000" 
 />
    <glyph glyph-name="threesuperior" unicode="&#xb3;" horiz-adv-x="-8000" 
 />
    <glyph glyph-name="twosuperior" unicode="&#xb2;" horiz-adv-x="-8000" 
 />
    <glyph glyph-name="brokenbar" unicode="&#xa6;" horiz-adv-x="-8000" 
 />
    <glyph glyph-name="minus" unicode="&#x2212;" horiz-adv-x="454" 
d="M420 232l-393 -10l3 88l394 -17z" />
    <glyph glyph-name="multiply" unicode="&#xd7;" horiz-adv-x="401" 
d="M212 -15l67 36l-88 100l-81 -68l66 -43l-192 7l90 38l96 95l-133 146l-110 33l276 7l-72 -36l93 -96l73 66l-84 29l209 7l-86 -40l-88 -81l133 -153l125 -36z" />
    <glyph glyph-name="RS" horiz-adv-x="-8000" 
 />
    <glyph glyph-name="US" horiz-adv-x="-8000" 
 />
    <glyph glyph-name="Lslash" unicode="&#x141;" horiz-adv-x="472" 
d="M19 -49l104 53l-9 189l-89 -33l-24 84l109 30l-11 209l-99 40l308 1l-93 -42l-3 -180l84 25l15 -60l-100 -40l-4 -228l194 -8l55 170v-189z" />
    <glyph glyph-name="DEL" horiz-adv-x="-8000" 
 />
    <glyph glyph-name="Omega" unicode="&#x3a9;" horiz-adv-x="-8000" 
 />
    <glyph glyph-name="Omega" unicode="&#x2126;" horiz-adv-x="-8000" 
 />
    <glyph glyph-name="currency" unicode="&#xa4;" horiz-adv-x="363" 
d="M353 131q-3 -51 -23.5 -80.5t-43.5 -44.5q-27 -18 -60 -24q-67 -8 -114.5 21t-72.5 73l-106 4l3 43l83 2q-2 8 -4 20q0 6 -1 9l-81 -2l2 62l80 -4q5 41 21.5 72t40 52t50.5 33.5t52 15.5q26 4 47.5 2t38 -8t29 -15t21.5 -18q21 -22 31 -53q5 -21 -6 -34.5t-29 -13.5
q-17 0 -28.5 9.5t-13.5 26.5q-1 7 1 14q2 6 4.5 12.5t8.5 11.5q-8 13 -21 23q-11 8 -28.5 14.5t-43.5 3.5q-30 -6 -49.5 -23.5t-30.5 -39t-16 -45.5t-6 -44l83 -4l27 -43l-109 -3q1 -13 6 -29l126 3l28 -62l-131 5q17 -27 43.5 -44t65.5 -13q28 3 49.5 14.5t36.5 28t25 36
t15 36.5z" />
    <glyph glyph-name="apple" horiz-adv-x="-8000" 
 />
    <glyph glyph-name="Eth" unicode="&#xd0;" horiz-adv-x="627" 
d="M518 262q0 56 -13.5 92.5t-33.5 59.5t-44 34t-45.5 15.5t-37 4t-19.5 -0.5h-75l-9 -182l134 -6l-4 -61l-134 -4l-8 -163q15 0 32 -1q14 -1 33 -1h39v1h27.5t38 4.5t41.5 16.5t38.5 35.5t28.5 61.5t11 94zM613 273q0 -66 -17 -111t-43 -74t-58 -44.5t-62.5 -22t-55.5 -7.5
t-38 -1t-42.5 -1.5l-68 -3.5l-82.5 -4.5t-88 -4.5l99 54q1 36 -1 76.5t-5 82.5l-173 -4l3 88l164 -7l-7.5 88.5t-5.5 73.5l-132 59q52 -1 96 -1.5t83 -0.5t75 1t72 1q81 -3 144 -29q27 -11 52.5 -28t46 -42t32.5 -59t12 -79z" />
    </font>
</defs>
</svg>
