<?xml version="1.0" encoding="utf-8"?>
<!-- Generator: Adobe Illustrator 16.0.0, SVG Export Plug-In . SVG Version: 6.00 Build 0)  -->
<!DOCTYPE svg PUBLIC "-//W3C//DTD SVG 1.1//EN" "http://www.w3.org/Graphics/SVG/1.1/DTD/svg11.dtd">
<svg version="1.1" id="Layer_1" xmlns="http://www.w3.org/2000/svg" xmlns:xlink="http://www.w3.org/1999/xlink" x="0px" y="0px"
	 width="52.699px" height="65.553px" viewBox="0 0 52.699 65.553" enable-background="new 0 0 52.699 65.553" xml:space="preserve">
<g>
	<g>
		<rect x="1.85" y="1.448" fill="#FFFFFF" width="49.311" height="25.433"/>
	</g>
	<g>
		<path fill="#742C16" d="M36.832,25.349c-0.021,0-0.039,0-0.059,0c-2.712-0.015-8.58-1.41-11.377-6.592l-0.598-1.025
			c-0.171,0.963-0.522,1.9-1.051,2.778c-1.811,3.016-5.445,4.925-9.239,4.834c-2.896-0.06-5.548-1.231-7.462-3.302
			c-1.99-2.156-2.99-5.034-2.811-8.107C4.594,7.792,9.905,2.816,16.092,2.816c0.02,0,0.039,0,0.057,0
			c2.712,0.015,8.58,1.411,11.377,6.591l0.596,1.028c0.173-0.966,0.524-1.902,1.053-2.781c1.774-2.956,5.295-4.838,9.012-4.838
			c0.075,0,0.151,0.002,0.227,0.005c2.898,0.059,5.549,1.231,7.461,3.302c1.992,2.154,2.991,5.035,2.812,8.107
			C48.327,20.374,43.016,25.349,36.832,25.349z M23.803,12.029c0.058,0.087,0.111,0.174,0.168,0.262l3.188,5.48
			c2.451,4.533,7.776,5.548,9.625,5.557c0.014,0,0.03,0.001,0.047,0.001c5.048,0,9.548-4.208,9.84-9.216
			c0.146-2.521-0.663-4.871-2.278-6.62c-1.539-1.664-3.676-2.606-6.021-2.655c-0.063,0-0.125,0-0.188,0
			c-3.021,0-5.861,1.498-7.278,3.855c-1.182,1.967-1.193,4.24-0.041,6.421c2.447,3.684,4.998,3.698,6.386,3.704
			c0.007,0,0.016,0,0.024,0c2.633,0,4.891-2.132,5.045-4.764c0.071-1.256-0.348-2.438-1.178-3.326
			c-0.831-0.882-1.978-1.373-3.229-1.38c-0.01,0-0.02,0-0.028,0c-1.767,0-2.954,0.885-3.026,2.261
			c-0.033,0.594,0.178,1.16,0.59,1.594c0.425,0.447,1.006,0.703,1.598,0.703c0.248,0,0.486-0.105,0.605-0.196
			c-0.173-0.463,0.02-0.994,0.466-1.236c0.488-0.266,1.102-0.086,1.367,0.402c0.315,0.579,0.304,1.236-0.032,1.8
			c-0.445,0.747-1.412,1.25-2.406,1.25c-1.144,0-2.26-0.484-3.062-1.333c-0.797-0.842-1.203-1.939-1.143-3.091
			c0.131-2.462,2.204-4.173,5.044-4.173c0.014,0,0.026,0,0.038,0c1.811,0.009,3.478,0.728,4.69,2.02
			c1.215,1.294,1.827,3.01,1.721,4.823c-0.214,3.684-3.374,6.667-7.055,6.667c-0.011,0-0.024,0-0.036,0
			c-1.484-0.007-4.862-0.024-7.875-4.337c-0.066-0.064-0.122-0.141-0.172-0.227c-0.026-0.045-0.051-0.093-0.075-0.141
			c-0.057-0.086-0.114-0.174-0.17-0.262l-3.187-5.479c-2.451-4.535-7.777-5.549-9.625-5.557c-0.015,0-0.031,0-0.045,0
			c-5.048,0-9.549,4.208-9.842,9.216c-0.146,2.52,0.664,4.87,2.279,6.617c1.538,1.666,3.678,2.608,6.02,2.655
			c0.063,0.002,0.125,0.002,0.188,0.002c3.019,0,5.862-1.499,7.278-3.857c1.181-1.964,1.194-4.236,0.042-6.42
			c-2.448-3.684-5-3.697-6.387-3.705c-0.007,0-0.016,0-0.024,0c-2.634,0-4.891,2.135-5.043,4.764
			c-0.073,1.257,0.346,2.439,1.178,3.326c0.829,0.884,1.976,1.375,3.229,1.381c0.009,0,0.018,0,0.026,0
			c1.768,0,2.954-0.885,3.027-2.261c0.03-0.595-0.179-1.158-0.593-1.595c-0.423-0.446-1.004-0.702-1.594-0.702
			c-0.252,0-0.49,0.106-0.607,0.197c0.172,0.463-0.02,0.993-0.467,1.235c-0.486,0.268-1.1,0.088-1.365-0.403
			c-0.315-0.579-0.303-1.233,0.032-1.799c0.444-0.746,1.411-1.251,2.407-1.251c1.14,0,2.256,0.486,3.059,1.333
			c0.799,0.843,1.204,1.939,1.145,3.093c-0.131,2.461-2.203,4.172-5.044,4.172c-0.013,0-0.024,0-0.037,0
			c-1.812-0.01-3.478-0.727-4.689-2.018c-1.216-1.296-1.828-3.009-1.723-4.826c0.213-3.682,3.376-6.664,7.056-6.664
			c0.013,0,0.022,0,0.034,0c1.484,0.006,4.863,0.024,7.877,4.336c0.066,0.063,0.124,0.142,0.17,0.225
			C23.752,11.936,23.777,11.982,23.803,12.029z"/>
	</g>
	<g>
		<path fill-rule="evenodd" clip-rule="evenodd" fill="#FFFFFF" d="M2.582,62.656c0-0.422,0.146-0.844,0.633-0.844
			c0.492,0,0.64,0.422,0.64,0.844c0,0.414-0.147,0.836-0.64,0.836C2.729,63.492,2.582,63.07,2.582,62.656 M1.861,62.656
			c0,0.83,0.532,1.379,1.354,1.379c0.827,0,1.359-0.549,1.359-1.379c0-0.839-0.532-1.386-1.359-1.386
			C2.394,61.27,1.861,61.817,1.861,62.656z"/>
	</g>
	<g>
		<path fill="#FFFFFF" d="M5.427,63.963h0.72v-2.142h0.497v-0.48H6.146v-0.156c0-0.22,0.082-0.303,0.273-0.303
			c0.091,0,0.178,0.008,0.264,0.018v-0.537c-0.121-0.006-0.253-0.02-0.381-0.02c-0.586,0-0.876,0.334-0.876,0.795v0.203H4.995v0.48
			h0.432V63.963"/>
	</g>
	<g>
		<polyline fill="#FFFFFF" points="8.875,63.963 9.62,63.963 9.62,61.539 9.629,61.539 11.137,63.963 11.934,63.963 11.934,60.343 
			11.188,60.343 11.188,62.771 11.178,62.771 9.666,60.343 8.875,60.343 8.875,63.963 		"/>
	</g>
	<g>
		<path fill-rule="evenodd" clip-rule="evenodd" fill="#FFFFFF" d="M13.43,62.656c0-0.422,0.146-0.844,0.634-0.844
			c0.495,0,0.64,0.422,0.64,0.844c0,0.414-0.145,0.836-0.64,0.836C13.576,63.492,13.43,63.07,13.43,62.656 M12.71,62.656
			c0,0.83,0.532,1.379,1.354,1.379c0.827,0,1.36-0.549,1.36-1.379c0-0.839-0.533-1.386-1.36-1.386
			C13.242,61.27,12.71,61.817,12.71,62.656z"/>
	</g>
	<g>
		<path fill="#FFFFFF" d="M16.118,63.963h0.72v-1.182c0-0.462,0.182-0.842,0.71-0.842c0.087,0,0.194,0.01,0.261,0.024v-0.668
			c-0.046-0.018-0.108-0.026-0.158-0.026c-0.352,0-0.705,0.229-0.837,0.558h-0.01v-0.486h-0.686V63.963"/>
	</g>
	<g>
		<path fill="#FFFFFF" d="M19.224,60.557h-0.721v0.784h-0.436v0.48h0.436v1.55c0,0.521,0.386,0.622,0.827,0.622
			c0.141,0,0.299-0.004,0.42-0.025v-0.562c-0.077,0.015-0.148,0.02-0.222,0.02c-0.244,0-0.305-0.062-0.305-0.304v-1.3h0.526v-0.48
			h-0.526V60.557"/>
	</g>
	<g>
		<path fill="#FFFFFF" d="M20.312,63.963h0.721v-1.375c0-0.532,0.166-0.751,0.557-0.751c0.335,0,0.462,0.214,0.462,0.646v1.48h0.721
			v-1.612c0-0.648-0.193-1.081-0.959-1.081c-0.269,0-0.585,0.144-0.767,0.435h-0.014v-1.361h-0.721V63.963"/>
	</g>
	<g>
		<path fill-rule="evenodd" clip-rule="evenodd" fill="#FFFFFF" d="M24.141,62.372c0.012-0.204,0.143-0.56,0.599-0.56
			c0.35,0,0.507,0.192,0.575,0.56H24.141 M26.031,62.827c0.052-0.805-0.379-1.557-1.271-1.557c-0.797,0-1.339,0.599-1.339,1.386
			c0,0.81,0.512,1.379,1.339,1.379c0.594,0,1.025-0.265,1.228-0.884h-0.634c-0.045,0.164-0.28,0.341-0.569,0.341
			c-0.399,0-0.622-0.207-0.644-0.665H26.031z"/>
	</g>
	<g>
		<path fill="#FFFFFF" d="M26.686,63.963h0.721v-1.182c0-0.462,0.183-0.842,0.71-0.842c0.087,0,0.194,0.01,0.259,0.024v-0.668
			c-0.045-0.018-0.106-0.026-0.158-0.026c-0.349,0-0.705,0.229-0.834,0.558h-0.01v-0.486h-0.688V63.963"/>
	</g>
	<g>
		<path fill="#FFFFFF" d="M28.97,63.963h0.722v-1.375c0-0.532,0.166-0.751,0.557-0.751c0.336,0,0.461,0.214,0.461,0.646v1.48h0.721
			v-1.612c0-0.648-0.194-1.081-0.959-1.081c-0.303,0-0.617,0.144-0.8,0.435h-0.017v-0.363H28.97V63.963"/>
	</g>
	<g>
		<rect x="33.906" y="60.343" fill="#FFFFFF" width="0.796" height="3.62"/>
	</g>
	<g>
		<path fill="#FFFFFF" d="M35.542,63.963h0.721v-1.182c0-0.462,0.183-0.842,0.71-0.842c0.086,0,0.191,0.01,0.259,0.024v-0.668
			c-0.046-0.018-0.107-0.026-0.157-0.026c-0.351,0-0.705,0.229-0.838,0.558h-0.01v-0.486h-0.685V63.963"/>
	</g>
	<g>
		<path fill-rule="evenodd" clip-rule="evenodd" fill="#FFFFFF" d="M38.235,62.372c0.011-0.204,0.142-0.56,0.601-0.56
			c0.349,0,0.506,0.192,0.571,0.56H38.235 M40.126,62.827c0.052-0.805-0.378-1.557-1.271-1.557c-0.797,0-1.339,0.599-1.339,1.386
			c0,0.81,0.512,1.379,1.339,1.379c0.595,0,1.025-0.265,1.228-0.884h-0.633c-0.048,0.164-0.281,0.341-0.569,0.341
			c-0.401,0-0.625-0.207-0.645-0.665H40.126z"/>
	</g>
	<g>
		<rect x="40.803" y="60.343" fill="#FFFFFF" width="0.718" height="3.62"/>
	</g>
	<g>
		<path fill-rule="evenodd" clip-rule="evenodd" fill="#FFFFFF" d="M42.994,62.148c0.024-0.284,0.202-0.396,0.477-0.396
			c0.253,0,0.467,0.045,0.467,0.355c0,0.293-0.412,0.279-0.853,0.347c-0.448,0.059-0.894,0.202-0.894,0.796
			c0,0.535,0.396,0.785,0.894,0.785c0.32,0,0.653-0.087,0.882-0.326c0.005,0.088,0.027,0.172,0.052,0.255h0.73
			c-0.067-0.107-0.093-0.345-0.093-0.585v-1.363c0-0.629-0.628-0.745-1.15-0.745c-0.588,0-1.192,0.202-1.232,0.878H42.994
			 M43.938,62.948c0,0.157-0.021,0.604-0.584,0.604c-0.233,0-0.441-0.066-0.441-0.334c0-0.264,0.204-0.34,0.425-0.387
			c0.226-0.04,0.479-0.045,0.601-0.15V62.948z"/>
	</g>
	<g>
		<path fill="#FFFFFF" d="M45.441,63.963h0.723v-1.375c0-0.532,0.166-0.751,0.558-0.751c0.334,0,0.46,0.214,0.46,0.646v1.48h0.721
			v-1.612c0-0.648-0.193-1.081-0.958-1.081c-0.306,0-0.619,0.144-0.802,0.435h-0.016v-0.363h-0.686V63.963"/>
	</g>
	<g>
		<path fill-rule="evenodd" clip-rule="evenodd" fill="#FFFFFF" d="M50.539,62.644c0,0.433-0.143,0.848-0.617,0.848
			c-0.448,0-0.636-0.432-0.636-0.842c0-0.43,0.163-0.838,0.636-0.838C50.388,61.812,50.539,62.22,50.539,62.644 M50.549,63.963
			h0.686v-3.62h-0.721v1.317h-0.009h0.004c-0.168-0.26-0.473-0.391-0.78-0.391c-0.772,0-1.162,0.655-1.162,1.36
			c0,0.724,0.386,1.404,1.175,1.404c0.336,0,0.631-0.123,0.798-0.406h0.01V63.963z"/>
	</g>
	<g>
		<path fill="#FFFFFF" d="M8.121,50.496C7.51,50.189,6.998,50.07,6.315,50.07c-2.507,0-4.328,1.754-4.328,4.158
			c0,2.266,1.858,4.057,4.209,4.057c0.698,0,1.228-0.121,1.925-0.428V55.54c-0.441,0.341-0.886,0.512-1.38,0.512
			c-1.141,0-1.909-0.769-1.909-1.892c0-1.058,0.802-1.841,1.876-1.841c0.493,0,0.886,0.136,1.413,0.493V50.496"/>
	</g>
	<g>
		<path fill-rule="evenodd" clip-rule="evenodd" fill="#FFFFFF" d="M13.362,52.371c0.971,0,1.755,0.783,1.755,1.771
			c0,0.972-0.784,1.772-1.755,1.772c-0.988,0-1.772-0.801-1.772-1.772C11.59,53.154,12.374,52.371,13.362,52.371 M13.362,50.017
			c-2.726,0-4.653,1.722-4.653,4.143c0,2.438,1.928,4.156,4.653,4.156c2.711,0,4.637-1.719,4.637-4.156
			C17.999,51.739,16.073,50.017,13.362,50.017z"/>
	</g>
	<g>
		<path fill="#FFFFFF" d="M21.66,50.307h-2.727v4.909c0,2.044,1.431,3.136,4.124,3.136c2.675,0,4.108-1.092,4.108-3.136v-4.909
			h-2.729v4.38c0,0.936-0.459,1.414-1.38,1.414c-0.938,0-1.397-0.479-1.397-1.414V50.307"/>
	</g>
	<g>
		<path fill="#FFFFFF" d="M28.385,50.307v7.722h2.728v-4.143c0-1.006,0.528-1.586,1.432-1.586c0.478,0,0.92,0.239,1.09,0.596
			c0.155,0.292,0.172,0.446,0.172,1.229v3.903h2.726V53.12c0-1.058-0.168-1.584-0.715-2.132c-0.546-0.562-1.279-0.852-2.198-0.852
			c-1.143,0-1.771,0.29-2.506,1.143v-0.972H28.385"/>
	</g>
	<g>
		<path fill="#FFFFFF" d="M43.583,50.496c-0.613-0.307-1.125-0.426-1.807-0.426c-2.506,0-4.329,1.754-4.329,4.158
			c0,2.266,1.857,4.057,4.211,4.057c0.697,0,1.226-0.121,1.925-0.428V55.54c-0.443,0.341-0.888,0.512-1.382,0.512
			c-1.141,0-1.908-0.769-1.908-1.892c0-1.058,0.802-1.841,1.875-1.841c0.494,0,0.885,0.136,1.415,0.493V50.496"/>
	</g>
	<g>
		<path fill-rule="evenodd" clip-rule="evenodd" fill="#FFFFFF" d="M45.84,46.539c-0.852,0-1.534,0.682-1.534,1.534
			c0,0.852,0.683,1.533,1.534,1.533c0.853,0,1.535-0.682,1.535-1.533C47.375,47.22,46.692,46.539,45.84,46.539 M44.478,58.029h2.726
			v-7.722h-2.726V58.029z"/>
	</g>
	<g>
		<rect x="48.38" y="45.535" fill="#FFFFFF" width="2.728" height="12.494"/>
	</g>
	<g>
		<path fill-rule="evenodd" clip-rule="evenodd" fill="#FFFFFF" d="M10.01,36.13c1.736,0,3.139,1.401,3.139,3.171
			c0,1.736-1.402,3.138-3.139,3.138s-3.17-1.434-3.17-3.168C6.84,37.532,8.242,36.13,10.01,36.13 M12.995,32.384v1.34
			c-1.218-1.248-2.528-1.799-4.296-1.799c-3.932,0-6.948,3.172-6.948,7.346c0,4.144,3.047,7.374,6.979,7.374
			c1.856,0,3.2-0.609,4.265-1.981v1.523h4.877V32.384H12.995z"/>
	</g>
	<g>
		<path fill="#FFFFFF" d="M19.346,32.384v13.803h4.875v-5.912c0-2.559,1.128-3.869,3.412-3.869c0.824,0,1.28,0.091,2.072,0.487
			v-4.662c-0.486-0.029-0.608-0.029-0.943-0.029c-2.104,0-3.413,0.697-4.541,2.438v-2.255H19.346"/>
	</g>
	<g>
		<polyline fill="#FFFFFF" points="36.693,36.435 39.465,36.435 39.465,32.384 36.693,32.384 36.693,28.238 31.816,28.238 
			31.816,32.384 30.201,32.384 30.201,36.435 31.816,36.435 31.816,46.187 36.693,46.187 36.693,36.435 		"/>
	</g>
	<g>
		<path fill="#FFFFFF" d="M50.916,32.779c-1.521-0.64-2.772-0.883-4.447-0.883c-3.749,0-6.157,1.918-6.157,4.936
			c0,2.256,1.067,3.292,4.054,3.901c1.705,0.364,2.071,0.578,2.071,1.279c0,0.61-0.64,1.066-1.523,1.066
			c-1.127,0-2.619-0.549-3.9-1.402l-1.766,3.445c1.797,1.065,3.594,1.583,5.515,1.583c3.991,0,6.582-2.041,6.582-5.149
			c0-2.254-1.25-3.564-4.022-4.114c-1.949-0.426-2.195-0.548-2.195-1.187c0-0.55,0.64-0.977,1.493-0.977s1.737,0.213,2.652,0.671
			L50.916,32.779"/>
	</g>
</g>
</svg>
