<?xml version="1.0" encoding="utf-8"?>
<!-- Generator: Adobe Illustrator 16.0.0, SVG Export Plug-In . SVG Version: 6.00 Build 0)  -->
<!DOCTYPE svg PUBLIC "-//W3C//DTD SVG 1.1//EN" "http://www.w3.org/Graphics/SVG/1.1/DTD/svg11.dtd">
<svg version="1.1" id="Layer_1" xmlns="http://www.w3.org/2000/svg" xmlns:xlink="http://www.w3.org/1999/xlink" x="0px" y="0px"
	 width="729.514px" height="160.979px" viewBox="0 -12.021 729.514 160.979" enable-background="new 0 -12.021 729.514 160.979"
	 xml:space="preserve">
<path fill="none" d="M-9.676,183.853c0,0,152.498-144.529,511.727-76.913c359.218,67.605,538.524-84.109,538.524-84.109"/>
<g enable-background="new    ">
	<path fill="#FFEC00" d="M34.944,84.743c-2.649,1.295-4.832,0.405-6.549-2.672c-0.35,1.02-0.293,1.997,0.166,2.937
		c0.712,1.453,1.956,2.592,3.735,3.412c1.778,0.825,3.394,0.882,4.847,0.17c2.563-1.254,3.948-3.942,4.153-8.067
		c0.072-3.529-0.581-6.704-1.96-9.523c-1.546-3.159-3.739-5.475-6.576-6.946c-3.175-1.727-6.3-1.84-9.375-0.335
		c-2.562,1.254-4.37,3.515-5.418,6.78c-0.742,2.164-1.036,4.267-0.884,6.308c0.61,8.174,2.944,16.402,6.998,24.688
		c3.052,6.236,6.475,11.072,10.274,14.507c5.275,4.938,10.517,6.132,15.729,3.581c3.246-1.588,4.991-4.295,5.237-8.122
		c0.283-3.315-0.452-6.767-2.208-10.354c-0.919-1.879-1.97-3.482-3.148-4.812c5.784,0.136,10.264,3.449,13.44,9.941
		c3.22,6.58,4.608,13.205,4.168,19.877c-0.536,7.994-3.925,13.514-10.159,16.564c-8.458,4.139-17.438,2.339-26.941-5.398
		c-7.35-5.933-13.386-13.725-18.11-23.38c-5.35-10.933-8.404-21.934-9.159-32.999C2.097,66.3,6.155,56.743,15.382,52.229
		c5.466-2.675,10.909-2.374,16.324,0.904c4.57,2.847,8.297,7.218,11.181,13.112c1.965,4.016,2.946,8.618,2.944,13.806
		c0.029,6.338-1.835,10.426-5.593,12.266c-2.905,1.421-5.903,1.354-8.994-0.205c-3.092-1.557-5.368-3.83-6.832-6.822
		c-1.254-2.562-1.78-5.585-1.581-9.072c0.162-3.995,1.396-6.56,3.703-7.688c1.794-0.877,3.747-0.563,5.862,0.943
		c2.112,1.507,3.542,3.456,4.288,5.843c0.622,1.92,0.785,3.824,0.494,5.715C36.884,82.92,36.139,84.157,34.944,84.743z"/>
</g>
<g enable-background="new    ">
	<path fill="#FFEC00" d="M115.509,96.524c0.507,5.366,0.449,9.469-0.169,12.312c-1.11,5.309-4.056,9.131-8.84,11.472
		c-7.348,3.596-16.167,0.501-26.461-9.286c-7.891-7.469-13.966-15.561-18.229-24.273c-4.891-9.996-7.864-20.397-8.919-31.211
		c-1.367-14.261,2.051-23.398,10.251-27.411c6.151-3.01,13.994,0.037,23.528,9.134c8.312,7.898,15.08,17.187,20.305,27.863
		c3.303,6.75,5.528,12.49,6.679,17.221C114.184,84.944,114.802,89.671,115.509,96.524z M74.585,77.479
		c9.782,19.778,18.731,27.682,26.848,23.709c3.075-1.504,4.427-5.234,4.053-11.193c-0.218-4.553-1.137-8.814-2.762-12.785
		c-1.625-3.968-3.999-7.412-7.121-10.333c-3.588-3.219-6.62-4.224-9.097-3.012c-5.34,2.719-6.046,8.093-2.117,16.123
		c1.339,2.734,3.181,4.876,5.527,6.428c2.348,1.551,4.226,2.037,5.635,1.452c2.092-0.918,2.726-2.975,1.902-6.174
		c-0.342,0.168-1.068,0.523-2.178,1.066c-1.967,0.962-3.837,0.98-5.615,0.048c-1.779-0.928-3.169-2.419-4.172-4.47
		c-1.045-2.135-1.462-4.446-1.249-6.933s1.28-4.146,3.201-4.982c4.057-1.878,8.009,1.006,11.856,8.652
		c1.798,3.674,2.726,6.979,2.785,9.913c0.138,3.744-1.181,6.35-3.958,7.812c-3.59,1.971-7.243,1.428-10.96-1.625
		c-2.788-2.233-5.164-5.466-7.126-9.695c-2.299-4.91-3.214-9.65-2.749-14.218s2.404-7.688,5.822-9.361
		c2.903-1.42,5.88-1.29,8.929,0.395l3.239,1.751l-1.442-2.947c-1.965-4.015-4.995-7.825-9.09-11.434
		c-5.109-4.382-9.329-5.759-12.661-4.129c-3.417,1.673-4.691,6.534-3.825,14.579C69.09,63.439,71.199,70.56,74.585,77.479z"/>
</g>
<g enable-background="new    ">
	<path fill="#FFEC00" d="M133.559,63.717c-3.055-2.739-5.883-3.473-8.484-2.2c-3.01,1.473-4.712,4.172-5.11,8.095
		c-0.272,3.359,0.427,6.744,2.099,10.16c1.552,3.171,4.14,5.888,7.765,8.145c4.026,2.466,7.545,2.96,10.555,1.487
		c4.147-2.029,5.508-7.383,4.085-16.059c-1.083-6.124-2.995-11.991-5.74-17.602c-4.854-9.921-8.824-17-11.904-21.238
		c-5.242-7.21-11.294-12.161-18.153-14.853c0.812-0.397,2.075-1.115,3.785-2.154c1.708-1.037,3.01-1.775,3.906-2.213
		c7.237-3.542,14.326-6.254,21.266-8.138c0.718,1.263,1.358,3.19,1.925,5.786c0.563,2.597,1.126,4.465,1.683,5.603
		c7.401,15.125,14.636,26,21.706,32.619c0.828-2.016-1.868-11.333-8.081-27.947c-1.859-5.037-3.267-8.531-4.222-10.482
		c-1.075-2.196-3.699-5.498-7.872-9.907c1.019-0.801,3.927-2.375,8.726-4.723c6.505-3.183,10.648-4.704,12.429-4.569
		c0.2,4.942,2.39,11.682,6.568,20.22c4.178,8.539,10.466,18.917,18.863,31.136c9.276,13.604,16.789,22.778,22.539,27.523
		c-1.713,1.24-3.665,2.398-5.86,3.472c-2.36,1.155-4.502,1.977-6.429,2.466c-1.929,0.49-2.888,0.432-2.884-0.177
		c0.241-4.45-1.787-11.068-6.084-19.851c-1.75-3.578-5.023-9.131-9.817-16.665c-5.795-8.957-9.937-14.437-12.43-16.443
		c2.715,13.789,6.74,26.132,12.071,37.029c0.756,1.546,2.184,3.897,4.282,7.052c2.098,3.157,3.506,5.465,4.222,6.929
		c1.632,3.336,0.862,5.778-2.31,7.33l-4.329,1.966c-2.44,1.194-4.352,2.129-5.733,2.806c-3.701,1.912-6.342,3.004-7.923,3.271
		c0.878-3.351,0.668-7.078-0.632-11.18c-0.555-1.543-2.163-5.038-4.83-10.487c-1.433-2.928-4.566-8.096-9.401-15.507
		c-5.637-8.43-9.522-13.483-11.652-15.162c0.199,0.408,2.3,5.628,6.303,15.662c4.004,10.037,6.084,15.217,6.244,15.541
		c2.905,5.938,4.084,12.363,3.54,19.283c-0.717,8.011-3.801,13.35-9.248,16.015c-4.717,2.308-9.153,2.411-13.303,0.312
		c-2.177-1.152-5.493-4.016-9.947-8.589c-4.095-4.245-7.425-10.022-9.993-17.334c-1.345-3.776-1.397-8.108-0.162-12.999
		c1.236-4.887,3.521-8.148,6.855-9.78c3.983-1.949,7.886-1.288,11.705,1.984c2.895,2.416,5.314,5.817,7.261,10.206
		c1.271,2.805,1.548,5.997,0.829,9.571c-0.72,3.58-2.38,6.003-4.981,7.275c-2.034,0.996-4.44,0.715-7.22-0.851
		c-2.781-1.562-4.727-3.481-5.842-5.76c-1.591-3.251-2.315-6.274-2.169-9.068c0.149-3.195,1.402-5.371,3.761-6.526
		c1.464-0.716,3.223-0.467,5.277,0.744c2.054,1.213,3.659,2.896,4.815,5.052c2.47,4.637,1.672,7.95-2.394,9.939
		c-1.951,0.955-3.949,0.069-5.989-2.662c2.143,4.998,4.637,6.802,7.484,5.408c2.032-0.994,3.313-2.754,3.841-5.28
		c0.527-2.525,0.275-5.049-0.755-7.569C137.147,67.758,135.646,65.719,133.559,63.717z"/>
</g>
<g enable-background="new    ">
	<path fill="#FFEC00" d="M247.237,46.382c0.7,0.864,1.308,1.817,1.82,2.863c0.329,0.672,3.556,8.404,9.682,23.195
		c0.473,1.158,0.502,1.978,0.09,2.457c-14.284,7.728-25.628,13.419-34.032,17.069l-2.634,1.15
		c-1.918-19.443-6.24-36.042-12.971-49.796c-3.511-7.176-6.835-12.359-9.971-15.549c-2.877-3.04-7.836-6.451-14.874-10.233
		c12.83-7.48,24.312-14.026,34.446-19.633c0.805,1.459,2.419,4.19,4.842,8.191c2.09,3.518,3.649,6.323,4.673,8.415l0.494,1.01
		c-0.933,0.365-2.253,0.223-3.96-0.425c-2.338-0.802-4.14-1.262-5.403-1.387c-2.493-0.17-5.122,0.422-7.887,1.774l-2.242,1.098
		c0.419,3.129,1.709,6.9,3.866,11.31c2.159,4.412,4.028,7.479,5.615,9.204c0.669,0.044,1.302-0.081,1.901-0.374
		c2.691-1.317,4.662-3.439,5.916-6.37c1.746-4.002,2.92-6.339,3.522-7.004c0.986,2.206,2.32,4.934,4.005,8.186
		c2.305,4.523,3.678,7.232,4.117,8.13c0.037,0.075,0.6,1.513,1.692,4.314c-5.188-1.259-9.478-1.061-12.866,0.597
		c-3.086,1.51-3.825,3.911-2.215,7.2c2.889,5.905,5.015,9.774,6.379,11.609c3.499,4.68,6.979,6.172,10.438,4.48
		C246.338,65.583,248.191,58.424,247.237,46.382z"/>
</g>
<g enable-background="new    ">
	<path fill="#FFEC00" d="M328.344,66.726c-2.021,4.716-7.01,9.018-14.969,12.914c-2.375,1.161-5.669,2.209-9.883,3.146
		c-1.986,0.364-4.945,0.947-8.881,1.746c0.317-5.008-0.787-10.361-3.314-16.059c-9.836-22.397-15.558-35.242-17.165-38.528
		c-2.259-4.614-3.99-7.624-5.196-9.028c-1.62-1.891-3.245-2.918-4.879-3.073c-0.729-0.074-1.826,0.16-3.291,0.702
		c-0.941,0.375-1.583,0.213-1.926-0.487l-0.41-0.839c5.32-4.334,9.621-7.304,12.904-8.91c5.585-2.733,11.369-4.089,17.349-4.07
		c7.302,0.067,12.445,2.534,15.432,7.397c1.578,2.521,2.727,4.776,3.44,6.765c1.123,3.004,1.588,5.898,1.392,8.68
		c-0.238,3.584-1.359,6.863-3.365,9.836c3.833-1.01,7.655-0.802,11.47,0.626c4.229,1.571,7.696,5.118,10.399,10.641
		C330.562,54.547,330.861,60.728,328.344,66.726z M282.254,17.893l-0.733,0.359c0.687,1.404,1.622,3.405,2.806,6
		c1.184,2.597,2.085,4.525,2.702,5.788c1.064,2.176,1.854,3.704,2.371,4.581c1.583,2.706,2.933,3.784,4.051,3.237
		c1.186-0.581,1.684-2.303,1.495-5.168c-0.152-3.315-1.224-7.011-3.216-11.082c-0.824-1.684-2.296-2.877-4.413-3.58
		C285.197,17.322,283.511,17.278,282.254,17.893z M298.313,48.327c-0.489,0.239-1.241,0.825-2.257,1.753l3.23,6.338
		c1.811,3.527,4.567,8.366,8.271,14.515c1.53-0.229,2.916-1.642,4.155-4.241c1.699-3.426,1.574-7.302-0.369-11.631
		c-1.127-2.478-2.865-4.439-5.216-5.885C303.361,47.415,300.756,47.132,298.313,48.327z"/>
</g>
<g enable-background="new    ">
	<path fill="#FFEC00" d="M396.622,58.585c0.894,1.295-1.386,3.448-6.835,6.459c-1.014,0.581-4.557,2.359-10.631,5.332
		c-2.793,1.366-4.796,1.872-6.01,1.513c1.339-2.038,2.004-4.615,1.996-7.727c-0.01-3.11-0.576-5.819-1.703-8.124
		c-1.846-3.77-4.375-4.869-7.585-3.298c0.278-0.136-0.63,0.483-2.728,1.854c-0.013,1.392,0.479,4.958,1.472,10.702
		c0.896,4.841,1.056,8.614,0.477,11.319c-0.765,3.921-3.065,6.823-6.905,8.701c-4.33,2.119-9.082,0.981-14.259-3.407
		c-4.178-3.407-7.478-7.59-9.904-12.549c-1.775-3.629-2.349-7.719-1.719-12.268c0.669-5.173,2.785-8.632,6.347-10.374
		c2.514-1.23,5.271-0.806,8.279,1.271c2.593,1.761,4.521,3.932,5.784,6.515c1.094,2.235,1.591,5.108,1.49,8.616
		c-0.105,4.206-1.205,6.821-3.3,7.846c-2.165,1.06-4.318,0.903-6.462-0.473c-1.938-1.129-3.451-2.809-4.546-5.045
		c-0.819-1.675-1.22-3.729-1.198-6.163c-0.011-2.85,0.752-4.651,2.288-5.403c1.396-0.683,2.992-0.338,4.789,1.031
		c1.449,1.196,2.567,2.597,3.354,4.202c1.913,3.91,0.778,6.543-3.405,7.896c1.56,0.536,2.827,0.564,3.806,0.086
		c1.467-0.718,2.053-2.346,1.763-4.888c-0.192-1.808-0.732-3.62-1.622-5.437c-2.493-5.096-5.521-6.773-9.082-5.031
		c-2.444,1.196-3.697,3.584-3.764,7.163c-0.061,2.886,0.543,5.62,1.807,8.201c1.333,2.724,2.984,4.687,4.956,5.885
		c2.384,1.516,4.869,1.641,7.453,0.376c5.166-2.527,6.12-10.307,2.859-23.337c-2.187-8.534-5.397-17.132-9.634-25.789
		c-5.124-10.473-11.76-15.188-19.902-14.146c1.16-1.518,4.238-3.717,9.234-6.595c4.263-2.431,7.789-4.243,10.58-5.438l5.914-2.504
		c2.552,6.454,4.307,10.659,5.263,12.613c3.349,6.843,9.526,16.021,18.536,27.535C383.879,48.551,391.462,56.177,396.622,58.585z
		 M363.348,40.987c-0.751-1.534-2.297-3.721-4.637-6.558c-2.647-3.29-4.563-4.991-5.744-5.107c0.718,1.467,1.584,3.769,2.6,6.905
		c1.017,3.138,1.9,5.476,2.652,7.011c0.443,0.907,0.874,1.434,1.289,1.575c0.416,0.145,1.706-0.315,3.871-1.375
		C364.008,43.13,363.997,42.314,363.348,40.987z"/>
</g>
<g enable-background="new    ">
	<path fill="#FFEC00" d="M409.743,35.163c-2.13,1.042-3.884,0.326-5.266-2.149c-0.28,0.82-0.235,1.607,0.134,2.362
		c0.572,1.169,1.573,2.084,3.003,2.744c1.431,0.664,2.729,0.709,3.898,0.137c2.061-1.008,3.174-3.17,3.339-6.487
		c0.058-2.837-0.467-5.39-1.576-7.657c-1.243-2.54-3.007-4.403-5.287-5.585c-2.554-1.389-5.066-1.48-7.539-0.271
		c-2.061,1.008-3.514,2.827-4.355,5.452c-0.597,1.741-0.834,3.431-0.711,5.073c0.49,6.572,2.367,13.189,5.627,19.851
		c2.453,5.014,5.206,8.902,8.262,11.664c4.241,3.971,8.456,4.93,12.646,2.879c2.609-1.277,4.014-3.452,4.211-6.53
		c0.228-2.666-0.364-5.442-1.775-8.327c-0.739-1.51-1.584-2.799-2.531-3.869c4.65,0.108,8.253,2.774,10.807,7.993
		c2.588,5.29,3.705,10.619,3.352,15.983c-0.432,6.426-3.155,10.866-8.169,13.319c-6.8,3.328-14.021,1.881-21.663-4.341
		c-5.909-4.771-10.763-11.036-14.561-18.798c-4.303-8.792-6.759-17.638-7.365-26.535c-0.891-11.737,2.373-19.422,9.791-23.052
		c4.396-2.15,8.771-1.908,13.127,0.728c3.674,2.289,6.67,5.803,8.989,10.542c1.58,3.23,2.369,6.93,2.367,11.102
		c0.023,5.097-1.475,8.384-4.497,9.863c-2.336,1.143-4.746,1.089-7.231-0.165c-2.486-1.252-4.316-3.081-5.493-5.486
		c-1.008-2.061-1.432-4.491-1.271-7.295c0.131-3.212,1.123-5.273,2.978-6.181c1.442-0.706,3.013-0.454,4.713,0.759
		c1.698,1.212,2.849,2.777,3.448,4.697c0.5,1.543,0.631,3.075,0.396,4.594C411.303,33.697,410.704,34.692,409.743,35.163z"/>
</g>
<g enable-background="new    ">
	<path fill="#FFEC00" d="M490.057,58.38c0.592,1.208,0.642,2.68,0.152,4.415c-0.49,1.737-1.371,2.916-2.642,3.538
		c-1.271,0.622-2.709,0.341-4.312-0.845c-1.384-1.055-2.401-2.25-3.055-3.585c-1.461-2.987-2.119-5.698-1.971-8.134
		c0.153-3.068,1.595-5.27,4.328-6.607c2.923-1.43,5.785-1.216,8.586,0.643c2.328,1.539,4.271,3.898,5.825,7.075
		c2.363,4.831,3.46,9.649,3.293,14.458c-0.209,5.851-2.569,9.882-7.081,12.089c-5.594,2.738-11.135,1.393-16.625-4.033
		c-3.609-3.511-7-8.51-10.172-14.992c-2.861-5.847-6.36-9.135-10.5-9.868c0.02,1.331,0.367,3.407,1.039,6.228
		c0.672,2.822,1.318,4.869,1.94,6.139c3.204,6.547,6.941,11.373,11.22,14.478c2.17,1.381,4.343,2.76,6.515,4.139l-2.574,1.26
		c-2.097,1.025-5.079,2.82-8.945,5.381c-3.868,2.561-6.817,4.34-8.852,5.334l-2.002,0.98l-0.751-0.813
		c2.166-5.55,0.717-13.505-4.353-23.865c-5.473-11.185-9.443-18.733-11.909-22.648c-6.679-10.752-12.411-15.785-17.194-15.098
		l-0.094-0.191c3.659-2.341,7.303-4.713,10.931-7.121c4.264-2.715,8.047-4.883,11.353-6.5c0.95-0.149,1.488-0.098,1.612,0.156
		c-0.248-0.508-0.329,1.342-0.237,5.551c0.09,4.21,0.866,7.808,2.328,10.795c0.652,1.334,1.714,2.941,3.186,4.821
		c2.065,2.613,3.271,4.189,3.614,4.73c-0.178-1.488-0.107-5.775,0.205-12.861c0.272-5.881,0.005-9.65-0.805-11.303
		c-0.746-1.525-2.065-2.611-3.958-3.262c0.798-0.94,3.631-2.799,8.496-5.576c3.147-1.776,6.327-3.568,9.539-5.377
		c-0.051,2.153-0.672,5.51-1.866,10.071c-1.194,4.563-1.788,8.22-1.779,10.974c0.008,2.754,0,5.553-0.025,8.4
		c0.099,3.261,0.359,6.128,0.781,8.598c5.426,1.914,10.223,7.128,14.39,15.645c1.306,2.669,2.916,4.994,4.829,6.971
		c2.602,2.744,4.89,3.555,6.861,2.432c5.15-2.835,6.156-7.462,3.015-13.882c-2.55-5.21-5.51-6.993-8.878-5.345
		c-1.525,0.746-1.682,2.358-0.469,4.838c1.528-1.062,2.915-1.368,4.161-0.914C488.453,56.151,489.404,57.045,490.057,58.38z"/>
</g>
<g enable-background="new    ">
	<path fill="#FFEC00" d="M552.779,105.784c-1.077,0.526-2.796,1.033-5.156,1.521s-4.08,0.995-5.156,1.521
		c-1.36,0.666-2.484,1.742-3.371,3.23c-2.74-6.316-6.33-13.797-10.771-22.442c6.642,8.552,12.039,12.761,16.188,12.626
		c0.338-0.023,0.988-0.271,1.953-0.744c1.784-0.803,3.073-2.188,3.867-4.158c0.791-1.967,0.689-3.973-0.309-6.014
		c-1.414-2.891-4.528-5.089-9.34-6.598c-4.056-1.107-8.109-2.213-12.163-3.322c-5.599-1.965-9.882-5.982-12.849-12.047
		c-2.107-4.307-2.537-8.698-1.285-13.176c1.311-4.785,4.178-8.26,8.599-10.424c2.89-1.414,6.206-1.49,9.949-0.231
		c3.742,1.262,6.32,3.335,7.735,6.225c1.275,2.608,1.775,5.137,1.5,7.589c-0.336,3.047-1.836,5.22-4.5,6.523
		c-1.814,0.888-3.73,0.702-5.752-0.558c-1.656-1.086-2.955-2.593-3.897-4.52c-0.693-1.417-0.979-2.788-0.854-4.114
		c0.126-1.605,0.841-2.729,2.146-3.368c2.775-1.358,4.981-0.155,6.614,3.613c0.856,2.04,0.209,3.586-1.944,4.64
		c-0.681,0.333-1.416,0.552-2.207,0.657l0.038,0.509c0.388,0.794,1.132,1.237,2.231,1.331s1.92-0.096,2.46-0.571
		c2.218-2.068,2.4-5.002,0.542-8.8c-0.971-1.983-2.42-3.47-4.344-4.46c-1.925-0.99-3.851-1.013-5.777-0.071
		c-2.268,1.109-3.851,3.186-4.752,6.224c-0.9,3.04-0.823,5.637,0.23,7.79c1.497,3.061,3.653,5.097,6.466,6.109
		c1.884,0.695,4.604,1.013,8.161,0.958c4.318-0.074,7.139,0.02,8.463,0.285c2.142,0.358,4.392,1.365,6.747,3.021
		c2.807,1.86,4.818,4.106,6.038,6.741c3.27,6.971,3.528,13.025,0.775,18.165C557.478,102.393,555.386,104.508,552.779,105.784z"/>
</g>
<g enable-background="new    ">
	<path fill="#FFEC00" d="M598.411,94.668c0.336,3.561,0.298,6.283-0.112,8.168c-0.737,3.522-2.691,6.06-5.864,7.612
		c-4.875,2.386-10.727,0.332-17.557-6.162c-5.234-4.954-9.266-10.323-12.095-16.104c-3.244-6.631-5.218-13.533-5.918-20.707
		c-0.907-9.461,1.36-15.523,6.802-18.186c4.081-1.997,9.285,0.024,15.61,6.06c5.515,5.241,10.005,11.402,13.472,18.487
		c2.19,4.476,3.667,8.286,4.431,11.424C597.531,86.986,597.941,90.123,598.411,94.668z M571.26,82.033
		c6.49,13.122,12.428,18.366,17.812,15.731c2.041-0.999,2.937-3.475,2.688-7.428c-0.144-3.02-0.753-5.848-1.832-8.481
		c-1.077-2.634-2.653-4.919-4.725-6.856c-2.38-2.136-4.393-2.803-6.035-1.999c-3.543,1.805-4.011,5.371-1.404,10.698
		c0.888,1.814,2.11,3.235,3.668,4.264c1.557,1.029,2.803,1.352,3.737,0.964c1.388-0.608,1.809-1.973,1.263-4.096
		c-0.227,0.11-0.709,0.347-1.445,0.707c-1.305,0.638-2.545,0.649-3.725,0.032c-1.181-0.615-2.104-1.605-2.769-2.967
		c-0.693-1.416-0.97-2.949-0.828-4.598c0.141-1.65,0.849-2.752,2.124-3.305c2.691-1.247,5.312,0.667,7.865,5.739
		c1.193,2.438,1.809,4.631,1.849,6.578c0.091,2.483-0.784,4.211-2.626,5.184c-2.382,1.307-4.806,0.945-7.271-1.079
		c-1.851-1.483-3.427-3.628-4.729-6.432c-1.524-3.259-2.131-6.402-1.824-9.435c0.309-3.03,1.596-5.101,3.863-6.21
		c1.926-0.942,3.901-0.856,5.924,0.263l2.148,1.161l-0.956-1.956c-1.304-2.663-3.314-5.191-6.03-7.586
		c-3.391-2.906-6.19-3.82-8.4-2.739c-2.268,1.11-3.113,4.334-2.538,9.672C567.614,72.718,569.014,77.442,571.26,82.033z"/>
</g>
<g enable-background="new    ">
	<path fill="#FFEC00" d="M638.027,100.68c0.307,3.252,0.271,5.736-0.103,7.459c-0.673,3.217-2.458,5.532-5.355,6.949
		c-4.451,2.179-9.793,0.305-16.028-5.625c-4.78-4.523-8.461-9.426-11.044-14.703c-2.963-6.056-4.764-12.357-5.402-18.907
		c-0.828-8.639,1.241-14.174,6.21-16.604c3.726-1.823,8.478,0.021,14.252,5.533c5.036,4.785,9.135,10.411,12.3,16.879
		c2.001,4.088,3.349,7.565,4.047,10.432C637.225,93.667,637.598,96.53,638.027,100.68z M613.236,89.145
		c5.927,11.98,11.348,16.768,16.265,14.361c1.862-0.91,2.681-3.172,2.454-6.78c-0.132-2.757-0.689-5.339-1.673-7.745
		c-0.984-2.404-2.423-4.49-4.313-6.259c-2.174-1.95-4.012-2.56-5.512-1.825c-3.234,1.648-3.661,4.904-1.281,9.767
		c0.811,1.657,1.926,2.954,3.348,3.894s2.56,1.234,3.413,0.88c1.268-0.555,1.651-1.802,1.153-3.739
		c-0.208,0.102-0.648,0.316-1.32,0.646c-1.19,0.582-2.323,0.594-3.4,0.028c-1.079-0.563-1.92-1.466-2.528-2.708
		c-0.633-1.293-0.885-2.693-0.756-4.199s0.775-2.51,1.939-3.018c2.456-1.138,4.851,0.609,7.182,5.24
		c1.089,2.227,1.651,4.229,1.688,6.006c0.083,2.268-0.716,3.846-2.397,4.733c-2.176,1.192-4.388,0.864-6.64-0.985
		c-1.688-1.354-3.128-3.312-4.317-5.873c-1.392-2.975-1.945-5.844-1.664-8.613c0.281-2.768,1.456-4.657,3.527-5.67
		c1.758-0.861,3.562-0.781,5.408,0.24l1.962,1.06l-0.874-1.785c-1.19-2.433-3.025-4.741-5.506-6.927
		c-3.096-2.654-5.652-3.488-7.67-2.501c-2.07,1.013-2.842,3.958-2.316,8.831C609.908,80.639,611.186,84.954,613.236,89.145z"/>
</g>
<g enable-background="new    ">
	<path fill="#FFEC00" d="M689.868,103.454c-0.468,2.216-2.005,3.96-4.607,5.234c-1.002,0.49-2.701,1.074-5.101,1.75
		c-7.013-7.986-15.903-16.328-26.673-25.022c-0.97-0.331-1.479-0.486-1.529-0.462c1.12,3.051,2.294,5.83,3.519,8.332
		c5.242,10.715,11.829,17.518,19.757,20.401c-4.987,2.874-8.381,4.752-10.184,5.634c-2.754,1.348-4.954,2.177-6.603,2.486
		c0.751-9.117-1.115-18.258-5.599-27.422c-2.376-4.855-5.476-9.67-9.3-14.439c-1.283-1.607-2.854-3.041-4.713-4.305
		c-2.926-1.918-5.611-2.589-8.06-2.013c0.833-1.214,3.453-2.9,7.859-5.056l3.681-1.801c1.301-0.637,2.676-1.124,4.125-1.46
		c4.672,4.727,9.324,9.417,13.96,14.068c4.634,4.652,8.617,7.529,11.948,8.629c-1.567-3.203-3.174-6.42-4.815-9.651
		c-2.159-4.157-4.387-7.443-6.685-9.856c-3.039-3.168-6.449-5.253-10.23-6.258c2.536-2.047,6.97-4.402,13.299-7.066
		c2.308,10.042,5.482,19.194,9.525,27.457C678.367,92.697,683.843,99.639,689.868,103.454z"/>
</g>
<g enable-background="new    ">
	<path fill="#FFEC00" d="M715.068,106.268c0.37,0.377,0.604,0.729,0.701,1.053c0.071,0.4-0.055,0.586-0.379,0.557
		c-2.167-0.116-3.99,0.154-5.466,0.814c-3.129,1.344-4.98,2.189-5.558,2.532c0.505-3.536-0.185-7.542-2.065-12.022
		c-1.788-3.779-3.587-7.521-5.4-11.229c-1.868-3.181-3.735-6.363-5.603-9.547c-2.41-3.784-5.082-6.2-8.016-7.248
		c1.311-1.51,3.23-3.225,5.767-5.149c2.183-1.626,3.85-2.721,5.001-3.285l4.357-2.131c0.1-0.049,0.499-0.182,1.199-0.401
		c0.699-0.218,1.2-0.401,1.501-0.548c0.274-0.072,0.422,0.291,0.439,1.088c-1.223,11.708,1.729,24.909,8.859,39.604
		C711.633,102.86,713.186,104.831,715.068,106.268z M719.971,114.574c-1.356,1.159-2.243,2.711-2.658,4.651
		c-0.162,1.57-0.34,3.176-0.526,4.82c-2.696-2.717-5.842-3.691-9.437-2.924c1.084-1.461,1.871-3.086,2.36-4.877
		c0.54-2.064,0.506-3.786-0.105-5.164c0.549-0.143,1.221,0.088,2.014,0.691c1.313,0.91,2.168,1.453,2.566,1.631
		C716.443,114.469,718.372,114.86,719.971,114.574z M715.22,119.133c0.503-0.619,0.56-1.33,0.167-2.131
		c-0.317-0.648-0.819-1.135-1.501-1.452c-0.685-0.317-1.227-0.252-1.629,0.191c-0.654,0.693-0.76,1.489-0.319,2.392
		c0.71,1.451,1.641,1.896,2.793,1.332C714.93,119.368,715.094,119.256,715.22,119.133z"/>
</g>
</svg>
