<?xml version="1.0" encoding="utf-8"?>
<!-- Generator: Adobe Illustrator 16.0.0, SVG Export Plug-In . SVG Version: 6.00 Build 0)  -->
<!DOCTYPE svg PUBLIC "-//W3C//DTD SVG 1.1//EN" "http://www.w3.org/Graphics/SVG/1.1/DTD/svg11.dtd">
<svg version="1.1" id="Layer_1" xmlns="http://www.w3.org/2000/svg" xmlns:xlink="http://www.w3.org/1999/xlink" x="0px" y="0px"
	 width="131.105px" height="62.982px" viewBox="0 0 131.105 62.982" enable-background="new 0 0 131.105 62.982"
	 xml:space="preserve">
<g>
	<polyline fill="#FFFFFF" points="18.91,30.5 14.745,28.068 14.745,23.209 18.91,20.78 23.074,23.209 23.074,28.068 18.91,30.5 	"/>
	<polyline fill="#FFFFFF" points="18.91,40.216 14.745,37.789 14.745,32.929 18.91,30.5 23.074,32.929 23.074,37.789 18.91,40.216 	
		"/>
	<polyline fill="#FFFFFF" points="10.579,15.921 6.414,13.492 6.414,8.632 10.579,6.202 14.745,8.632 14.745,13.492 10.579,15.921 	
		"/>
	<polyline fill="#FFFFFF" points="10.579,25.641 6.414,23.209 6.414,18.35 10.579,15.921 14.745,18.35 14.745,23.209 10.579,25.641 
			"/>
	<polyline fill="#FFFFFF" points="10.579,35.359 6.414,32.929 6.414,28.068 10.579,25.641 14.745,28.068 14.745,32.929 
		10.579,35.359 	"/>
	<polyline fill="#FFFFFF" points="2.248,20.78 2.248,11.062 6.414,13.492 6.414,18.35 2.248,20.78 	"/>
	<polyline fill="#FFFFFF" points="2.248,30.5 2.248,20.78 6.414,23.209 6.414,28.068 2.248,30.5 	"/>
	<polyline fill="#FFFFFF" points="18.91,11.062 14.745,8.632 14.745,3.772 18.91,1.344 23.074,3.772 23.074,8.632 18.91,11.062 	"/>
	<polyline fill="#FFFFFF" points="18.91,20.78 14.745,18.35 14.745,13.492 18.91,11.062 23.074,13.492 23.074,18.35 18.91,20.78 	
		"/>
	<polyline fill="#FFFFFF" points="27.239,15.921 23.074,13.492 23.074,8.632 27.239,6.202 31.405,8.632 31.405,13.492 
		27.239,15.921 	"/>
	<polyline fill="#FFFFFF" points="27.239,25.641 23.074,23.209 23.074,18.35 27.239,15.921 31.405,18.35 31.405,23.209 
		27.239,25.641 	"/>
	<polyline fill="#FFFFFF" points="27.239,35.359 23.074,32.929 23.074,28.068 27.239,25.641 31.405,28.068 31.405,32.929 
		27.239,35.359 	"/>
	<polyline fill="#FFFFFF" points="35.57,20.78 31.405,18.35 31.405,13.492 35.57,11.062 35.57,20.78 	"/>
	<polyline fill="#FFFFFF" points="35.57,30.5 31.405,28.068 31.405,23.209 35.57,20.78 35.57,30.5 	"/>
	<path fill="#FFFFFF" d="M45.41,44.578c1.046,0,1.643-0.693,1.643-1.93c0-1.234-0.597-1.938-1.663-1.938h-0.906v3.867H45.41
		 M43.901,40.212h1.571c0.541,0,0.97,0.119,1.292,0.365c0.611,0.463,0.941,1.18,0.941,2.07c0,1.475-0.898,2.438-2.316,2.438h-1.488
		V40.212z"/>
	<path fill="#FFFFFF" d="M50.745,42.929c-0.027-0.701-0.398-1.104-0.982-1.104c-0.59,0-0.962,0.389-1.054,1.104H50.745
		 M49.735,45.183c-0.969,0-1.615-0.73-1.615-1.902c0-1.152,0.666-1.904,1.615-1.904c0.969,0,1.593,0.703,1.593,1.867
		c0,0.031,0,0.051,0,0.08h-2.626c0,0.006,0,0.012,0,0.02c0,0.877,0.423,1.385,1.074,1.385c0.45,0,0.808-0.254,0.991-0.703
		l0.513,0.092C51.026,44.81,50.486,45.183,49.735,45.183z"/>
	<path fill="#FFFFFF" d="M53.42,44.691c0.583,0,0.961-0.512,0.961-1.424c0-0.9-0.371-1.412-0.939-1.412
		c-0.506,0-0.941,0.449-0.941,1.107v0.605C52.5,44.277,52.886,44.691,53.42,44.691 M51.973,41.476h0.492v0.701
		c0.246-0.525,0.632-0.801,1.109-0.801c0.786,0,1.39,0.725,1.39,1.875c0,1.18-0.624,1.902-1.425,1.902
		c-0.421,0-0.794-0.225-1.039-0.646v1.826h-0.527V41.476z"/>
	<path fill="#FFFFFF" d="M57.435,43.244c-0.97,0-1.466,0.289-1.466,0.824c0,0.393,0.28,0.65,0.75,0.65
		c0.633,0,1.138-0.568,1.138-1.27v-0.189C57.71,43.244,57.57,43.244,57.435,43.244 M57.857,44.404
		c-0.247,0.484-0.694,0.764-1.243,0.764c-0.736,0-1.234-0.463-1.234-1.094c0-0.814,0.729-1.236,2.168-1.236
		c0.1,0,0.205,0,0.31,0.008v-0.225c0-0.541-0.287-0.809-0.897-0.809c-0.549,0-0.864,0.197-0.964,0.627l-0.511-0.078
		c0.147-0.646,0.674-0.984,1.564-0.984c0.941,0,1.334,0.449,1.334,1.426v1.545c0,0.273,0.021,0.514,0.098,0.738H57.94
		C57.885,44.88,57.857,44.65,57.857,44.404z"/>
	<path fill="#FFFFFF" d="M59.225,41.476h0.513v0.807c0.218-0.609,0.556-0.912,1.054-0.912c0.062,0,0.126,0.006,0.195,0.014v0.541
		c-0.033,0-0.062,0-0.09,0c-0.688,0-1.131,0.514-1.131,1.35v1.811h-0.541V41.476"/>
	<path fill="#FFFFFF" d="M61.479,41.869h-0.631v-0.393h0.631v-0.855l0.541-0.059v0.914h0.856v0.393H62.02v1.891
		c0,0.672,0.062,0.959,0.61,0.959c0.113,0,0.239-0.006,0.371-0.041v0.449c-0.146,0.035-0.301,0.057-0.448,0.057
		c-0.428,0-0.723-0.127-0.926-0.428c-0.148-0.211-0.148-0.547-0.148-1.012V41.869"/>
	<path fill="#FFFFFF" d="M67.16,41.4c0.708,0,1.102,0.484,1.102,1.402v2.283h-0.52v-2.332c0-0.59-0.259-0.906-0.675-0.906
		c-0.518,0-0.969,0.506-0.969,1.244v1.994H65.58v-2.332c0-0.584-0.261-0.906-0.674-0.906c-0.521,0-0.97,0.506-0.97,1.244v1.994
		h-0.525v-3.609h0.49v0.668c0.281-0.5,0.641-0.744,1.089-0.744c0.521,0,0.898,0.279,1.038,0.777
		C66.33,41.652,66.697,41.4,67.16,41.4"/>
	<path fill="#FFFFFF" d="M71.498,42.929c-0.028-0.701-0.4-1.104-0.983-1.104c-0.589,0-0.961,0.389-1.053,1.104H71.498
		 M70.487,45.183c-0.969,0-1.615-0.73-1.615-1.902c0-1.152,0.667-1.904,1.615-1.904c0.968,0,1.594,0.703,1.594,1.867
		c0,0.031,0,0.051,0,0.08h-2.625c0,0.006,0,0.012,0,0.02c0,0.877,0.421,1.385,1.072,1.385c0.449,0,0.809-0.254,0.99-0.703
		l0.513,0.092C71.778,44.81,71.237,45.183,70.487,45.183z"/>
	<path fill="#FFFFFF" d="M72.726,41.476h0.491v0.668c0.295-0.52,0.668-0.768,1.166-0.768c0.765,0,1.172,0.486,1.172,1.426v2.283
		h-0.52v-2.332c0-0.596-0.274-0.928-0.744-0.928c-0.575,0-1.039,0.514-1.039,1.266v1.994h-0.526V41.476"/>
	<path fill="#FFFFFF" d="M76.586,41.869h-0.631v-0.393h0.631v-0.855l0.541-0.059v0.914h0.857v0.393h-0.857v1.891
		c0,0.672,0.064,0.959,0.611,0.959c0.111,0,0.238-0.006,0.371-0.041v0.449c-0.146,0.035-0.302,0.057-0.448,0.057
		c-0.429,0-0.723-0.127-0.928-0.428c-0.147-0.211-0.147-0.547-0.147-1.012V41.869"/>
	<path fill="#FFFFFF" d="M82.948,43.281c0-0.92-0.415-1.455-1.039-1.455c-0.625,0-1.033,0.527-1.033,1.455
		c0,0.92,0.415,1.451,1.033,1.451S82.948,44.193,82.948,43.281 M80.293,43.281c0-1.166,0.661-1.904,1.615-1.904
		c0.962,0,1.629,0.738,1.629,1.904c0,1.158-0.667,1.902-1.629,1.902C80.955,45.183,80.293,44.439,80.293,43.281z"/>
	<path fill="#FFFFFF" d="M84.359,41.869h-0.64v-0.393h0.64c0-0.008,0-0.02,0-0.027c0-0.877,0.344-1.307,1.074-1.307
		c0.183,0,0.357,0.014,0.532,0.049v0.449c-0.188-0.035-0.336-0.049-0.436-0.049c-0.44,0-0.645,0.238-0.645,0.752
		c0,0.041,0.007,0.09,0.007,0.133h0.862v0.393h-0.862v3.217h-0.533V41.869"/>
	<path fill="#FFFFFF" d="M89.883,40.613c-0.807,0-1.354,0.738-1.354,2.027c0,1.293,0.54,2.029,1.354,2.029
		c0.625,0,1.047-0.406,1.236-1.199l0.541,0.119c-0.232,1.039-0.85,1.586-1.777,1.586c-1.223,0-2-0.947-2-2.535
		c0-0.82,0.225-1.473,0.666-1.951c0.344-0.371,0.815-0.574,1.334-0.574c0.928,0,1.531,0.533,1.762,1.564l-0.554,0.113
		C90.937,41.027,90.501,40.613,89.883,40.613"/>
	<path fill="#FFFFFF" d="M95.057,45.085h-0.49v-0.668c-0.295,0.521-0.667,0.766-1.166,0.766c-0.766,0-1.173-0.484-1.173-1.424
		v-2.283h0.521v2.33c0,0.605,0.273,0.926,0.744,0.926c0.574,0,1.046-0.512,1.046-1.262v-1.994h0.519V45.085"/>
	<rect x="95.977" y="40.212" fill="#FFFFFF" width="0.534" height="4.873"/>
	<path fill="#FFFFFF" d="M97.592,41.869h-0.634v-0.393h0.634v-0.855l0.54-0.059v0.914h0.856v0.393h-0.856v1.891
		c0,0.672,0.062,0.959,0.612,0.959c0.111,0,0.237-0.006,0.37-0.041v0.449c-0.146,0.035-0.301,0.057-0.448,0.057
		c-0.429,0-0.724-0.127-0.927-0.428c-0.147-0.211-0.147-0.547-0.147-1.012V41.869"/>
	<path fill="#FFFFFF" d="M102.324,45.085h-0.491v-0.668c-0.295,0.521-0.668,0.766-1.166,0.766c-0.765,0-1.172-0.484-1.172-1.424
		v-2.283h0.519v2.33c0,0.605,0.275,0.926,0.745,0.926c0.576,0,1.047-0.512,1.047-1.262v-1.994h0.519V45.085"/>
	<path fill="#FFFFFF" d="M103.221,41.476h0.514v0.807c0.217-0.609,0.554-0.912,1.053-0.912c0.062,0,0.127,0.006,0.196,0.014v0.541
		c-0.034,0-0.062,0-0.091,0c-0.688,0-1.131,0.514-1.131,1.35v1.811h-0.541V41.476"/>
	<path fill="#FFFFFF" d="M107.687,42.929c-0.028-0.701-0.4-1.104-0.982-1.104c-0.59,0-0.962,0.389-1.054,1.104H107.687
		 M106.676,45.183c-0.969,0-1.615-0.73-1.615-1.902c0-1.152,0.667-1.904,1.615-1.904c0.969,0,1.595,0.703,1.595,1.867
		c0,0.031,0,0.051,0,0.08h-2.626c0,0.006,0,0.012,0,0.02c0,0.877,0.421,1.385,1.072,1.385c0.449,0,0.809-0.254,0.99-0.703
		l0.513,0.092C107.967,44.81,107.427,45.183,106.676,45.183z"/>
	<polyline fill="#FFFFFF" points="109.098,44.306 109.891,44.306 109.891,45.064 109.357,46.123 109.034,46.123 109.47,45.154 
		109.098,45.154 109.098,44.306 	"/>
	<path fill="#FFFFFF" d="M46.028,50.181l-0.772-2.395l-0.759,2.395H46.028 M44.955,47.232h0.694l1.593,4.873h-0.589l-0.471-1.455
		h-1.84l-0.449,1.455h-0.554L44.955,47.232z"/>
	<path fill="#FFFFFF" d="M47.677,48.498h0.513v0.807c0.218-0.611,0.555-0.912,1.053-0.912c0.063,0,0.127,0.006,0.197,0.014v0.539
		c-0.035,0-0.062,0-0.092,0c-0.688,0-1.13,0.514-1.13,1.348v1.812h-0.541V48.498"/>
	<path fill="#FFFFFF" d="M49.931,48.888h-0.633v-0.391h0.633V47.64l0.54-0.057v0.914h0.856v0.391h-0.856v1.891
		c0,0.674,0.063,0.961,0.611,0.961c0.111,0,0.237-0.008,0.371-0.041v0.447c-0.146,0.037-0.301,0.057-0.449,0.057
		c-0.428,0-0.722-0.125-0.926-0.428c-0.147-0.211-0.147-0.547-0.147-1.012V48.888"/>
	<path fill="#FFFFFF" d="M52.008,51.066c0.147,0.441,0.527,0.695,1.026,0.695c0.505,0,0.813-0.26,0.813-0.611
		c0-0.441-0.379-0.484-1.039-0.646c-0.787-0.188-1.151-0.42-1.151-1.023c0-0.611,0.506-1.082,1.292-1.082
		c0.667,0,1.13,0.322,1.307,0.912l-0.5,0.105c-0.111-0.371-0.393-0.568-0.828-0.568c-0.455,0-0.729,0.225-0.729,0.568
		c0,0.449,0.407,0.457,1.102,0.633c0.751,0.189,1.11,0.477,1.11,1.033c0,0.643-0.549,1.121-1.376,1.121
		c-0.794,0-1.343-0.385-1.511-1.039L52.008,51.066"/>
	<path fill="#FFFFFF" d="M58.819,50.267c-0.969,0-1.467,0.287-1.467,0.818c0,0.395,0.279,0.654,0.751,0.654
		c0.632,0,1.137-0.568,1.137-1.27v-0.191C59.092,50.267,58.953,50.267,58.819,50.267 M59.24,51.423
		c-0.246,0.484-0.694,0.766-1.242,0.766c-0.737,0-1.235-0.465-1.235-1.096c0-0.814,0.729-1.232,2.169-1.232
		c0.099,0,0.203,0,0.309,0.004V49.64c0-0.541-0.287-0.807-0.897-0.807c-0.549,0-0.864,0.197-0.963,0.625l-0.512-0.076
		c0.147-0.646,0.674-0.984,1.564-0.984c0.939,0,1.334,0.449,1.334,1.426v1.543c0,0.275,0.021,0.514,0.1,0.738h-0.541
		C59.268,51.902,59.24,51.669,59.24,51.423z"/>
	<path fill="#FFFFFF" d="M60.609,48.498H61.1v0.666c0.296-0.52,0.667-0.766,1.166-0.766c0.765,0,1.171,0.486,1.171,1.426v2.281
		h-0.519v-2.33c0-0.598-0.274-0.928-0.744-0.928c-0.575,0-1.04,0.514-1.04,1.266v1.992h-0.525V48.498"/>
	<path fill="#FFFFFF" d="M65.586,48.875c-0.548,0-0.934,0.514-0.934,1.426c0,0.898,0.371,1.41,0.94,1.41
		c0.513,0,0.94-0.447,0.94-1.156V50C66.534,49.296,66.155,48.875,65.586,48.875 M67.053,52.105h-0.484v-0.717
		c-0.245,0.527-0.638,0.801-1.116,0.801c-0.779,0-1.389-0.723-1.389-1.867c0-1.172,0.624-1.91,1.423-1.91
		c0.436,0,0.802,0.225,1.047,0.646v-1.826h0.52V52.105z"/>
	<polyline fill="#FFFFFF" points="70.059,47.232 70.655,47.232 70.655,51.572 72.88,51.572 72.88,52.105 70.059,52.105 
		70.059,47.232 	"/>
	<path fill="#FFFFFF" d="M75.555,49.951c-0.028-0.703-0.401-1.104-0.983-1.104c-0.589,0-0.962,0.387-1.053,1.104H75.555
		 M74.544,52.203c-0.969,0-1.615-0.73-1.615-1.902c0-1.15,0.667-1.902,1.615-1.902c0.968,0,1.595,0.701,1.595,1.869
		c0,0.025,0,0.049,0,0.076h-2.627c0,0.006,0,0.014,0,0.021c0,0.877,0.42,1.383,1.074,1.383c0.449,0,0.808-0.254,0.99-0.703
		l0.511,0.092C75.835,51.832,75.295,52.203,74.544,52.203z"/>
	<path fill="#FFFFFF" d="M76.805,48.498h0.533v3.607h-0.533V48.498z M76.805,47.232h0.533v0.535h-0.533V47.232z"/>
	<path fill="#FFFFFF" d="M78.405,51.066c0.148,0.441,0.526,0.695,1.024,0.695c0.507,0,0.816-0.26,0.816-0.611
		c0-0.441-0.38-0.484-1.04-0.646c-0.787-0.188-1.151-0.42-1.151-1.023c0-0.611,0.505-1.082,1.292-1.082
		c0.667,0,1.13,0.322,1.306,0.912l-0.499,0.105c-0.111-0.371-0.393-0.568-0.828-0.568c-0.455,0-0.73,0.225-0.73,0.568
		c0,0.449,0.407,0.457,1.104,0.633c0.751,0.189,1.108,0.477,1.108,1.033c0,0.643-0.548,1.121-1.377,1.121
		c-0.793,0-1.34-0.385-1.509-1.039L78.405,51.066"/>
	<path fill="#FFFFFF" d="M84.175,52.105h-0.489v-0.666c-0.297,0.518-0.669,0.764-1.167,0.764c-0.766,0-1.172-0.484-1.172-1.424
		v-2.281h0.519v2.328c0,0.605,0.274,0.928,0.745,0.928c0.575,0,1.047-0.512,1.047-1.264v-1.992h0.518V52.105"/>
	<path fill="#FFFFFF" d="M85.075,48.498h0.513v0.807c0.218-0.611,0.554-0.912,1.054-0.912c0.062,0,0.126,0.006,0.195,0.014v0.539
		c-0.034,0-0.062,0-0.091,0c-0.688,0-1.13,0.514-1.13,1.348v1.812h-0.541V48.498"/>
	<path fill="#FFFFFF" d="M89.54,49.951c-0.028-0.703-0.4-1.104-0.983-1.104c-0.589,0-0.961,0.387-1.053,1.104H89.54 M88.529,52.203
		c-0.969,0-1.615-0.73-1.615-1.902c0-1.15,0.667-1.902,1.615-1.902c0.97,0,1.593,0.701,1.593,1.869c0,0.025,0,0.049,0,0.076h-2.624
		c0,0.006,0,0.014,0,0.021c0,0.877,0.421,1.383,1.073,1.383c0.449,0,0.808-0.254,0.99-0.703l0.512,0.092
		C89.82,51.832,89.279,52.203,88.529,52.203z"/>
	<path fill="#FFFFFF" d="M48.569,32.046c4.635,0,7.811,0.293,9.379-4.487c0.803-2.446,0.913-5.364,0.913-7.699
		c0-4.671-0.913-7.626-2.007-8.687c-1.497-1.458-4.088-1.679-8.285-1.679V32.046 M40.323,8.585h10.035
		c4.014,0,5.984,0.474,7.881,1.641c3.795,2.337,5.621,6.168,5.621,10.546c0,4.232-1.972,8.611-5.802,10.728
		c-2.774,1.531-5.912,1.461-8.94,1.461h-8.795v-0.914h3.576V9.495h-3.576V8.585z"/>
	<path fill="#FFFFFF" d="M92.065,24.677h7.115L95.75,14.495L92.065,24.677 M85.35,32.96v-0.914h2.956l8.722-24.009h1.24
		l8.356,24.009h2.919v0.914H97.976v-0.914h3.794l-2.226-6.458h-7.882l-2.262,6.458h3.723v0.914H85.35z"/>
	<path fill="#FFFFFF" d="M108.997,32.96v-0.914h3.612V9.495h-3.612v-0.91h12.076v0.91h-3.793v22.551h4.779
		c4.633,0,6.276-3.101,6.422-7.297h1.131l-0.365,8.211H108.997"/>
	<path fill="#FFFFFF" d="M86.179,25.699c-1.612,8.005-6.63,7.814-8.783,7.814c-6.426,0-11.281-6.537-11.281-12.596
		c0-4.745,2.519-9.236,6.607-11.683c1.46-0.839,3.284-1.205,4.966-1.205c2.044,0,4.051,0.585,5.657,1.899l1.461-1.533h0.803v7.046
		h-1.06c-0.547-3.979-3.321-6.499-6.897-6.499c-2.338,0-3.543,0.512-4.82,2.482c-1.716,2.629-1.35,6.864-1.35,9.82
		c0,2.081-0.075,4.929,0.62,7.304c0.692,2.337,2.409,3.904,5.183,4.05c4.492,0.219,6.572-2.957,7.631-6.9
		C84.916,25.699,86.026,25.709,86.179,25.699"/>
	<polyline fill="#FFFFFF" points="43.697,56.978 44.167,56.978 44.875,59.546 45.539,56.978 45.905,56.978 46.612,59.546 
		47.357,56.978 47.778,56.978 46.811,60.166 46.393,60.166 45.706,57.642 45.06,60.166 44.631,60.166 43.697,56.978 	"/>
	<polyline fill="#FFFFFF" points="47.759,56.978 48.232,56.978 48.938,59.546 49.602,56.978 49.969,56.978 50.675,59.546 
		51.42,56.978 51.842,56.978 50.875,60.166 50.458,60.166 49.771,57.642 49.125,60.166 48.697,60.166 47.759,56.978 	"/>
	<polyline fill="#FFFFFF" points="51.823,56.978 52.294,56.978 53.001,59.546 53.665,56.978 54.032,56.978 54.739,59.546 
		55.485,56.978 55.905,56.978 54.938,60.166 54.521,60.166 53.833,57.642 53.189,60.166 52.759,60.166 51.823,56.978 	"/>
	<rect x="56.032" y="59.423" fill="#FFFFFF" width="0.693" height="0.744"/>
	<path fill="#FFFFFF" d="M58.866,57.312c-0.484,0-0.826,0.455-0.826,1.26c0,0.793,0.329,1.248,0.832,1.248
		c0.453,0,0.831-0.396,0.831-1.025v-0.488C59.703,57.685,59.368,57.312,58.866,57.312 M60.163,60.166h-0.43v-0.631
		c-0.217,0.465-0.564,0.707-0.986,0.707c-0.688,0-1.228-0.639-1.228-1.65c0-1.035,0.552-1.688,1.26-1.688
		c0.384,0,0.707,0.197,0.924,0.57v-1.613h0.46V60.166z"/>
	<path fill="#FFFFFF" d="M62.184,57.289c-0.497,0-0.869,0.471-0.869,1.283c0,0.801,0.354,1.271,0.857,1.271
		c0.384,0,0.676-0.277,0.775-0.781l0.428,0.08c-0.124,0.715-0.577,1.111-1.222,1.111c-0.801,0-1.354-0.646-1.354-1.682
		c0-1.023,0.585-1.68,1.428-1.68c0.608,0,1.042,0.408,1.147,1.135l-0.446,0.066C62.867,57.585,62.556,57.289,62.184,57.289"/>
	<path fill="#FFFFFF" d="M65.597,58.541c-0.856,0-1.296,0.254-1.296,0.727c0,0.348,0.246,0.576,0.663,0.576
		c0.558,0,1.005-0.502,1.005-1.121v-0.168C65.838,58.541,65.714,58.541,65.597,58.541 M65.969,59.566
		c-0.218,0.428-0.614,0.676-1.1,0.676c-0.65,0-1.091-0.41-1.091-0.969c0-0.719,0.645-1.092,1.917-1.092c0.087,0,0.18,0,0.273,0.008
		V57.99c0-0.479-0.255-0.715-0.795-0.715c-0.482,0-0.764,0.174-0.85,0.553l-0.453-0.068c0.131-0.57,0.596-0.867,1.384-0.867
		c0.831,0,1.179,0.396,1.179,1.26v1.363c0,0.242,0.02,0.453,0.087,0.65h-0.478C65.994,59.988,65.969,59.781,65.969,59.566z"/>
	<rect x="67.26" y="55.861" fill="#FFFFFF" width="0.471" height="4.305"/>
	<path fill="#FFFFFF" d="M68.605,56.978h0.435v0.59c0.26-0.461,0.59-0.676,1.03-0.676c0.677,0,1.036,0.426,1.036,1.26v2.014h-0.459
		v-2.059c0-0.527-0.242-0.818-0.658-0.818c-0.509,0-0.919,0.451-0.919,1.115v1.762h-0.465V56.978"/>
	<path fill="#FFFFFF" d="M71.956,56.978h0.472v3.188h-0.472V56.978z M71.956,55.861h0.472v0.471h-0.472V55.861z"/>
	<rect x="73.451" y="59.423" fill="#FFFFFF" width="0.694" height="0.744"/>
	<path fill="#FFFFFF" d="M75.597,57.996c0,0.428,0.278,0.715,0.713,0.715s0.714-0.287,0.714-0.715s-0.285-0.721-0.714-0.721
		C75.882,57.275,75.597,57.568,75.597,57.996 M75.331,60.464c0,0.359,0.359,0.533,1.08,0.533c0.688,0,1.035-0.178,1.035-0.502
		c0-0.285-0.236-0.391-0.72-0.416l-1.061-0.057C75.435,60.128,75.331,60.259,75.331,60.464z M75.114,58.021
		c0-0.629,0.496-1.111,1.18-1.111c0.246,0,0.47,0.055,0.688,0.174c0.057-0.365,0.286-0.553,0.677-0.553
		c0.055,0,0.124,0.006,0.197,0.014v0.354c-0.08,0-0.136,0-0.161,0c-0.278,0-0.438,0.123-0.479,0.373
		c0.193,0.234,0.287,0.477,0.287,0.738c0,0.611-0.459,1.053-1.217,1.053c-0.168,0-0.322-0.025-0.471-0.08
		c-0.218,0.062-0.329,0.168-0.329,0.303c0,0.205,0.143,0.322,0.409,0.336l0.975,0.049c0.695,0.039,1.055,0.312,1.055,0.791
		c0,0.557-0.546,0.896-1.582,0.896c-0.976,0-1.483-0.314-1.483-0.83c0-0.303,0.187-0.545,0.528-0.645
		c-0.236-0.119-0.342-0.279-0.342-0.51c0-0.254,0.161-0.434,0.495-0.553C75.263,58.628,75.114,58.357,75.114,58.021z"/>
	<path fill="#FFFFFF" d="M80.318,58.572c0-0.812-0.366-1.283-0.918-1.283s-0.911,0.465-0.911,1.283c0,0.812,0.365,1.285,0.911,1.285
		S80.318,59.378,80.318,58.572 M77.973,58.572c0-1.029,0.584-1.68,1.427-1.68c0.851,0,1.439,0.65,1.439,1.68
		c0,1.023-0.589,1.682-1.439,1.682C78.557,60.253,77.973,59.595,77.973,58.572z"/>
	<polyline fill="#FFFFFF" points="81.008,56.978 81.478,56.978 82.385,59.701 83.291,56.978 83.725,56.978 82.608,60.166 
		82.087,60.166 81.008,56.978 	"/>
	<rect x="83.704" y="59.423" fill="#FFFFFF" width="0.694" height="0.744"/>
	<path fill="#FFFFFF" d="M87.884,60.166h-0.434v-0.588c-0.262,0.459-0.59,0.676-1.03,0.676c-0.677,0-1.036-0.428-1.036-1.258v-2.018
		h0.458v2.059c0,0.535,0.243,0.82,0.658,0.82c0.51,0,0.926-0.453,0.926-1.117v-1.762h0.458V60.166"/>
	<polyline fill="#FFFFFF" points="88.741,55.861 89.206,55.861 89.206,58.597 90.645,56.978 91.16,56.978 90.181,58.021 
		91.315,60.166 90.812,60.166 89.864,58.357 89.206,59.058 89.206,60.166 88.741,60.166 88.741,55.861 	"/>
</g>
</svg>
