<?xml version="1.0" encoding="utf-8"?>
<!-- Generator: Adobe Illustrator 16.0.0, SVG Export Plug-In . SVG Version: 6.00 Build 0)  -->
<!DOCTYPE svg PUBLIC "-//W3C//DTD SVG 1.1//EN" "http://www.w3.org/Graphics/SVG/1.1/DTD/svg11.dtd">
<svg version="1.1" id="Layer_1" xmlns="http://www.w3.org/2000/svg" xmlns:xlink="http://www.w3.org/1999/xlink" x="0px" y="0px"
	 width="137.761px" height="50.13px" viewBox="0 0 137.761 50.13" enable-background="new 0 0 137.761 50.13" xml:space="preserve">
<g>
	<path fill="#A6A6A6" d="M128.876,0.707H9.009c-0.309,0-0.617,0-0.925,0.002c-0.261,0.001-0.515,0.004-0.775,0.01
		C6.742,0.737,6.171,0.767,5.61,0.872c-0.569,0.1-1.098,0.268-1.609,0.531c-0.51,0.259-0.97,0.592-1.378,0.993
		C2.221,2.804,1.888,3.264,1.629,3.774c-0.263,0.511-0.431,1.04-0.53,1.609C0.993,5.945,0.964,6.515,0.945,7.083
		c-0.006,0.26-0.008,0.514-0.009,0.774C0.934,8.165,0.934,8.473,0.934,8.782v32.61c0,0.302,0,0.616,0.001,0.921
		c0.001,0.258,0.003,0.52,0.009,0.779c0.02,0.573,0.048,1.138,0.154,1.692c0.099,0.575,0.268,1.104,0.53,1.621
		c0.259,0.497,0.591,0.974,0.993,1.366c0.408,0.407,0.869,0.748,1.378,1.005c0.511,0.265,1.04,0.419,1.609,0.533
		c0.561,0.098,1.132,0.128,1.699,0.141c0.26,0.005,0.515,0.007,0.775,0.009c0.308,0.003,0.616,0.003,0.925,0.003h119.867
		c0.307,0,0.616,0,0.926-0.003c0.257-0.002,0.519-0.004,0.78-0.009c0.564-0.013,1.136-0.043,1.698-0.141
		c0.562-0.114,1.09-0.269,1.609-0.533c0.512-0.257,0.971-0.598,1.373-1.005c0.4-0.393,0.74-0.869,0.998-1.366
		c0.264-0.517,0.43-1.046,0.53-1.621c0.101-0.555,0.136-1.119,0.149-1.692c0.01-0.26,0.013-0.521,0.013-0.779
		c0.002-0.305,0.002-0.619,0.002-0.921V8.782c0-0.31,0-0.617-0.002-0.926c0-0.26-0.003-0.514-0.013-0.774
		c-0.014-0.567-0.049-1.138-0.149-1.699c-0.101-0.569-0.267-1.098-0.53-1.609c-0.258-0.51-0.598-0.971-0.998-1.379
		c-0.402-0.401-0.861-0.734-1.373-0.993c-0.52-0.263-1.048-0.431-1.609-0.531c-0.562-0.105-1.134-0.134-1.698-0.153
		c-0.262-0.006-0.523-0.009-0.78-0.01C129.492,0.707,129.183,0.707,128.876,0.707L128.876,0.707z"/>
	<path d="M128.876,1.908l0.916,0.001c0.252,0.001,0.507,0.004,0.755,0.016c0.462,0.011,0.997,0.033,1.519,0.131
		c0.48,0.087,0.886,0.22,1.281,0.417c0.391,0.202,0.75,0.463,1.066,0.777c0.314,0.314,0.576,0.673,0.778,1.068
		c0.197,0.393,0.331,0.797,0.417,1.279c0.092,0.516,0.116,1.054,0.128,1.512c0.007,0.252,0.01,0.505,0.01,0.761
		c0.002,0.305,0.002,0.605,0.002,0.911v32.61c0,0.3,0,0.612-0.002,0.914c0,0.253-0.003,0.507-0.01,0.757
		c-0.012,0.459-0.036,0.998-0.128,1.517c-0.086,0.472-0.22,0.884-0.417,1.283c-0.202,0.388-0.464,0.747-0.778,1.066
		c-0.316,0.31-0.676,0.569-1.069,0.765c-0.393,0.211-0.798,0.338-1.276,0.426c-0.528,0.09-1.088,0.127-1.516,0.136
		c-0.25,0.005-0.503,0.007-0.76,0.01c-0.305,0.002-0.611,0.002-0.916,0.002H9.009c-0.003,0-0.006,0-0.009,0
		c-0.303,0-0.606,0-0.912-0.002c-0.248-0.003-0.502-0.005-0.751-0.01c-0.425-0.009-0.988-0.046-1.512-0.136
		c-0.481-0.088-0.887-0.215-1.281-0.426c-0.394-0.195-0.752-0.455-1.066-0.765c-0.313-0.319-0.574-0.679-0.778-1.066
		c-0.196-0.399-0.33-0.812-0.416-1.286c-0.099-0.519-0.121-1.055-0.131-1.514c-0.012-0.252-0.014-0.507-0.016-0.757l0-0.731v-0.183
		V8.782V8.599l0-0.729C2.138,7.616,2.14,7.363,2.152,7.109c0.011-0.456,0.032-0.993,0.132-1.513C2.37,5.116,2.503,4.711,2.7,4.317
		c0.203-0.394,0.464-0.752,0.777-1.066c0.313-0.313,0.672-0.575,1.066-0.779c0.393-0.196,0.799-0.329,1.279-0.416
		C6.344,1.958,6.88,1.936,7.337,1.925C7.59,1.913,7.843,1.911,8.096,1.909l0.913-0.001H128.876"/>
	<g>
		<g>
			<path fill="#FFFFFF" d="M37.657,24.821c-0.036-3.928,3.216-5.84,3.365-5.929c-1.841-2.685-4.696-3.052-5.699-3.081
				c-2.398-0.251-4.723,1.435-5.945,1.435c-1.246,0-3.127-1.41-5.153-1.368c-2.608,0.041-5.048,1.55-6.387,3.895
				c-2.762,4.782-0.702,11.809,1.944,15.673c1.324,1.893,2.871,4.006,4.895,3.932c1.981-0.083,2.721-1.264,5.111-1.264
				c2.369,0,3.063,1.264,5.128,1.217c2.125-0.036,3.464-1.902,4.742-3.812c1.53-2.171,2.144-4.307,2.168-4.416
				C41.776,31.086,37.697,29.53,37.657,24.821z"/>
			<path fill="#FFFFFF" d="M33.756,13.269c1.064-1.333,1.793-3.145,1.591-4.984c-1.542,0.068-3.47,1.066-4.58,2.37
				c-0.982,1.148-1.86,3.03-1.633,4.8C30.866,15.583,32.645,14.581,33.756,13.269z"/>
		</g>
	</g>
	<g>
		<path fill="#FFFFFF" d="M61.245,16.665c-0.742,0.28-1.526,0.421-2.352,0.421c-1.227,0-2.185-0.333-2.874-1
			c-0.712-0.689-1.068-1.636-1.068-2.84c0-1.196,0.38-2.159,1.142-2.886s1.763-1.09,3.005-1.09c0.795,0,1.435,0.117,1.92,0.352
			l-0.272,1c-0.47-0.212-1.026-0.318-1.67-0.318c-0.856,0-1.538,0.246-2.045,0.738c-0.522,0.516-0.784,1.228-0.784,2.136
			s0.25,1.624,0.75,2.146c0.477,0.5,1.128,0.75,1.954,0.75c0.515,0,0.886-0.053,1.113-0.159v-2.079h-1.397v-0.966h2.579V16.665z"/>
		<path fill="#FFFFFF" d="M67.64,13.984c0,0.22-0.016,0.405-0.045,0.557h-3.681c0.015,0.545,0.193,0.962,0.534,1.25
			c0.311,0.257,0.711,0.386,1.205,0.386c0.545,0,1.041-0.087,1.488-0.261l0.193,0.852c-0.522,0.228-1.14,0.341-1.852,0.341
			c-0.856,0-1.528-0.251-2.017-0.756c-0.488-0.503-0.732-1.179-0.732-2.027c0-0.833,0.228-1.526,0.682-2.079
			c0.477-0.59,1.121-0.886,1.931-0.886c0.795,0,1.397,0.295,1.806,0.886C67.477,12.716,67.64,13.295,67.64,13.984z M66.47,13.666
			c0.007-0.363-0.072-0.677-0.238-0.942c-0.212-0.341-0.538-0.512-0.977-0.512c-0.402,0-0.728,0.167-0.978,0.5
			c-0.205,0.266-0.325,0.583-0.363,0.954H66.47z"/>
		<path fill="#FFFFFF" d="M72.025,12.405h-1.353v2.681c0,0.681,0.239,1.022,0.717,1.022c0.219,0,0.401-0.019,0.545-0.057
			l0.033,0.931c-0.241,0.091-0.559,0.137-0.953,0.137c-0.484,0-0.863-0.148-1.137-0.444c-0.271-0.295-0.408-0.791-0.408-1.488
			v-2.783h-0.807v-0.92h0.807v-1.011l1.203-0.363v1.375h1.353V12.405z"/>
		<path fill="#FFFFFF" d="M78.046,9.837c0,0.22-0.072,0.398-0.217,0.534c-0.143,0.136-0.328,0.205-0.557,0.205
			c-0.203,0-0.377-0.07-0.517-0.21c-0.141-0.14-0.21-0.316-0.21-0.528s0.072-0.386,0.217-0.522c0.143-0.136,0.321-0.205,0.533-0.205
			s0.391,0.068,0.533,0.205C77.974,9.451,78.046,9.625,78.046,9.837z M77.909,17.006h-1.228v-5.521h1.228V17.006z"/>
		<path fill="#FFFFFF" d="M82.69,12.405H81.34v2.681c0,0.681,0.239,1.022,0.715,1.022c0.22,0,0.402-0.019,0.546-0.057l0.033,0.931
			c-0.24,0.091-0.56,0.137-0.953,0.137c-0.485,0-0.863-0.148-1.137-0.444c-0.271-0.295-0.408-0.791-0.408-1.488v-2.783h-0.807v-0.92
			h0.807v-1.011l1.204-0.363v1.375h1.351V12.405z"/>
		<path fill="#FFFFFF" d="M92.392,14.2c0,0.849-0.241,1.545-0.727,2.09c-0.508,0.561-1.182,0.841-2.021,0.841
			c-0.811,0-1.456-0.269-1.938-0.807c-0.481-0.538-0.721-1.216-0.721-2.034c0-0.856,0.248-1.556,0.744-2.102
			c0.495-0.545,1.164-0.818,2.004-0.818c0.811,0,1.462,0.269,1.955,0.807C92.157,12.7,92.392,13.375,92.392,14.2z M91.119,14.239
			c0-0.509-0.109-0.945-0.328-1.31c-0.259-0.44-0.625-0.66-1.103-0.66c-0.492,0-0.867,0.22-1.125,0.66
			c-0.219,0.365-0.33,0.809-0.33,1.333c0,0.509,0.111,0.945,0.33,1.311c0.266,0.44,0.637,0.661,1.113,0.661
			c0.471,0,0.837-0.224,1.102-0.672C91.007,15.189,91.119,14.748,91.119,14.239z"/>
		<path fill="#FFFFFF" d="M98.81,17.006h-1.226v-3.162c0-0.975-0.371-1.462-1.114-1.462c-0.363,0-0.658,0.135-0.886,0.403
			s-0.341,0.583-0.341,0.946v3.275h-1.227v-3.942c0-0.485-0.016-1.011-0.045-1.579h1.078l0.057,0.863h0.035
			c0.145-0.269,0.355-0.491,0.636-0.667c0.333-0.206,0.704-0.31,1.114-0.31c0.514,0,0.942,0.167,1.283,0.5
			c0.424,0.409,0.635,1.019,0.635,1.829V17.006z"/>
	</g>
	<g>
		<path fill="#FFFFFF" d="M58.278,23.914c0,0.466-0.152,0.843-0.457,1.132c-0.306,0.289-0.698,0.434-1.18,0.434
			c-0.434,0-0.799-0.149-1.096-0.446s-0.445-0.669-0.445-1.12c0-0.449,0.152-0.818,0.458-1.107c0.305-0.289,0.682-0.433,1.131-0.433
			c0.449,0,0.826,0.144,1.132,0.433C58.126,23.095,58.278,23.465,58.278,23.914z M57.989,39.104h-2.6V27.405h2.6V39.104z"/>
		<path fill="#FFFFFF" d="M72.385,34.458c0,1.316-0.489,2.407-1.469,3.273c-1.123,1.012-3.049,1.517-5.777,1.517
			c-1.251,0-2.391-0.064-3.418-0.193v-15.96c1.088-0.224,2.434-0.336,4.035-0.336c1.985,0,3.486,0.361,4.503,1.083
			c1.017,0.722,1.525,1.717,1.525,2.985c0,0.771-0.234,1.473-0.704,2.105c-0.47,0.635-1.126,1.105-1.969,1.41v0.071
			c0.914,0.226,1.669,0.658,2.263,1.3C72.048,32.468,72.385,33.382,72.385,34.458z M69.184,27.091c0-1.589-1.054-2.383-3.162-2.383
			c-0.735,0-1.302,0.048-1.701,0.145v4.766h1.604c1.006,0,1.8-0.231,2.384-0.698C68.892,28.457,69.184,27.846,69.184,27.091z
			 M69.665,34.385c0-0.963-0.376-1.692-1.127-2.191c-0.671-0.447-1.565-0.674-2.684-0.674h-1.534v5.658
			c0.319,0.064,0.846,0.096,1.582,0.096c1.102,0,1.973-0.216,2.612-0.649C69.281,36.127,69.665,35.381,69.665,34.385z"/>
		<path fill="#FFFFFF" d="M86.106,33.159c0,1.797-0.514,3.273-1.541,4.43c-1.075,1.188-2.504,1.781-4.285,1.781
			c-1.718,0-3.084-0.57-4.104-1.709c-1.02-1.141-1.529-2.576-1.529-4.31c0-1.813,0.525-3.298,1.577-4.454
			c1.05-1.154,2.467-1.732,4.249-1.732c1.717,0,3.097,0.568,4.141,1.709C85.609,29.981,86.106,31.409,86.106,33.159z M83.411,33.242
			c0-1.078-0.233-2.003-0.699-2.776c-0.545-0.933-1.323-1.399-2.336-1.399c-1.042,0-1.838,0.467-2.383,1.399
			c-0.465,0.773-0.697,1.715-0.697,2.825c0,1.079,0.232,2.003,0.697,2.777c0.562,0.933,1.348,1.399,2.359,1.399
			c0.995,0,1.773-0.475,2.336-1.425C83.169,35.253,83.411,34.321,83.411,33.242z"/>
		<path fill="#FFFFFF" d="M99.636,33.159c0,1.797-0.514,3.273-1.541,4.43c-1.075,1.188-2.504,1.781-4.285,1.781
			c-1.717,0-3.086-0.57-4.104-1.709c-1.019-1.141-1.528-2.576-1.528-4.31c0-1.813,0.526-3.298,1.577-4.454
			c1.052-1.154,2.468-1.732,4.249-1.732c1.717,0,3.097,0.568,4.141,1.709C99.139,29.981,99.636,31.409,99.636,33.159z M96.94,33.242
			c0-1.078-0.233-2.003-0.699-2.776c-0.545-0.933-1.323-1.399-2.336-1.399c-1.042,0-1.838,0.467-2.383,1.399
			c-0.465,0.773-0.697,1.715-0.697,2.825c0,1.079,0.232,2.003,0.697,2.777c0.562,0.933,1.35,1.399,2.359,1.399
			c0.995,0,1.773-0.475,2.336-1.425C96.698,35.253,96.94,34.321,96.94,33.242z"/>
		<path fill="#FFFFFF" d="M112.778,39.104h-3.177l-3.539-5.344l-0.987,1.203v4.141h-2.6V22.036h2.6v10.591h0.049
			c0.32-0.512,0.633-0.961,0.938-1.348l3.009-3.875h3.106l-4.311,4.814L112.778,39.104z"/>
		<path fill="#FFFFFF" d="M121.806,35.742c0,1.091-0.4,1.962-1.203,2.618c-0.804,0.657-1.91,0.984-3.322,0.984
			c-1.333,0-2.464-0.264-3.395-0.793l0.553-1.927c0.899,0.546,1.854,0.819,2.865,0.819c1.332,0,1.998-0.49,1.998-1.469
			c0-0.434-0.145-0.791-0.434-1.072c-0.288-0.28-0.803-0.557-1.54-0.83c-2.087-0.77-3.13-1.893-3.13-3.37
			c0-1.011,0.386-1.853,1.156-2.526c0.77-0.676,1.789-1.012,3.057-1.012c1.156,0,2.143,0.235,2.961,0.707l-0.553,1.868
			c-0.755-0.45-1.55-0.674-2.385-0.674c-0.545,0-0.971,0.129-1.274,0.384c-0.306,0.257-0.458,0.586-0.458,0.985
			s0.16,0.729,0.482,0.984c0.271,0.239,0.802,0.503,1.588,0.792C120.794,32.98,121.806,34.157,121.806,35.742z"/>
	</g>
</g>
</svg>
