<?xml version="1.0" encoding="utf-8"?>
<!-- Generator: Adobe Illustrator 16.0.0, SVG Export Plug-In . SVG Version: 6.00 Build 0)  -->
<!DOCTYPE svg PUBLIC "-//W3C//DTD SVG 1.1//EN" "http://www.w3.org/Graphics/SVG/1.1/DTD/svg11.dtd">
<svg version="1.1" id="Layer_1" xmlns="http://www.w3.org/2000/svg" xmlns:xlink="http://www.w3.org/1999/xlink" x="0px" y="0px"
	 width="54.25px" height="68.25px" viewBox="0 0 54.25 68.25" enable-background="new 0 0 54.25 68.25" xml:space="preserve">
<g>
	<path fill="none" d="M53.133,14.692c-0.167,1.509-0.085,3.019-0.171,4.525c-0.108,1.894-0.109,3.794-0.225,5.687
		c-0.097,1.579-0.113,3.164-0.103,4.738c0.014,1.906-0.014,3.815,0.01,5.721c0.012,0.85-0.097,1.701-0.087,2.557
		c0.003,0.285,0.081,0.564,0.023,0.855c-0.063,0.328,0.039,0.668-0.171,1.002c-0.062,0.098-0.191,0.416,0.022,0.691
		c0.212,0.275-0.079,0.643-0.12,0.973c-0.163,1.322-0.174,2.646-0.149,3.975c0.019,1.025-0.064,2.049-0.115,3.072
		c-0.089,1.773-0.415,3.523-0.431,5.299c-0.012,1.164-0.223,2.305-0.281,3.459c-0.027,0.541-0.123,1.068-0.225,1.58
		c-0.212,1.076-0.186,2.168-0.38,3.24c-0.04,0.219-0.063,0.43-0.285,0.574c-0.144,0.096-0.21,0.275-0.19,0.467
		c0.115,1.096-0.524,1.723-1.395,2.18c-0.486,0.254-0.943,0.59-1.518,0.652c-0.108,0.012-0.239,0.102-0.24,0.211
		c-0.006,0.582-0.324,0.396-0.637,0.283c-0.281-0.102-0.553-0.129-0.809,0.1c-0.213,0.191-0.516,0.221-0.772,0.217
		c-1.349-0.01-2.679,0.238-4.028,0.27c-1.252,0.027-2.494-0.086-3.74-0.094c-1.805-0.01-3.607-0.062-5.408-0.145
		c-1.084-0.049-2.165-0.131-3.25-0.168c-0.768-0.027-1.54,0.012-2.309-0.008c-1.243-0.033-2.486-0.092-3.73-0.137
		c-0.808-0.029-1.618-0.139-2.419-0.15c-0.725-0.008-1.479-0.172-2.193,0.068c-1.375,0.461-2.737,0.006-4.1-0.053
		c-1.952-0.086-3.882-0.406-5.793-0.811c-0.863-0.182-1.693-0.457-2.482-0.887c-0.55-0.303-1.029-0.711-1.598-0.973
		c-0.069-0.031-0.15-0.072-0.22-0.064c-0.531,0.059-0.94-0.133-1.299-0.527c-0.431-0.475-0.684-1.021-0.794-1.641
		c-0.028-0.156-0.036-0.312-0.113-0.459c-0.149-0.287-0.165-0.539-0.06-0.893c0.127-0.432,0.014-0.949-0.056-1.42
		c-0.167-1.137-0.022-2.273-0.06-3.406C1.21,54.6,1.276,53.953,1.251,53.299c-0.03-0.805,0.094-1.617,0.151-2.424
		c0-0.016,0-0.033,0-0.049c0.135-1.611,0.032-3.23,0.122-4.84c0.099-1.756,0.087-3.51,0.056-5.262
		c-0.036-1.957,0.051-3.91,0.05-5.866c-0.001-1.748,0.014-3.496,0.088-5.24c0.074-1.77,0.017-3.539,0.097-5.305
		c0.081-1.779,0.075-3.561,0.182-5.338c0.106-1.756,0.278-3.51,0.333-5.267c0.031-1.019,0.011-2.042,0.144-3.052
		C2.602,9.68,2.836,8.716,2.975,7.74c0.082-0.572,0.08-1.152,0.259-1.715c0.125-0.389,0.181-0.869,0.349-1.168
		C3.91,4.281,4.31,3.679,4.948,3.326c0.548-0.303,1.095-0.589,1.725-0.68c0.09-0.014,0.188-0.067,0.253-0.132
		c0.488-0.493,1.15-0.523,1.765-0.629c1.118-0.192,2.255-0.217,3.386-0.286c0.441-0.027,0.906-0.127,1.312-0.104
		c0.47,0.028,0.972-0.027,1.421,0.093c0.674,0.181,1.367,0.16,2.017,0.118c0.918-0.059,1.817,0.125,2.724,0.046
		c0.405-0.035,0.796,0.056,1.185,0.112c0.383,0.057,0.752-0.038,1.122-0.041c0.441-0.003,0.913-0.002,1.328,0.04
		c0.855,0.085,1.686-0.132,2.535-0.032c0.871,0.103,1.754,0.132,2.631,0.139c1.363,0.011,2.727-0.035,4.088-0.039
		c2.779-0.008,5.56-0.059,8.336,0.022c1.261,0.038,2.521-0.013,3.783,0.039c0.684,0.028,1.395,0.032,2.063,0.108
		c1.062,0.12,2.13,0.207,3.19,0.495c0.842,0.229,1.109,0.865,1.588,1.344c0.668,0.666,0.923,1.579,1.197,2.477
		c0.234,0.76,0.205,1.547,0.291,2.309c0.096,0.852,0.255,1.722,0.232,2.577C53.09,12.435,53.256,13.574,53.133,14.692z"/>
	<path fill-rule="evenodd" clip-rule="evenodd" fill="#742C16" d="M1.403,50.826c0.135-1.611,0.032-3.23,0.122-4.84
		c0.099-1.756,0.087-3.51,0.056-5.262c-0.036-1.957,0.051-3.91,0.05-5.866c-0.001-1.748,0.014-3.496,0.088-5.24
		c0.074-1.77,0.017-3.539,0.097-5.305c0.081-1.779,0.075-3.561,0.182-5.338c0.106-1.756,0.278-3.51,0.333-5.267
		c0.031-1.019,0.011-2.042,0.144-3.052C2.602,9.68,2.836,8.716,2.975,7.74c0.082-0.572,0.08-1.152,0.259-1.715
		c0.125-0.389,0.181-0.869,0.349-1.168C3.91,4.281,4.31,3.679,4.948,3.326c0.548-0.303,1.095-0.589,1.725-0.68
		c0.09-0.014,0.188-0.067,0.253-0.132c0.488-0.493,1.15-0.523,1.765-0.629c1.118-0.192,2.255-0.217,3.386-0.286
		c0.441-0.027,0.906-0.127,1.312-0.104c0.47,0.028,0.972-0.027,1.421,0.093c0.674,0.181,1.367,0.16,2.017,0.118
		c0.918-0.059,1.817,0.125,2.724,0.046c0.405-0.035,0.796,0.056,1.185,0.112c0.383,0.057,0.752-0.038,1.122-0.041
		c0.441-0.003,0.913-0.002,1.328,0.04c0.855,0.085,1.686-0.132,2.535-0.032c0.871,0.103,1.754,0.132,2.631,0.139
		c1.363,0.011,2.727-0.035,4.088-0.039c2.779-0.008,5.56-0.059,8.336,0.022c1.261,0.038,2.521-0.013,3.783,0.039
		c0.684,0.028,1.395,0.032,2.063,0.108c1.062,0.12,2.13,0.207,3.19,0.495c0.842,0.229,1.109,0.865,1.588,1.344
		c0.668,0.666,0.923,1.579,1.197,2.477c0.234,0.76,0.205,1.547,0.291,2.309c0.096,0.852,0.255,1.722,0.232,2.577
		c-0.029,1.133,0.137,2.271,0.014,3.39c-0.167,1.509-0.085,3.019-0.171,4.525c-0.108,1.894-0.109,3.794-0.225,5.687
		c-0.097,1.579-0.113,3.164-0.103,4.738c0.014,1.906-0.014,3.815,0.01,5.721c0.012,0.85-0.097,1.701-0.087,2.557
		c0.003,0.285,0.081,0.564,0.023,0.855c-0.063,0.328,0.039,0.668-0.171,1.002c-0.062,0.098-0.191,0.416,0.022,0.691
		c0.212,0.275-0.079,0.643-0.12,0.973c-0.163,1.322-0.174,2.646-0.149,3.975c0.019,1.025-0.064,2.049-0.115,3.072
		c-0.089,1.773-0.415,3.523-0.431,5.299c-0.012,1.164-0.223,2.305-0.281,3.459c-0.027,0.541-0.123,1.068-0.225,1.58
		c-0.212,1.076-0.186,2.168-0.38,3.24c-0.04,0.219-0.063,0.43-0.285,0.574c-0.144,0.096-0.21,0.275-0.19,0.467
		c0.115,1.096-0.524,1.723-1.395,2.18c-0.486,0.254-0.943,0.59-1.518,0.652c-0.108,0.012-0.239,0.102-0.24,0.211
		c-0.006,0.582-0.324,0.396-0.637,0.283c-0.281-0.102-0.553-0.129-0.809,0.1c-0.213,0.191-0.516,0.221-0.772,0.217
		c-1.349-0.01-2.679,0.238-4.028,0.27c-1.252,0.027-2.494-0.086-3.74-0.094c-1.805-0.01-3.607-0.062-5.408-0.145
		c-1.084-0.049-2.165-0.131-3.25-0.168c-0.768-0.027-1.54,0.012-2.309-0.008c-1.243-0.033-2.486-0.092-3.73-0.137
		c-0.808-0.029-1.618-0.139-2.419-0.15c-0.725-0.008-1.479-0.172-2.193,0.068c-1.375,0.461-2.737,0.006-4.1-0.053
		c-1.952-0.086-3.882-0.406-5.793-0.811c-0.863-0.182-1.693-0.457-2.482-0.887c-0.55-0.303-1.029-0.711-1.598-0.973
		c-0.069-0.031-0.15-0.072-0.22-0.064c-0.531,0.059-0.94-0.133-1.299-0.527c-0.431-0.475-0.684-1.021-0.794-1.641
		c-0.028-0.156-0.036-0.312-0.113-0.459c-0.149-0.287-0.165-0.539-0.06-0.893c0.127-0.432,0.014-0.949-0.056-1.42
		c-0.167-1.137-0.022-2.273-0.06-3.406C1.21,54.6,1.276,53.953,1.251,53.299c-0.03-0.805,0.094-1.617,0.151-2.424
		C1.403,50.859,1.403,50.842,1.403,50.826z M36.196,65.557c0-0.236,0.124-0.281,0.417-0.268c0.388,0.018,0.762,0.135,1.141,0.131
		c0.725-0.006,1.451-0.121,2.145,0.201c0.07,0.031,0.188,0.029,0.252-0.008c0.465-0.27,0.96-0.15,1.449-0.143
		c0.205,0.004,0.402-0.07,0.6-0.113c0.48-0.102,0.895-0.488,1.41-0.385c0.521,0.105,1.028,0.09,1.555,0.057
		c1.235-0.078,2.231-0.564,2.933-1.58c0.12-0.176,0.341-0.312,0.335-0.598c-0.018-0.77,0.057-1.529,0.156-2.299
		c0.141-1.08,0.25-2.172,0.32-3.264c0.041-0.631,0.16-1.254,0.195-1.889c0.039-0.734,0.018-1.479,0.109-2.209
		c0.076-0.617-0.211-1.271,0.182-1.861c0.046-0.068,0.029-0.227-0.088-0.301c-0.078-0.047-0.131-0.129-0.082-0.197
		c0.256-0.352,0.091-0.764,0.129-1.135c0.068-0.684,0.223-1.357,0.229-2.059c0.006-0.9-0.051-1.799,0.154-2.707
		c0.145-0.645-0.11-1.354,0.037-2.035c0.068-0.324-0.242-0.607-0.151-0.926c0.146-0.512,0.099-1.07,0.086-1.551
		c-0.021-0.729,0.397-1.441,0.071-2.168c-0.033-0.072-0.013-0.227,0.041-0.271c0.205-0.164,0.088-0.375,0.129-0.561
		c0.145-0.66-0.192-1.293-0.008-1.98c0.113-0.42,0.031-0.964-0.029-1.413c-0.099-0.761,0.027-1.507,0.019-2.249
		c-0.017-1.443,0.153-2.904-0.079-4.329c-0.088-0.547,0.283-1.066-0.041-1.571c0.462-0.566-0.045-1.198,0.109-1.816
		c0.074-0.302,0.199-0.646,0.184-1.015c-0.037-0.848,0.064-1.7,0.057-2.55c-0.006-0.655,0.246-1.311,0.082-1.952
		c-0.197-0.773,0.044-1.537-0.058-2.307c-0.067-0.521,0.093-1.055,0.097-1.596c0.006-1.122,0.119-2.235,0.002-3.369
		c-0.113-1.104-0.027-2.227-0.021-3.342c0.002-0.297,0.119-0.62,0.034-0.884c-0.115-0.358-0.114-0.713-0.165-1.071
		c-0.102-0.717-0.268-1.413-1.092-1.686c-0.27-0.089-0.555-0.111-0.814-0.202c-0.549-0.19-1.037-0.452-1.665-0.519
		c-1.438-0.152-2.88-0.238-4.319-0.309c-1.768-0.088-3.54-0.092-5.311-0.094c-1.023-0.002-2.045-0.079-3.071-0.006
		c-0.892,0.063-1.788,0.081-2.687,0.018c-0.78-0.054-1.566-0.03-2.349-0.046c-1.898-0.04-3.786,0.209-5.679,0.204
		c-1.583-0.006-3.163,0.167-4.75,0.039c-1.408-0.113-2.833-0.053-4.23-0.23c-1.65-0.21-3.291-0.105-4.932-0.053
		C7.822,3.14,6.526,3.55,5.487,4.621c-0.558,0.574-0.832,1.283-1.15,1.97c-0.091,0.195-0.191,0.529-0.1,0.767
		c0.263,0.678-0.101,1.342,0.01,2.036c0.064,0.4-0.122,0.909,0.038,1.328c0.177,0.466-0.03,0.89-0.046,1.321
		c-0.037,1.001,0.114,1.968,0.226,2.951c0.103,0.898,0.067,1.815-0.056,2.719c-0.079,0.579-0.203,1.192-0.188,1.735
		c0.038,1.324-0.087,2.643-0.04,3.964c0.029,0.804-0.101,1.6-0.063,2.406c0.046,0.978,0.005,1.959-0.04,2.94
		c-0.021,0.468-0.075,0.955-0.02,1.401c0.084,0.68-0.088,1.337-0.038,2.02c0.042,0.574,0.01,1.206,0.001,1.8
		c-0.027,1.908-0.121,3.818-0.051,5.728c0.027,0.75-0.047,1.504-0.061,2.256c-0.013,0.738-0.105,1.494,0.017,2.209
		c0.125,0.73-0.633,1.338-0.188,2.066c0.04,0.066,0.038,0.199-0.114,0.209c-0.13,0.01-0.087,0.172-0.082,0.174
		c0.33,0.207,0.117,0.51,0.118,0.756c0.002,0.938,0.13,1.881-0.063,2.805c-0.069,0.338-0.084,0.619,0.072,0.928
		c0.094,0.188,0.096,0.453-0.003,0.613c-0.297,0.482,0.125,1.096-0.308,1.537c0.23,0.252-0.166,0.334-0.145,0.557
		c0.053,0.586-0.271,1.188,0.094,1.77c0.076,0.121,0.008,0.311-0.015,0.471c-0.068,0.488-0.2,0.971-0.155,1.471
		c0.023,0.254,0.1,0.514,0.068,0.762c-0.086,0.682-0.024,1.354,0.081,2.02c0.049,0.312,0.143,0.693,0.402,0.85
		c0.522,0.318,0.766,0.881,1.229,1.232c0.266,0.203,0.361,0.619,0.775,0.633c0.433,0.014,0.795,0.203,1.152,0.43
		c0.472,0.299,0.949,0.605,1.506,0.715c1.031,0.201,2.075,0.305,3.125,0.273c0.277-0.008,0.487,0.166,0.78,0.145
		c0.709-0.051,1.426-0.029,2.138-0.002c1.098,0.043,2.194,0.145,3.292,0.164c0.702,0.014,1.395-0.047,2.099-0.229
		c0.547-0.145,1.183,0.039,1.776,0.094c1.096,0.104,2.199,0.072,3.292,0.223c0.566,0.078,1.152,0.002,1.711,0.158
		c0.348,0.1,0.638,0.244,1.055,0.074c0.523-0.215,1.076,0.16,1.632,0.188c0.221,0.01,0.438,0.062,0.604-0.078
		c0.252-0.215,0.516-0.111,0.705,0.004c0.316,0.189,0.569,0.396,0.827-0.053c0.041-0.072,0.146-0.016,0.218-0.021
		c0.381-0.029,0.729,0.168,1.121,0.121c0.183-0.023,0.5,0,0.5,0.35c0.189-0.104,0.367-0.248,0.568-0.303
		c0.274-0.076,0.613-0.213,0.721,0.246c0.033,0.135,0.133,0.113,0.229,0.104c0.174-0.018,0.209-0.137,0.182-0.275
		c-0.025-0.129-0.09-0.287,0.123-0.266C35.471,65.129,35.814,65.367,36.196,65.557z"/>
	<path fill-rule="evenodd" clip-rule="evenodd" fill="none" d="M36.196,65.557c-0.382-0.189-0.726-0.428-1.147-0.473
		c-0.213-0.021-0.148,0.137-0.123,0.266c0.027,0.139-0.008,0.258-0.182,0.275c-0.096,0.01-0.195,0.031-0.229-0.104
		c-0.107-0.459-0.446-0.322-0.721-0.246c-0.201,0.055-0.379,0.199-0.568,0.303c0-0.35-0.317-0.373-0.5-0.35
		c-0.393,0.047-0.74-0.15-1.121-0.121c-0.072,0.006-0.177-0.051-0.218,0.021c-0.258,0.449-0.511,0.242-0.827,0.053
		c-0.189-0.115-0.453-0.219-0.705-0.004c-0.166,0.141-0.383,0.088-0.604,0.078c-0.557-0.027-1.109-0.402-1.632-0.188
		c-0.417,0.17-0.707,0.025-1.055-0.074c-0.56-0.156-1.146-0.08-1.711-0.158c-1.094-0.15-2.197-0.119-3.292-0.223
		c-0.593-0.055-1.229-0.238-1.776-0.094c-0.704,0.182-1.397,0.242-2.099,0.229c-1.098-0.02-2.194-0.121-3.292-0.164
		c-0.712-0.027-1.429-0.049-2.138,0.002c-0.293,0.021-0.503-0.152-0.78-0.145c-1.05,0.031-2.094-0.072-3.125-0.273
		c-0.558-0.109-1.034-0.416-1.506-0.715c-0.357-0.227-0.719-0.416-1.152-0.43c-0.414-0.014-0.51-0.43-0.775-0.633
		c-0.464-0.352-0.708-0.914-1.229-1.232c-0.26-0.156-0.354-0.537-0.402-0.85c-0.105-0.666-0.167-1.338-0.081-2.02
		c0.032-0.248-0.045-0.508-0.068-0.762c-0.045-0.5,0.087-0.982,0.155-1.471c0.022-0.16,0.09-0.35,0.015-0.471
		c-0.365-0.582-0.041-1.184-0.094-1.77c-0.021-0.223,0.375-0.305,0.145-0.557c0.433-0.441,0.011-1.055,0.308-1.537
		c0.099-0.16,0.098-0.426,0.003-0.613c-0.156-0.309-0.141-0.59-0.072-0.928c0.193-0.924,0.065-1.867,0.063-2.805
		c0-0.246,0.212-0.549-0.118-0.756c-0.006-0.002-0.048-0.164,0.082-0.174c0.152-0.01,0.153-0.143,0.114-0.209
		c-0.445-0.729,0.312-1.336,0.188-2.066c-0.122-0.715-0.03-1.471-0.017-2.209c0.014-0.752,0.088-1.506,0.061-2.256
		c-0.07-1.91,0.024-3.82,0.051-5.728c0.009-0.594,0.041-1.226-0.001-1.8c-0.051-0.683,0.122-1.34,0.038-2.02
		c-0.055-0.446-0.001-0.934,0.02-1.401c0.045-0.981,0.086-1.963,0.04-2.94c-0.038-0.807,0.092-1.603,0.063-2.406
		c-0.048-1.321,0.077-2.64,0.04-3.964c-0.015-0.543,0.109-1.156,0.188-1.735c0.123-0.903,0.159-1.82,0.056-2.719
		c-0.112-0.983-0.262-1.95-0.226-2.951c0.016-0.432,0.223-0.855,0.046-1.321c-0.16-0.419,0.027-0.928-0.038-1.328
		c-0.111-0.694,0.252-1.358-0.01-2.036C4.145,7.12,4.246,6.786,4.336,6.59c0.319-0.687,0.593-1.396,1.15-1.97
		c1.04-1.07,2.335-1.48,3.746-1.527c1.641-0.053,3.282-0.157,4.932,0.053c1.397,0.178,2.822,0.117,4.23,0.23
		c1.586,0.128,3.167-0.045,4.75-0.039c1.893,0.005,3.781-0.244,5.679-0.204c0.782,0.016,1.568-0.008,2.349,0.046
		c0.898,0.063,1.795,0.046,2.687-0.018c1.026-0.073,2.048,0.004,3.071,0.006c1.771,0.002,3.543,0.006,5.311,0.094
		c1.439,0.07,2.881,0.156,4.319,0.309c0.628,0.066,1.116,0.328,1.665,0.519c0.26,0.091,0.545,0.113,0.814,0.202
		c0.824,0.272,0.99,0.969,1.092,1.686c0.051,0.358,0.05,0.713,0.165,1.071c0.085,0.264-0.032,0.587-0.034,0.884
		c-0.006,1.115-0.092,2.238,0.021,3.342c0.117,1.134,0.004,2.247-0.002,3.369c-0.004,0.541-0.164,1.074-0.097,1.596
		c0.102,0.77-0.14,1.533,0.058,2.307c0.164,0.642-0.088,1.297-0.082,1.952c0.008,0.85-0.094,1.702-0.057,2.55
		c0.016,0.368-0.109,0.713-0.184,1.015c-0.154,0.618,0.353,1.25-0.109,1.816c0.324,0.505-0.047,1.024,0.041,1.571
		c0.232,1.425,0.062,2.886,0.079,4.329c0.009,0.742-0.117,1.488-0.019,2.249c0.061,0.448,0.143,0.992,0.029,1.413
		c-0.185,0.688,0.152,1.32,0.008,1.98c-0.041,0.186,0.076,0.396-0.129,0.561c-0.054,0.045-0.074,0.199-0.041,0.271
		c0.326,0.727-0.092,1.439-0.071,2.168c0.013,0.48,0.06,1.039-0.086,1.551c-0.091,0.318,0.22,0.602,0.151,0.926
		c-0.147,0.682,0.107,1.391-0.037,2.035c-0.205,0.908-0.148,1.807-0.154,2.707c-0.006,0.701-0.16,1.375-0.229,2.059
		c-0.038,0.371,0.127,0.783-0.129,1.135c-0.049,0.068,0.004,0.15,0.082,0.197c0.117,0.074,0.134,0.232,0.088,0.301
		c-0.393,0.59-0.105,1.244-0.182,1.861c-0.092,0.73-0.07,1.475-0.109,2.209c-0.035,0.635-0.154,1.258-0.195,1.889
		c-0.07,1.092-0.18,2.184-0.32,3.264c-0.1,0.77-0.174,1.529-0.156,2.299c0.006,0.285-0.215,0.422-0.335,0.598
		c-0.701,1.016-1.697,1.502-2.933,1.58c-0.526,0.033-1.033,0.049-1.555-0.057c-0.516-0.104-0.93,0.283-1.41,0.385
		c-0.197,0.043-0.395,0.117-0.6,0.113c-0.489-0.008-0.984-0.127-1.449,0.143c-0.064,0.037-0.182,0.039-0.252,0.008
		c-0.693-0.322-1.42-0.207-2.145-0.201c-0.379,0.004-0.753-0.113-1.141-0.131C36.32,65.275,36.196,65.32,36.196,65.557z
		 M9.202,35.223c-0.267,0.082-0.464,0.068-0.454,0.291c0.017,0.385-0.123,0.752-0.11,1.143c0.026,0.824-0.015,1.646-0.126,2.465
		c-0.105,0.771-0.143,1.566-0.102,2.326c0.06,1.111,0.042,2.223,0.044,3.334c0.003,1.289-0.033,2.58-0.015,3.869
		c0.012,0.838-0.119,1.668-0.041,2.51c0.071,0.775,0.108,1.557-0.021,2.342c-0.052,0.318-0.062,0.66-0.133,0.979
		c-0.075,0.342,0.254,0.418,0.354,0.643c0.08,0.182,0.258-0.055,0.397-0.09C9.13,55,9.279,55.021,9.422,55.025
		c0.906,0.023,1.8,0.211,2.714,0.184c0.651-0.021,1.313-0.012,1.956,0.021c1.205,0.062,2.416,0.061,3.618,0.191
		c1.448,0.158,2.897,0.355,4.355,0.311c1.508-0.049,3.009-0.072,4.516,0.049c1.575,0.127,3.155,0.191,4.733,0.281
		c0.926,0.053,1.852,0.088,2.775,0.148c0.955,0.061,1.906,0.148,2.861,0.209c0.975,0.062,1.953,0.041,2.93,0.102
		c0.729,0.045,1.469-0.098,2.209-0.012c0.318,0.037,0.637,0.078,0.914-0.232c0.146-0.164,0.449-0.156,0.715-0.156
		c0.412-0.002,0.836,0.514,1.246-0.006c0.02-0.025,0.142,0.033,0.216,0.053c0.528,0.154,0.688,0.016,0.927-0.488
		c0.137-0.285-0.031-0.557,0.113-0.824c0.195-0.363,0.176-0.736-0.051-1.105c-0.067-0.107-0.091-0.348-0.024-0.408
		c0.208-0.193,0.104-0.418,0.14-0.627c0.09-0.539-0.418-1.131,0.146-1.627c0.013-0.014-0.001-0.062-0.009-0.094
		c-0.238-0.91-0.021-1.826,0.016-2.732c0.051-1.268,0.004-2.537,0.084-3.805c0.025-0.379-0.193-0.709-0.131-1.068
		c0.088-0.506,0.031-1.012,0.074-1.514c0.066-0.752-0.127-1.486-0.114-2.227c0.024-1.373,0.136-2.746,0.142-4.121
		c0.006-1.676-0.039-3.358-0.029-5.034c0.006-1.086,0.189-2.179,0.109-3.268c-0.057-0.739,0.07-1.46,0.119-2.185
		c0.055-0.835-0.098-1.646-0.109-2.47c-0.002-0.234,0.17-0.407,0.123-0.646c-0.152-0.772-0.049-1.555-0.027-2.331
		c0.033-1.186,0.204-2.362,0.26-3.543c0.059-1.288,0.08-2.579,0.125-3.87c0.016-0.426,0.257-0.798,0.215-1.249
		c-0.025-0.278-0.273-0.481-0.188-0.771c0.18-0.616,0.105-1.226-0.115-1.811c-0.133-0.354-0.254-0.863-0.666-0.874
		c-1.001-0.028-1.965-0.351-2.954-0.343c-2.72,0.022-5.434-0.089-8.149-0.191c-1.254-0.048-2.479-0.387-3.73-0.391
		c-5.165-0.017-10.33-0.007-15.495-0.007c-1.818,0-3.636,0.004-5.454-0.004C10.25,6.54,10.07,6.562,10.07,6.917
		c0,0.161-0.052,0.34-0.08,0.512C9.888,8.066,9.814,8.706,9.75,9.347c-0.048,0.484-0.148,1.002-0.282,1.468
		c-0.125,0.438,0.333,0.904-0.13,1.274c-0.034,0.028-0.036,0.16,0.114,0.111c0.135-0.045,0.124,0.018,0.106,0.15
		c-0.121,0.889-0.186,1.791-0.308,2.672c-0.124,0.889-0.014,1.761-0.09,2.64c-0.078,0.912,0.109,1.842-0.016,2.767
		c-0.105,0.784,0.034,1.573,0.03,2.359c-0.004,0.973-0.129,1.941-0.06,2.92c0.056,0.798-0.056,1.608-0.08,2.414
		c-0.011,0.374,0.121,0.725,0.022,1.128c-0.189,0.773-0.171,1.583-0.2,2.379c-0.031,0.862-0.056,1.726-0.098,2.587
		C8.745,34.54,8.501,35.001,9.202,35.223z M27.835,62.518c0.489-0.037,0.949-0.229,1.425-0.338c0.912-0.205,1.857-1.461,1.684-2.543
		c-0.156-0.965-0.404-1.928-1.057-2.697c-0.256-0.303-0.777-0.264-1.018-0.645c-0.01-0.016-0.093,0.027-0.136,0.016
		c-0.918-0.225-1.647,0.584-2.544,0.471c-0.023-0.004-0.05,0.037-0.077,0.053c-0.58,0.334-1.053,0.828-1.666,1.113
		c-0.079,0.039-0.155,0.127-0.188,0.213c-0.157,0.408-0.311,0.805-0.296,1.27c0.011,0.35,0.219,0.658,0.194,0.965
		c-0.042,0.52,0.182,0.844,0.535,1.141C25.6,62.297,26.66,62.584,27.835,62.518z"/>
	<path fill-rule="evenodd" clip-rule="evenodd" fill="#742C16" d="M9.202,35.223c-0.7-0.222-0.457-0.684-0.441-1.007
		c0.042-0.861,0.066-1.725,0.098-2.587c0.029-0.796,0.011-1.605,0.2-2.379c0.099-0.403-0.033-0.754-0.022-1.128
		c0.023-0.806,0.135-1.616,0.08-2.414c-0.069-0.979,0.056-1.947,0.06-2.92c0.004-0.786-0.136-1.575-0.03-2.359
		c0.125-0.925-0.062-1.854,0.016-2.767c0.076-0.879-0.033-1.751,0.09-2.64c0.123-0.881,0.188-1.783,0.308-2.672
		c0.018-0.133,0.028-0.195-0.106-0.15c-0.15,0.049-0.148-0.083-0.114-0.111c0.463-0.37,0.005-0.837,0.13-1.274
		c0.134-0.466,0.234-0.983,0.282-1.468c0.063-0.642,0.138-1.281,0.24-1.919c0.028-0.172,0.081-0.351,0.08-0.512
		c0-0.354,0.179-0.377,0.455-0.376c1.818,0.008,3.636,0.004,5.454,0.004c5.166,0,10.331-0.01,15.495,0.007
		c1.252,0.004,2.477,0.343,3.73,0.391c2.716,0.103,5.43,0.214,8.149,0.191c0.989-0.008,1.953,0.314,2.954,0.343
		c0.412,0.011,0.533,0.521,0.666,0.874c0.221,0.585,0.295,1.194,0.115,1.811c-0.086,0.29,0.162,0.493,0.188,0.771
		c0.042,0.451-0.199,0.823-0.215,1.249c-0.045,1.291-0.066,2.582-0.125,3.87c-0.056,1.181-0.227,2.357-0.26,3.543
		c-0.021,0.776-0.125,1.559,0.027,2.331c0.047,0.239-0.125,0.412-0.123,0.646c0.012,0.823,0.164,1.635,0.109,2.47
		c-0.049,0.725-0.176,1.445-0.119,2.185c0.08,1.089-0.104,2.182-0.109,3.268c-0.01,1.676,0.035,3.357,0.029,5.034
		c-0.006,1.375-0.117,2.748-0.142,4.121c-0.013,0.74,0.181,1.475,0.114,2.227c-0.043,0.502,0.014,1.008-0.074,1.514
		c-0.062,0.359,0.156,0.689,0.131,1.068c-0.08,1.268-0.033,2.537-0.084,3.805c-0.036,0.906-0.254,1.822-0.016,2.732
		c0.008,0.031,0.021,0.08,0.009,0.094c-0.563,0.496-0.056,1.088-0.146,1.627c-0.035,0.209,0.068,0.434-0.14,0.627
		c-0.066,0.061-0.043,0.301,0.024,0.408c0.227,0.369,0.246,0.742,0.051,1.105c-0.145,0.268,0.023,0.539-0.113,0.824
		c-0.238,0.504-0.398,0.643-0.927,0.488c-0.074-0.02-0.196-0.078-0.216-0.053c-0.41,0.52-0.834,0.004-1.246,0.006
		c-0.266,0-0.569-0.008-0.715,0.156c-0.277,0.311-0.596,0.27-0.914,0.232c-0.74-0.086-1.479,0.057-2.209,0.012
		c-0.977-0.061-1.955-0.039-2.93-0.102c-0.955-0.061-1.906-0.148-2.861-0.209c-0.924-0.061-1.85-0.096-2.775-0.148
		c-1.578-0.09-3.158-0.154-4.733-0.281c-1.507-0.121-3.008-0.098-4.516-0.049c-1.458,0.045-2.907-0.152-4.355-0.311
		c-1.202-0.131-2.413-0.129-3.618-0.191c-0.643-0.033-1.305-0.043-1.956-0.021c-0.914,0.027-1.808-0.16-2.714-0.184
		C9.279,55.021,9.13,55,8.996,55.033c-0.139,0.035-0.317,0.271-0.397,0.09c-0.1-0.225-0.429-0.301-0.354-0.643
		c0.07-0.318,0.081-0.66,0.133-0.979c0.129-0.785,0.093-1.566,0.021-2.342c-0.078-0.842,0.053-1.672,0.041-2.51
		c-0.019-1.289,0.018-2.58,0.015-3.869c-0.002-1.111,0.015-2.223-0.044-3.334c-0.041-0.76-0.004-1.555,0.102-2.326
		c0.111-0.818,0.152-1.641,0.126-2.465c-0.012-0.391,0.127-0.758,0.11-1.143C8.738,35.291,8.935,35.305,9.202,35.223z M44.36,17.708
		c0.011-0.24,0.089-0.462,0.015-0.61c-0.181-0.365-0.088-0.717-0.057-1.08c0.068-0.791,0.096-1.587,0.197-2.375
		c0.116-0.901,0.018-1.822,0.301-2.713c0.146-0.456,0.09-0.96,0.021-1.437c-0.053-0.362-0.309-0.614-0.67-0.682
		c-0.406-0.077-0.809-0.179-1.234-0.177c-3.748,0.011-7.497,0.023-11.245,0c-3.28-0.02-6.561,0.086-9.842-0.079
		c-1.312-0.066-2.616-0.22-3.926-0.277c-1.686-0.074-3.373,0.005-5.058,0.08c-0.219,0.009-0.577-0.075-0.632,0.077
		c-0.123,0.34-0.431,0.581-0.436,0.989c-0.017,1.249,0.038,2.495-0.126,3.746c-0.159,1.219-0.153,2.46-0.236,3.689
		c-0.084,1.238-0.137,2.476,0.058,3.709c0.024,0.152,0.07,0.285,0.035,0.461c-0.148,0.735-0.029,1.491-0.113,2.229
		c-0.065,0.574,0.312,1.104,0.087,1.671c0.327,0.236-0.012,0.51,0.033,0.778c0.078,0.456,0.053,0.938,0.012,1.403
		c-0.058,0.646-0.3,1.274-0.27,1.925c0.017,0.363,0.037,0.733,0.012,1.09c-0.035,0.5,0.193,0.976-0.095,1.524
		c-0.25,0.474-0.13,1.146-0.073,1.699c0.08,0.787-0.362,1.603,0.126,2.36c0.027,0.043,0.016,0.145-0.018,0.186
		c-0.183,0.227-0.117,0.471-0.102,0.727c0.047,0.818-0.106,1.627-0.157,2.439c-0.033,0.518-0.182,1.07-0.021,1.574
		c0.148,0.465,0.104,0.92,0.112,1.379c0.01,0.553-0.154,1.088-0.205,1.637c-0.028,0.303,0.095,0.549,0.072,0.838
		c-0.087,1.145-0.229,2.295-0.141,3.441c0.075,0.965,0.04,1.926-0.046,2.877c-0.062,0.693-0.083,1.367,0.021,2.051
		c0.016,0.104-0.029,0.223,0.133,0.266c0.521,0.131,0.998,0.367,1.576,0.355c2.493-0.047,4.978,0.195,7.46,0.369
		c2.614,0.186,5.228,0.367,7.847,0.377c4.745,0.02,9.49,0,14.235,0.014c0.687,0.004,1.319-0.176,1.961-0.363
		c0.092-0.025,0.16-0.018,0.168-0.166c0.03-0.617,0.039-1.256-0.015-1.846c-0.092-1.012,0.071-2.002,0.019-3.004
		c-0.039-0.768,0.032-1.553,0-2.316c-0.055-1.287,0.18-2.57-0.026-3.861c-0.044-0.281-0.048-0.629-0.013-0.939
		c0.123-1.059,0.129-2.115,0.061-3.176c-0.035-0.566-0.129-1.178-0.04-1.693c0.136-0.779-0.057-1.561,0.153-2.319
		c0.025-0.088-0.015-0.192-0.002-0.286c0.071-0.541-0.109-1.064-0.008-1.63c0.121-0.686,0.01-1.413,0-2.123
		c-0.006-0.354-0.08-0.804,0.003-1.038c0.132-0.382,0.091-0.758,0.189-1.12c0.116-0.431-0.183-0.837-0.077-1.264
		c0.07-0.281,0.023-0.559,0.012-0.84c-0.021-0.559-0.101-1.131-0.005-1.672c0.081-0.462,0.088-0.967,0.004-1.348
		c-0.14-0.636,0.081-1.244-0.062-1.881c-0.082-0.357-0.028-0.854,0.006-1.289c0.023-0.299,0.084-0.67-0.012-0.915
		c-0.163-0.409-0.129-0.72,0.092-1.056c0.047-0.071,0.072-0.135-0.002-0.211c-0.221-0.224-0.219-0.227-0.182-0.484
		C44.256,17.487,44.207,17.593,44.36,17.708z"/>
	<path fill-rule="evenodd" clip-rule="evenodd" fill="#742C16" d="M28.137,58.285c-0.323-0.066-0.661-0.092-1.004-0.102
		c-0.382-0.014-0.559,0.188-0.563,0.494c-0.004,0.336,0.28,0.193,0.486,0.219c0.227,0.027,0.573-0.111,0.666,0.096
		c0.165,0.367,0.217,0.789,0.281,1.193c0.023,0.146-0.143,0.15-0.254,0.129c-0.187-0.031-0.363-0.055-0.562-0.021
		c-0.6,0.105-0.777-0.09-0.672-0.695c0.013-0.078,0.066-0.15,0.068-0.227c0.008-0.24-0.101-0.459-0.296-0.559
		c-0.196-0.1-0.306,0.137-0.414,0.256c-0.229,0.252-0.261,0.58-0.238,0.9c0,0.004,0,0.006,0,0.006
		c0.006,0.012,0.014,0.018,0.019,0.029c0.101,0.252,0.273,0.48,0.483,0.67c0.104,0.016,0.192,0.072,0.257,0.199
		c0.036,0.025,0.071,0.049,0.108,0.07c0.046,0.006,0.101,0.002,0.138-0.006c0.439-0.094,0.881-0.154,1.332-0.164
		c0.088-0.002,0.206-0.039,0.256-0.104c0.133-0.158,0.255-0.217,0.374-0.174C29.077,59.693,28.799,58.787,28.137,58.285z"/>
	<path fill-rule="evenodd" clip-rule="evenodd" fill="#742C16" d="M30.943,59.637c-0.156-0.965-0.404-1.928-1.057-2.697
		c-0.256-0.303-0.777-0.264-1.018-0.645c-0.01-0.016-0.093,0.027-0.136,0.016c-0.918-0.225-1.647,0.584-2.544,0.471
		c-0.023-0.004-0.05,0.037-0.077,0.053c-0.58,0.334-1.053,0.828-1.666,1.113c-0.079,0.039-0.155,0.127-0.188,0.213
		c-0.157,0.408-0.311,0.805-0.296,1.27c0.011,0.35,0.219,0.658,0.194,0.965c-0.042,0.52,0.182,0.844,0.535,1.141
		c0.908,0.762,1.968,1.049,3.144,0.982c0.489-0.037,0.949-0.229,1.425-0.338C30.172,61.975,31.117,60.719,30.943,59.637z
		 M29.497,59.803c-0.011,0.064-0.003,0.146-0.051,0.184c-0.001,0.008-0.005,0.016-0.007,0.023c0.012,0.045,0.018,0.092,0.007,0.148
		c-0.042,0.213-0.116,0.414-0.211,0.605c0.011,0.014,0.019,0.031,0.021,0.061c0.007,0.186-0.178,0.369-0.363,0.461
		c0,0.002-0.002,0.002-0.004,0.002c-0.043,0.037-0.088,0.062-0.139,0.072c-0.348,0.182-0.695,0.373-1.067,0.477
		c-0.289,0.082-0.566-0.066-0.83-0.174c-0.076-0.023-0.151-0.045-0.225-0.074c-0.014-0.002-0.028-0.008-0.042-0.012
		c-0.265-0.049-0.432-0.17-0.563-0.314c-0.278-0.201-0.517-0.453-0.698-0.746c-0.022,0.01-0.036,0.021-0.06,0.029
		c-0.002-0.049-0.004-0.096-0.006-0.145c-0.045-0.084-0.089-0.166-0.125-0.256c-0.055-0.135,0.01-0.236,0.11-0.285
		c0.001-0.801,0.138-1.549,0.843-2.145c0.888-0.748,2.229-0.555,2.816,0.43c0.112,0.186,0.274,0.348,0.337,0.562
		c0.11,0.227,0.187,0.469,0.214,0.719C29.492,59.547,29.518,59.668,29.497,59.803z"/>
	<path fill-rule="evenodd" clip-rule="evenodd" fill="none" d="M44.36,17.708c-0.153-0.114-0.104-0.221-0.124-0.31
		c-0.037,0.258-0.039,0.261,0.182,0.484c0.074,0.076,0.049,0.14,0.002,0.211c-0.221,0.336-0.255,0.646-0.092,1.056
		c0.096,0.245,0.035,0.616,0.012,0.915c-0.034,0.435-0.088,0.932-0.006,1.289c0.143,0.637-0.078,1.245,0.062,1.881
		c0.084,0.381,0.077,0.886-0.004,1.348c-0.096,0.541-0.017,1.113,0.005,1.672c0.012,0.281,0.059,0.559-0.012,0.84
		c-0.105,0.427,0.193,0.833,0.077,1.264c-0.099,0.362-0.058,0.738-0.189,1.12c-0.083,0.234-0.009,0.685-0.003,1.038
		c0.01,0.71,0.121,1.438,0,2.123c-0.102,0.565,0.079,1.089,0.008,1.63c-0.013,0.094,0.027,0.198,0.002,0.286
		c-0.21,0.758-0.018,1.54-0.153,2.319c-0.089,0.516,0.005,1.127,0.04,1.693c0.068,1.061,0.062,2.117-0.061,3.176
		c-0.035,0.311-0.031,0.658,0.013,0.939c0.206,1.291-0.028,2.574,0.026,3.861c0.032,0.764-0.039,1.549,0,2.316
		c0.053,1.002-0.11,1.992-0.019,3.004c0.054,0.59,0.045,1.229,0.015,1.846c-0.008,0.148-0.076,0.141-0.168,0.166
		c-0.642,0.188-1.274,0.367-1.961,0.363c-4.745-0.014-9.49,0.006-14.235-0.014c-2.62-0.01-5.233-0.191-7.847-0.377
		c-2.483-0.174-4.967-0.416-7.46-0.369c-0.578,0.012-1.054-0.225-1.576-0.355c-0.163-0.043-0.117-0.162-0.133-0.266
		c-0.104-0.684-0.083-1.357-0.021-2.051c0.086-0.951,0.121-1.912,0.046-2.877c-0.088-1.146,0.054-2.297,0.141-3.441
		c0.022-0.289-0.1-0.535-0.072-0.838c0.051-0.549,0.215-1.084,0.205-1.637c-0.007-0.459,0.037-0.914-0.112-1.379
		c-0.161-0.504-0.013-1.057,0.021-1.574c0.051-0.812,0.205-1.621,0.157-2.439c-0.015-0.256-0.081-0.5,0.102-0.727
		c0.034-0.041,0.045-0.143,0.018-0.186c-0.488-0.757-0.046-1.573-0.126-2.36c-0.057-0.553-0.176-1.226,0.073-1.699
		c0.289-0.549,0.061-1.024,0.095-1.524c0.025-0.356,0.005-0.727-0.012-1.09c-0.031-0.65,0.212-1.278,0.27-1.925
		c0.041-0.465,0.066-0.947-0.012-1.403c-0.045-0.269,0.294-0.542-0.033-0.778c0.226-0.567-0.152-1.097-0.087-1.671
		c0.084-0.737-0.035-1.493,0.113-2.229c0.036-0.176-0.011-0.309-0.035-0.461c-0.195-1.233-0.143-2.471-0.058-3.709
		c0.083-1.229,0.078-2.471,0.236-3.689c0.164-1.251,0.109-2.497,0.126-3.746c0.005-0.408,0.313-0.649,0.436-0.989
		c0.055-0.152,0.413-0.068,0.632-0.077c1.685-0.075,3.372-0.154,5.058-0.08c1.311,0.058,2.615,0.211,3.926,0.277
		c3.281,0.165,6.562,0.06,9.842,0.079c3.748,0.023,7.497,0.011,11.245,0c0.426-0.002,0.828,0.1,1.234,0.177
		c0.361,0.067,0.617,0.319,0.67,0.682c0.068,0.477,0.125,0.98-0.021,1.437c-0.283,0.891-0.185,1.812-0.301,2.713
		c-0.102,0.788-0.129,1.584-0.197,2.375c-0.031,0.363-0.124,0.715,0.057,1.08C44.449,17.246,44.371,17.467,44.36,17.708z"/>
	<path fill="none" d="M27.137,57.285c0.943,0.074,1.733,0.656,2.104,1.422c-0.062-0.215-0.225-0.377-0.337-0.562
		c-0.588-0.984-1.928-1.178-2.816-0.43c-0.705,0.596-0.842,1.344-0.843,2.145c0.126-0.062,0.307-0.037,0.389,0.115
		c0,0,0-0.002,0-0.006c-0.022-0.32,0.01-0.648,0.238-0.9c0.108-0.119,0.218-0.355,0.414-0.256c0.195,0.1,0.304,0.318,0.296,0.559
		c-0.002,0.076-0.056,0.148-0.068,0.227c-0.105,0.605,0.072,0.801,0.672,0.695c0.198-0.033,0.375-0.01,0.562,0.021
		c0.112,0.021,0.278,0.018,0.254-0.129c-0.064-0.404-0.116-0.826-0.281-1.193c-0.093-0.207-0.438-0.068-0.666-0.096
		c-0.206-0.025-0.49,0.117-0.486-0.219c0.004-0.307,0.181-0.508,0.563-0.494c0.343,0.01,0.681,0.035,1.004,0.102
		c-0.275-0.211-0.617-0.352-1-0.383C26.743,57.871,26.739,57.252,27.137,57.285z"/>
	<path fill-rule="evenodd" clip-rule="evenodd" fill="none" d="M28.412,60.924c0.031-0.043,0.061-0.088,0.09-0.131
		c-0.012-0.064-0.004-0.133,0.045-0.205c0.021-0.029,0.035-0.061,0.054-0.092c-0.119-0.043-0.241,0.016-0.374,0.174
		c-0.051,0.064-0.168,0.102-0.256,0.104c-0.451,0.01-0.893,0.07-1.332,0.164c-0.038,0.008-0.092,0.012-0.138,0.006
		c0.242,0.143,0.507,0.24,0.771,0.27c0.339,0.041,0.343,0.58,0,0.537c-0.143-0.016-0.282-0.049-0.418-0.088
		c0.264,0.107,0.542,0.256,0.83,0.174c0.372-0.104,0.719-0.295,1.067-0.477C28.508,61.408,28.23,61.172,28.412,60.924z"/>
</g>
</svg>
