<?xml version="1.0" encoding="utf-8"?>
<!-- Generator: Adobe Illustrator 16.0.0, SVG Export Plug-In . SVG Version: 6.00 Build 0)  -->
<!DOCTYPE svg PUBLIC "-//W3C//DTD SVG 1.1//EN" "http://www.w3.org/Graphics/SVG/1.1/DTD/svg11.dtd">
<svg version="1.1" id="Layer_1" xmlns="http://www.w3.org/2000/svg" xmlns:xlink="http://www.w3.org/1999/xlink" x="0px" y="0px"
	 width="714.667px" height="194px" viewBox="0 0 714.667 194" enable-background="new 0 0 714.667 194" xml:space="preserve">
<g>
	<defs>
		<rect id="SVGID_1_" x="2.883" y="3.2" width="709.104" height="188"/>
	</defs>
	<clipPath id="SVGID_2_">
		<use xlink:href="#SVGID_1_"  overflow="visible"/>
	</clipPath>
	<path clip-path="url(#SVGID_2_)" fill="#FFEC00" d="M97.696,104.85C91.003,84.355,86.574,62.064,84.41,37.978
		c-15.314,4.194-26.188,8.271-32.624,12.226c8.339,3.54,15.5,9.476,21.474,17.81c4.517,6.347,8.594,14.698,12.249,25.056
		c2.76,8.038,5.438,16.034,8.034,23.985c-7.28-3.605-15.502-11.549-24.659-23.819c-9.155-12.265-18.349-24.63-27.571-37.089
		c-3.421,0.324-6.721,1.023-9.895,2.089l-8.983,3.028c-10.752,3.618-17.268,6.71-19.552,9.263c5.752-0.554,11.666,1.859,17.74,7.248
		c3.848,3.529,6.987,7.36,9.418,11.499c7.252,12.298,12.841,24.462,16.767,36.492c7.415,22.705,8.887,44.52,4.422,65.435
		c3.866-0.197,9.159-1.43,15.881-3.693c4.394-1.479,12.745-4.771,25.051-9.879c-17.228-9.211-30.17-27.094-38.839-53.646
		c-2.023-6.2-3.847-13.023-5.461-20.468c0.124-0.039,1.243,0.479,3.356,1.555c21.935,23.604,39.682,45.791,53.243,66.562
		c5.692-0.814,9.763-1.633,12.209-2.457c6.352-2.137,10.405-5.709,12.158-10.713C116.219,147.682,105.844,129.814,97.696,104.85
		 M182.256,110.699c-0.284-1.501-0.717-2.915-1.298-4.243c-2.856,15.598-7.563,24.037-14.119,25.316
		c-4.865,0.953-8.687-2.138-11.463-9.266c-1.081-2.795-2.421-8.426-4.027-16.898c-0.896-4.719,0.828-7.502,5.171-8.353
		c4.768-0.93,10.16,0.292,16.179,3.661c-0.414-3.91-0.631-5.922-0.648-6.029c-0.245-1.285-1.041-5.174-2.379-11.68
		c-1.089-4.666-1.832-8.575-2.221-11.713c-0.972,0.635-3.214,3.178-6.728,7.637c-2.544,3.273-5.711,5.278-9.496,6.016
		c-0.841,0.167-1.669,0.107-2.486-0.175c-1.385-2.709-2.674-7.204-3.866-13.484c-1.192-6.279-1.518-11.46-0.982-15.54l3.157-0.614
		c3.886-0.76,7.347-0.616,10.383,0.428c1.527,0.575,3.602,1.749,6.23,3.53c1.898,1.381,3.488,1.998,4.77,1.856l-0.272-1.431
		c-0.562-2.966-1.546-7.001-2.953-12.11c-1.654-5.825-2.732-9.789-3.238-11.889c-14.498,3.611-30.989,7.947-49.476,13.001
		c7.494,7.176,12.519,13.174,15.076,17.99c2.83,5.101,5.217,12.776,7.159,23.033c3.729,19.659,3.491,42.086-0.709,67.282
		l3.663-0.551c11.684-1.73,27.712-5.059,48.083-9.978c0.676-0.467,0.915-1.509,0.717-3.14
		C183.848,122.549,182.439,111.663,182.256,110.699 M232.433,122.938c-3.87,7.02-7.95,10.492-12.239,10.42
		c-2.683-0.045-4.489-1.666-5.419-4.86c-0.557-4.278-0.99-7.968-1.297-11.062c-0.408-2.368-0.434-14.497-0.078-36.386
		c0.074-4.632,0.613-10.21,1.614-16.737c1.095-6.977,2.003-10.461,2.718-10.449c-13.784,0.952-22.821,1.389-27.112,1.317
		c4.748,4.987,7.958,10.947,9.634,17.877c1.342,5.383,1.945,12.25,1.811,20.607c-0.312,18.979-4.443,36.717-12.398,53.208
		c2.405,0.497,4.591,0.761,6.558,0.793c3.218,0.053,9.656,0.069,19.311,0.051c8.047-0.046,14.528,0.019,19.443,0.19
		c0.108-1.091,0.394-4.942,0.858-11.562c0.361-5.622,0.732-9.202,1.115-10.739c1.151-4.794,1.307-8.785,0.464-11.978
		C235.11,117.674,233.452,120.778,232.433,122.938 M283.246,131.342c-4.648,6.11-9.005,8.824-13.067,8.143
		c-2.542-0.425-4.034-2.221-4.474-5.385c0.064-4.139,0.164-7.697,0.3-10.675c-0.059-2.306,1.594-13.813,4.966-34.525
		c0.713-4.382,1.995-9.597,3.851-15.644c2.004-6.461,3.348-9.633,4.025-9.521c-13.221-1.067-21.864-1.947-25.927-2.627
		c3.817,5.411,6.041,11.524,6.673,18.341c0.528,5.3,0.149,11.905-1.138,19.813c-2.923,17.965-9.304,34.204-19.146,48.714
		c2.216,0.811,4.257,1.374,6.119,1.689c3.048,0.509,9.158,1.446,18.33,2.808c7.648,1.104,13.795,2.093,18.439,2.96
		c0.251-1.016,1.058-4.637,2.42-10.861c1.121-5.291,1.971-8.641,2.547-10.049c1.756-4.389,2.456-8.16,2.102-11.314
		C286.518,126.725,284.512,129.438,283.246,131.342 M362.609,91.414c-1.597-0.436-5.009-1.229-10.246-2.381
		c-4.241-0.914-7.656-1.853-10.252-2.814c-0.892-0.326-1.638-0.282-2.236,0.131c1.219,3.388,1.304,7.045,0.258,10.968
		c-0.225,0.847-1.116,3.121-2.67,6.823c-2.132,4.946-3.917,8.132-5.355,9.554c-0.518-3.861-1.04-7.725-1.562-11.586
		c-0.932-6.288-2.306-11.378-4.123-15.262c-2.594-5.258-6.158-8.552-10.694-9.878c-3.569-0.981-7.278-0.676-11.124,0.915
		c-4.061,1.781-6.668,4.536-7.824,8.27c-1.974,6.489-1.919,11.796,0.162,15.922c1.69,3.443,4.613,5.777,8.77,6.999
		c2.335,0.724,4.647,0.302,6.937-1.267c2.291-1.571,3.757-3.553,4.397-5.949c1.688-6.337,0.113-10.214-4.728-11.627
		c-1.596-0.437-3.057-0.3-4.389,0.415c-1.33,0.715-2.189,1.805-2.579,3.27c-0.496,1.858-0.221,3.881,0.823,6.078
		c-2.019-2.126-3.122-4.043-3.313-5.752c-0.128-1.03-0.068-2.007,0.178-2.934c0.574-2.159,2.091-3.73,4.55-4.711
		c2.036-0.93,3.84-1.137,5.413-0.625c3.218,1.05,5.431,3.892,6.638,8.523l1.412,9.818c0.807,5.518,0.805,11.64-0.01,18.363
		l-0.335,2.641c-0.518,4.076-1.012,7.002-1.483,8.775c-1.058,3.35-2.113,6.702-3.167,10.051c-1.505,5.046-2.674,8.365-3.505,9.957
		c-1.566,3.125-3.876,5.676-6.93,7.652c2.08,1.066,7.289,2.62,15.631,4.662c8.642,2.127,13.711,2.979,15.208,2.562l-0.787-3.938
		c-2.106-3.721-3.232-7.752-3.379-12.092c-0.006-1.822,0.333-5.7,1.018-11.635c0.804-6.393,2.348-11.721,4.621-15.977
		c1.736-3.161,5.685-8.654,11.845-16.475c6.741-8.49,11.466-13.686,14.174-15.59C363.814,92.245,363.369,91.625,362.609,91.414
		 M400.759,108.855c3.134-0.237,6.043,0.183,8.722,1.263c1.71,0.75,3.407,1.826,5.085,3.221c1.428,1.177,2.258,1.756,2.491,1.736
		l0.353-0.027c-1.184-8.562-2.089-14.941-2.716-19.144l-1.999,0.153c-3.37,0.257-9.577,1.093-18.62,2.503
		c-9.975,1.563-15.452,2.701-16.423,3.416c3.134,1.845,5.262,3.966,6.387,6.366c3.48,7.588,5.591,16.402,6.335,26.443
		c1.291,17.455,0.064,32.895-3.676,46.324c2.591-0.195,5.288-0.485,8.101-0.873c2.812-0.388,4.729-0.619,5.746-0.697
		c2.98-0.227,6.932-0.123,11.855,0.302c-0.046-0.624-0.377-1.38-0.996-2.272c-0.524-0.682-1.051-1.404-1.58-2.167
		c-4.318-7.213-7.188-18.265-8.605-33.159c0.057-1.367,1.34-2.147,3.855-2.34c3.211-0.245,7.312,1.324,12.297,4.709
		c-1.113-9.688-1.889-16.957-2.324-21.812c-1.131,1.772-3.031,3.54-5.703,5.308c-2.671,1.77-4.907,2.719-6.709,2.857l-0.825,0.061
		c-1.011-1.924-1.761-6.156-2.24-12.697c-0.331-4.465-0.21-7.602,0.366-9.412L400.759,108.855z M465.521,124.202
		c-9.005-10.146-15.262-18.297-18.773-24.457c-1.006-1.759-2.897-5.555-5.685-11.384l-5.266,2.719
		c-2.485,1.293-5.604,3.212-9.359,5.759c-4.399,3.008-7.082,5.258-8.052,6.749c7.434-1.521,13.834,2.427,19.208,11.841
		c4.438,7.783,7.934,15.576,10.483,23.38c3.82,11.921,3.437,19.231-1.148,21.929c-2.294,1.35-4.586,1.4-6.869,0.151
		c-1.885-0.982-3.523-2.696-4.917-5.137c-1.323-2.315-2.05-4.815-2.183-7.499c-0.176-3.326,0.813-5.625,2.964-6.891
		c3.137-1.846,6.005-0.48,8.616,4.09c0.928,1.627,1.539,3.274,1.837,4.938c0.433,2.337,0.007,3.884-1.278,4.642
		c-0.86,0.506-2.014,0.559-3.473,0.155c3.664-1.487,4.494-3.988,2.486-7.506c-0.824-1.444-1.938-2.677-3.342-3.7
		c-1.729-1.162-3.207-1.384-4.435-0.66c-1.35,0.795-1.926,2.52-1.725,5.169c0.142,2.267,0.644,4.153,1.501,5.659
		c1.149,2.012,2.647,3.48,4.497,4.406c2.057,1.141,4.04,1.145,5.96,0.018c1.854-1.09,2.698-3.593,2.529-7.508
		c-0.129-3.266-0.764-5.901-1.908-7.906c-1.321-2.316-3.225-4.207-5.704-5.672c-2.884-1.73-5.436-1.941-7.655-0.639
		c-3.143,1.85-4.854,5.199-5.138,10.046c-0.279,4.265,0.506,8.024,2.36,11.276c2.537,4.445,5.828,8.113,9.873,11
		c5.022,3.736,9.449,4.471,13.289,2.213c3.402-2,5.33-4.854,5.776-8.559c0.358-2.562-0.029-6.067-1.165-10.523
		c-1.284-5.287-1.968-8.582-2.045-9.881c1.837-1.414,2.633-2.049,2.385-1.902c2.844-1.674,5.244-0.808,7.191,2.605
		c1.188,2.088,1.891,4.584,2.106,7.498c0.215,2.91-0.226,5.364-1.317,7.358c1.14,0.259,2.946-0.339,5.42-1.795
		c5.385-3.169,8.523-5.058,9.416-5.667c4.807-3.162,6.762-5.314,5.857-6.467C482.96,142.141,475.523,135.524,465.521,124.202
		 M456.318,132.045c-1.92,1.13-3.072,1.639-3.463,1.535c-0.391-0.104-0.817-0.567-1.285-1.384c-0.787-1.38-1.747-3.496-2.881-6.351
		c-1.134-2.857-2.074-4.942-2.826-6.262c1.089,0.029,2.956,1.488,5.596,4.379c2.328,2.488,3.887,4.42,4.678,5.801
		C456.812,130.958,456.873,131.718,456.318,132.045 M501.95,80.154c-7.797-9.006-14.822-19.429-21.074-31.271
		c-6.935,5.516-11.628,9.994-14.075,13.434c5.02-0.026,9.949,1.435,14.783,4.38c3.665,2.252,7.536,5.624,11.617,10.116
		c3.125,3.502,6.201,7.002,9.227,10.499c-4.492-0.242-10.391-2.491-17.696-6.753c-7.306-4.26-14.647-8.558-22.024-12.903
		c-1.682,0.921-3.219,2.003-4.613,3.25l-3.949,3.525c-4.728,4.22-7.403,7.233-8.025,9.044c2.85-1.575,6.41-1.663,10.692-0.258
		c2.73,0.946,5.163,2.206,7.294,3.785c6.347,4.678,11.809,9.661,16.39,14.953c8.64,9.981,14.015,20.849,16.127,32.597
		c1.934-0.954,4.378-2.747,7.329-5.386c1.933-1.725,5.504-5.25,10.705-10.572c-10.71-0.979-21.112-7.303-31.215-18.975
		c-2.359-2.726-4.751-5.815-7.166-9.265c0.054-0.048,0.732-0.027,2.043,0.059c16.236,7.263,30.037,14.721,41.399,22.37
		c2.727-1.664,4.628-2.975,5.696-3.929c2.78-2.479,4.082-5.188,3.904-8.131C520.572,97.985,511.449,91.128,501.95,80.154
		 M552,49.592c-3.945-5.823-8.729-10.745-14.343-14.769c-7.062-4.998-13.215-6.577-18.458-4.743
		c-2.824,1.021-5.665,2.767-8.523,5.238c-6.225,5.463-9.268,9.102-9.136,10.912c4.098,1.353,7.613,3.74,10.557,7.165
		c2.108,2.423,6.341,8.328,12.698,17.71c6.613,9.761,9.555,18.749,8.823,26.963c6.946-1.515,12.673-3.844,17.182-6.995
		c5.994-4.188,9.361-8.847,10.108-13.976c0.6-4.075-0.282-9.18-2.641-15.317C556.462,57.161,554.375,53.097,552,49.592
		 M549.038,78.107c-0.06,0.836-0.753,1.719-2.076,2.644c-0.319,0.221-1.029,0.558-2.13,1.009c-1.636-4.74-3.232-8.435-4.791-11.085
		c-3.925-6.48-11.413-16.198-22.472-29.148l-0.582-1.382c-0.048-1,0.264-1.695,0.938-2.088c2.312-1.453,5.6-0.135,9.865,3.959
		c2.143,2.006,4.674,4.928,7.595,8.774c5.081,6.628,8.502,11.59,10.269,14.892C548.155,70.295,549.283,74.436,549.038,78.107
		 M600.285,37.529c-5.686-9.303-9.479-16.637-11.389-22.002c-0.543-1.531-1.495-4.804-2.849-9.815l-4.526,1.381
		c-2.137,0.66-4.865,1.723-8.176,3.185c-3.884,1.737-6.311,3.124-7.281,4.158c6.045-0.11,10.531,3.945,13.454,12.166
		c2.415,6.798,4.094,13.466,5.024,20.001c1.364,9.973,0.061,15.685-3.907,17.139c-1.983,0.729-3.792,0.424-5.418-0.909
		c-1.349-1.063-2.403-2.669-3.17-4.819c-0.724-2.038-0.954-4.134-0.69-6.29c0.323-2.671,1.426-4.352,3.303-5.042
		c2.736-1,4.812,0.496,6.239,4.498c0.505,1.425,0.758,2.821,0.753,4.184c0.01,1.917-0.552,3.086-1.686,3.501
		c-0.758,0.278-1.686,0.154-2.786-0.368c3.143-0.66,4.171-2.519,3.082-5.578c-0.448-1.257-1.152-2.388-2.114-3.395
		c-1.199-1.166-2.334-1.552-3.405-1.16c-1.175,0.432-1.87,1.706-2.087,3.824c-0.205,1.805-0.072,3.365,0.393,4.675
		c0.623,1.75,1.6,3.12,2.932,4.112c1.464,1.194,3.033,1.483,4.713,0.866c1.625-0.596,2.643-2.458,3.062-5.588
		c0.356-2.608,0.222-4.792-0.403-6.548c-0.721-2.027-1.966-3.803-3.729-5.327c-2.044-1.791-4.041-2.333-5.983-1.618
		c-2.754,1.011-4.588,3.42-5.493,7.228c-0.827,3.345-0.732,6.444,0.282,9.296c1.384,3.896,3.476,7.288,6.266,10.17
		c3.443,3.7,6.835,4.938,10.171,3.714c2.959-1.083,4.87-3.059,5.738-5.926c0.638-1.971,0.817-4.801,0.54-8.49
		c-0.275-4.368-0.357-7.073-0.238-8.11c1.643-0.853,2.355-1.236,2.142-1.157c2.472-0.908,4.238,0.12,5.297,3.09
		c0.645,1.815,0.849,3.885,0.608,6.211c-0.236,2.322-0.925,4.191-2.063,5.604c0.858,0.369,2.368,0.158,4.519-0.632
		c4.681-1.717,7.416-2.75,8.203-3.1c4.227-1.797,6.066-3.218,5.513-4.256C611.538,54.194,606.589,47.901,600.285,37.529
		 M591.983,42.396c-1.671,0.612-2.651,0.85-2.944,0.71s-0.565-0.563-0.815-1.273c-0.431-1.202-0.888-3.007-1.38-5.418
		c-0.492-2.407-0.945-4.188-1.352-5.335c0.855,0.182,2.12,1.599,3.793,4.253c1.484,2.295,2.443,4.041,2.872,5.241
		C592.523,41.613,592.464,42.217,591.983,42.396 M647.593,3.198c-6.166,0.209-10.639,0.773-13.421,1.689
		c2.847,2.092,5.04,4.983,6.574,8.676c1.152,2.811,1.973,6.34,2.448,10.588c0.345,3.292,0.66,6.562,0.947,9.806
		c-2.439-2.022-4.859-5.769-7.257-11.241c-2.396-5.47-4.794-10.98-7.197-16.53c-1.324-0.185-2.636-0.218-3.933-0.099l-3.663,0.334
		c-4.387,0.402-7.124,0.986-8.21,1.748c2.25,0.309,4.299,1.753,6.145,4.339c1.159,1.683,2.02,3.416,2.584,5.203
		c1.682,5.311,2.742,10.42,3.182,15.332c0.822,9.271-0.559,17.669-4.146,25.196c1.481,0.271,3.594,0.284,6.336,0.032
		c1.797-0.164,5.244-0.659,10.352-1.484c-5.675-5.047-8.992-12.991-9.953-23.834c-0.227-2.53-0.32-5.278-0.283-8.247
		c0.05-0.005,0.429,0.293,1.132,0.891c6.228,10.916,11.001,20.917,14.312,30.003c2.222,0.206,3.829,0.265,4.824,0.171
		c2.583-0.235,4.423-1.22,5.521-2.956c-3.831-5.218-6.201-12.918-7.104-23.104C646.037,21.352,646.309,12.515,647.593,3.198
		 M674.314,38.234c1.134,0.309,2.097,1.312,2.883,3.007c0.785,1.696,1.113,3.202,0.98,4.517c-0.109,1.083-0.623,1.978-1.535,2.691
		c-1.38,1.09-2.575,1.583-3.596,1.479c-2.782-0.291-4.564-2.829-5.343-7.61c-0.569-3.196-0.647-6.792-0.245-10.788
		c0.438-4.324,1.834-8.382,4.184-12.176c0.501-0.799,1.283-1.598,2.35-2.39c1.512-1.073,2.963-1.543,4.354-1.396
		c1.667,0.175,2.942,1.044,3.812,2.605c0.797,1.369,1.109,2.921,0.934,4.663c-0.157,1.551-0.729,3.059-1.713,4.525
		c-1.104,1.69-2.365,2.462-3.789,2.313c-0.738-0.077-1.367-0.521-1.891-1.336c-0.521-0.815-0.742-1.622-0.66-2.42
		c0.057-0.564,0.283-0.989,0.686-1.281c-0.086,1.748,0.587,2.695,2.013,2.844c0.64,0.067,1.276-0.269,1.908-1.012
		c0.63-0.739,1.038-1.575,1.227-2.503c0.263-1.205,0.163-2.402-0.297-3.587c-0.462-1.187-1.175-1.832-2.14-1.934
		c-1.289-0.134-2.479,0.62-3.572,2.259c-0.935,1.422-1.473,2.838-1.615,4.247c-0.165,1.642,0.176,3.195,1.03,4.661
		c0.851,1.466,2.083,2.282,3.696,2.45c2.025,0.213,3.828-1.029,5.408-3.726c1.338-2.194,2.117-4.399,2.344-6.614
		c0.33-3.254-0.087-6.084-1.244-8.494c-1.354-2.811-3.506-4.369-6.467-4.676c-4.994-0.521-9.379,2.42-13.159,8.822
		c-3.044,5.148-4.854,10.569-5.429,16.258c-0.538,5.315-0.052,10.191,1.461,14.624c1.939,5.767,5.203,8.885,9.781,9.362l0.692,0.073
		c1.343,0.092,2.601-0.083,3.767-0.527c1.414-0.607,2.855-1.234,4.324-1.886c1.346,2.418,2.486,4.079,3.425,4.985l0.188-1.189
		c1.557-9.85,3.715-18.711,6.476-26.586c-1.868,1.374-4.458,2.506-7.771,3.393C677.932,36.857,675.446,37.64,674.314,38.234
		 M711.772,33.839c-0.534-4.998-2.048-7.816-4.546-8.452c-3.33-0.849-6.529,0.973-9.592,5.467c-2.32,3.41-3.987,7.176-5.004,11.293
		c-0.888,3.588-1.106,7.442-0.647,11.562c0.587,5.385,2.37,8.46,5.353,9.22c1.943,0.494,3.717,0.104,5.322-1.167
		c0.869-0.679,1.877-1.859,3.031-3.548c1.459-2.172,2.43-3.701,2.904-4.592c0.816-1.661,1.57-3.881,2.26-6.66
		C711.939,42.562,712.247,38.188,711.772,33.839 M709.005,41.39l-0.303,1.218l-0.502-1.322c-0.466-1.255-1.289-2.031-2.471-2.333
		c-1.387-0.354-2.702,0.078-3.948,1.297c-1.242,1.219-2.128,2.827-2.659,4.827c-0.46,1.719-0.561,3.247-0.299,4.586
		c0.334,1.809,1.26,2.869,2.775,3.18c1.161,0.26,2.178-0.171,3.046-1.287c0.696-0.864,1.231-2.048,1.604-3.551
		c0.743-3.159,0.3-4.964-1.327-5.416c-0.759-0.231-1.471-0.011-2.139,0.66c-0.663,0.67-1.105,1.445-1.324,2.324
		c-0.207,0.845-0.164,1.62,0.125,2.33c0.291,0.709,0.84,1.166,1.646,1.373c0.456,0.116,0.754,0.192,0.895,0.228
		c-0.531,1.088-1.218,1.507-2.058,1.255c-0.557-0.181-0.992-0.786-1.301-1.818c-0.312-1.031-0.324-2.11-0.046-3.235
		c0.817-3.303,2.329-4.694,4.535-4.168c1.012,0.258,1.645,1.3,1.899,3.127c0.191,1.623,0.038,3.213-0.455,4.774
		c-0.499,1.561-1.268,3.032-2.308,4.414c-1.34,1.833-2.633,2.591-3.881,2.272c-3.297-0.84-3.949-5.352-1.965-13.537
		c0.707-2.854,1.828-5.454,3.363-7.797c1.701-2.563,3.246-3.668,4.632-3.316c1.348,0.345,2.226,1.787,2.63,4.328
		C709.469,37.867,709.413,39.73,709.005,41.39"/>
</g>
</svg>
