<?xml version="1.0" encoding="utf-8"?>
<!-- Generator: Adobe Illustrator 16.0.0, SVG Export Plug-In . SVG Version: 6.00 Build 0)  -->
<!DOCTYPE svg PUBLIC "-//W3C//DTD SVG 1.1//EN" "http://www.w3.org/Graphics/SVG/1.1/DTD/svg11.dtd">
<svg version="1.1" id="Layer_1" xmlns="http://www.w3.org/2000/svg" xmlns:xlink="http://www.w3.org/1999/xlink" x="0px" y="0px"
	 width="59.5px" height="68.25px" viewBox="0 0 59.5 68.25" enable-background="new 0 0 59.5 68.25" xml:space="preserve">
<g>
	<path fill="none" d="M35.502,3.054c2.034-0.136,4.066-0.086,6.099-0.126c1.378-0.027,2.74,0.209,4.121,0.106
		c1.087-0.083,1.847,0.66,2.503,1.376c0.889,0.967,1.889,1.805,2.83,2.707c0.686,0.656,1.279,1.406,1.969,2.041
		c0.605,0.553,1.042,1.273,1.764,1.713c0.242,0.145,0.459,0.41,0.626,0.643c0.737,1.029,1.489,2.027,2.618,2.674
		c0.26,0.147,0.38,0.489,0.373,0.743c-0.01,0.417,0.096,0.796,0.198,1.179c0.124,0.465,0.101,0.893-0.134,1.322
		c-0.264,0.48-0.176,1.043-0.28,1.562c-0.323,1.612-0.509,3.242-1.487,4.651c-1.251,1.8-2.533,3.581-3.992,5.217
		c-1.666,1.866-3.193,3.853-4.919,5.67c-1.079,1.137-1.981,2.439-3.034,3.602c-1.319,1.455-2.578,2.96-3.854,4.45
		c-1.085,1.268-2.152,2.551-3.221,3.831c-1.054,1.264-2.033,2.591-3.146,3.811c-0.761,0.834-1.378,1.81-2.179,2.611
		c-0.705,0.705-1.285,1.534-2.098,2.136c-0.19,0.14-0.383,0.349-0.334,0.607c0.033,0.175-0.072,0.18-0.147,0.248
		c-0.884,0.812-1.806,1.576-2.746,2.322c-0.367,0.292-0.745,0.604-0.98,1.055c-0.19,0.365-0.512,0.612-0.971,0.382
		c-0.068-0.034-0.119-0.103-0.19-0.025c-0.39,0.425-1.062,0.312-1.442,0.76c-0.034,0.04-0.097,0.062-0.15,0.082
		c-0.816,0.284-1.621,0.62-2.457,0.825c-0.449,0.111-0.774,0.434-1.243,0.505c-0.805,0.123-1.497,0.692-2.389,0.585
		c-0.257-0.029-0.52,0.32-0.848,0.403c-0.708,0.179-1.397,0.58-2.101,0.6c-0.898,0.022-1.663,0.46-2.505,0.54
		c-0.379,0.036-0.787,0.44-1.202,0.052c-0.06-0.057-0.161,0.051-0.237,0.114c-0.115,0.096-0.262,0.245-0.379,0.23
		c-0.643-0.082-1.164,0.415-1.843,0.306c-0.463-0.074-0.89,0.402-1.365,0.515c-0.451,0.106-0.943,0.207-1.342-0.2
		c-0.338-0.344-0.827-0.444-1.201-0.668c-0.671-0.403-1.515-0.695-1.861-1.52c-0.17-0.386-0.532-0.7-0.346-1.204
		c0.036-0.098-0.168-0.38-0.313-0.433c-0.444-0.158-0.443-0.59-0.638-0.899c-0.03-0.045-0.062-0.114-0.047-0.162
		c0.47-1.613,0.005-3.268,0.209-4.894c0.173-1.382,0.021-2.794,0.323-4.158c0.145-0.65,0.218-1.333,0.237-1.956
		c0.023-0.737,0.357-1.381,0.373-2.057c0.031-1.357,0.368-2.646,0.765-3.902c0.171-0.54,0.061-0.869-0.167-1.234
		c-0.138-0.219-0.085-0.38,0.022-0.515c0.527-0.653,0.767-1.493,1.37-2.093c0.134-0.133,0.195-0.279,0.179-0.463
		c-0.01-0.123,0.062-0.313,0.119-0.297c0.646,0.187,0.47-0.698,0.98-0.742c0.152-0.014,0.342-0.37,0.394-0.597
		c0.1-0.438,0.399-0.729,0.632-1.073c1.299-1.926,2.69-3.786,4.099-5.632c0.715-0.937,1.415-1.884,2.119-2.827
		c0.222-0.297,0.521-0.46,0.876-0.537c-0.28-0.453,0.158-0.644,0.353-0.896c0.759-0.985,1.534-1.959,2.324-2.918
		c0.469-0.57,1.029-1.07,1.461-1.665c1.195-1.649,2.661-3.072,3.908-4.68c0.339-0.435,0.693-0.92,1.273-1.172
		c0.162-0.07,0.285-0.49,0.459-0.739c0.617-0.877,1.589-1.398,2.222-2.26c0.259-0.351,0.514-0.691,0.729-1.079
		c0.179-0.323,0.571-0.522,0.849-0.812c0.412-0.428,0.7-0.941,1.098-1.37c0.59-0.638,1.236-1.24,1.728-1.946
		c0.732-1.052,1.669-1.917,2.485-2.891C33.177,3.666,34.227,3.14,35.502,3.054z"/>
	<path fill-rule="evenodd" clip-rule="evenodd" fill="#742C16" d="M2.325,62.69c-0.17-0.386-0.532-0.7-0.346-1.204
		c0.036-0.098-0.168-0.38-0.313-0.433c-0.444-0.158-0.443-0.59-0.638-0.899c-0.03-0.045-0.062-0.114-0.047-0.162
		c0.47-1.613,0.005-3.268,0.209-4.894c0.173-1.382,0.021-2.794,0.323-4.158c0.145-0.65,0.218-1.333,0.237-1.956
		c0.023-0.737,0.357-1.381,0.373-2.057c0.031-1.357,0.368-2.646,0.765-3.902c0.171-0.54,0.061-0.869-0.167-1.234
		c-0.138-0.219-0.085-0.38,0.022-0.515c0.527-0.653,0.767-1.493,1.37-2.093c0.134-0.133,0.195-0.279,0.179-0.463
		c-0.01-0.123,0.062-0.313,0.119-0.297c0.646,0.187,0.47-0.698,0.98-0.742c0.152-0.014,0.342-0.37,0.394-0.597
		c0.1-0.438,0.399-0.729,0.632-1.073c1.299-1.926,2.69-3.786,4.099-5.632c0.715-0.937,1.415-1.884,2.119-2.827
		c0.222-0.297,0.521-0.46,0.876-0.537c-0.28-0.453,0.158-0.644,0.353-0.896c0.759-0.985,1.534-1.959,2.324-2.918
		c0.469-0.57,1.029-1.07,1.461-1.665c1.195-1.649,2.661-3.072,3.908-4.68c0.339-0.435,0.693-0.92,1.273-1.172
		c0.162-0.07,0.285-0.49,0.459-0.739c0.617-0.877,1.589-1.398,2.222-2.26c0.259-0.351,0.514-0.691,0.729-1.079
		c0.179-0.323,0.571-0.522,0.849-0.812c0.412-0.428,0.7-0.941,1.098-1.37c0.59-0.638,1.236-1.24,1.728-1.946
		c0.732-1.052,1.669-1.917,2.485-2.891c0.774-0.922,1.824-1.448,3.1-1.534c2.034-0.136,4.066-0.086,6.099-0.126
		c1.378-0.027,2.74,0.209,4.121,0.106c1.087-0.083,1.847,0.66,2.503,1.376c0.889,0.967,1.889,1.805,2.83,2.707
		c0.686,0.656,1.279,1.406,1.969,2.041c0.605,0.553,1.042,1.273,1.764,1.713c0.242,0.145,0.459,0.41,0.626,0.643
		c0.737,1.029,1.489,2.027,2.618,2.674c0.26,0.147,0.38,0.489,0.373,0.743c-0.01,0.417,0.096,0.796,0.198,1.179
		c0.124,0.465,0.101,0.893-0.134,1.322c-0.264,0.48-0.176,1.043-0.28,1.562c-0.323,1.612-0.509,3.242-1.487,4.651
		c-1.251,1.8-2.533,3.581-3.992,5.217c-1.666,1.866-3.193,3.853-4.919,5.67c-1.079,1.137-1.981,2.439-3.034,3.602
		c-1.319,1.455-2.578,2.96-3.854,4.45c-1.085,1.268-2.152,2.551-3.221,3.831c-1.054,1.264-2.033,2.591-3.146,3.811
		c-0.761,0.834-1.378,1.81-2.179,2.611c-0.705,0.705-1.285,1.534-2.098,2.136c-0.19,0.14-0.383,0.349-0.334,0.607
		c0.033,0.175-0.072,0.18-0.147,0.248c-0.884,0.812-1.806,1.576-2.746,2.322c-0.367,0.292-0.745,0.604-0.98,1.055
		c-0.19,0.365-0.512,0.612-0.971,0.382c-0.068-0.034-0.119-0.103-0.19-0.025c-0.39,0.425-1.062,0.312-1.442,0.76
		c-0.034,0.04-0.097,0.062-0.15,0.082c-0.816,0.284-1.621,0.62-2.457,0.825c-0.449,0.111-0.774,0.434-1.243,0.505
		c-0.805,0.123-1.497,0.692-2.389,0.585c-0.257-0.029-0.52,0.32-0.848,0.403c-0.708,0.179-1.397,0.58-2.101,0.6
		c-0.898,0.022-1.663,0.46-2.505,0.54c-0.379,0.036-0.787,0.44-1.202,0.052c-0.06-0.057-0.161,0.051-0.237,0.114
		c-0.115,0.096-0.262,0.245-0.379,0.23c-0.643-0.082-1.164,0.415-1.843,0.306c-0.463-0.074-0.89,0.402-1.365,0.515
		c-0.451,0.106-0.943,0.207-1.342-0.2c-0.338-0.344-0.827-0.444-1.201-0.668C3.515,63.807,2.671,63.515,2.325,62.69z M26.75,21.252
		c-0.04,0.212-0.175,0.482-0.092,0.623c0.104,0.173,0.163,0.307,0.011,0.403c-0.203,0.131-0.146-0.157-0.246-0.209
		c-0.23-0.119-0.643-0.27-0.704-0.135c-0.192,0.414,0.249,0.116,0.354,0.231c0.032,0.033,0.05,0.106,0.036,0.151
		c-0.103,0.371,0.23,0.083,0.322,0.24c-0.321,0.211-0.304,0.734-0.783,0.831c-0.08-0.109,0.152-0.299-0.1-0.359
		c-0.149,0.154-0.167,0.318-0.081,0.521c0.138,0.328-0.294,0.575-0.325,0.553c-0.305-0.23-0.355,0.101-0.487,0.199
		c-0.394,0.294-0.522,0.858-1.05,1.028c-0.031,0.011-0.162,0.102-0.115,0.211c0.356,0.251,0.412-0.338,0.716-0.247
		c-0.271,0.383-0.273,0.373-0.776,0.477c-0.168,0.034-0.349,0.266-0.228,0.345c0.393,0.257,0.062,0.399-0.048,0.559
		c-0.184,0.265-0.401,0.508-0.594,0.767c-1.657,2.229-3.255,4.507-4.987,6.675c-1.38,1.728-2.8,3.423-4.069,5.231
		c-0.92,1.313-2.004,2.49-3.003,3.736c-0.165,0.206-0.42,0.389-0.337,0.688c0.352,1.308,0.569,2.638,0.79,3.973
		c0.16,0.969,0.322,1.946,0.58,2.906c0.213,0.787,0.409,1.58,0.634,2.365c0.081,0.279,0.231,0.354,0.551,0.312
		c1.435-0.185,2.86-0.426,4.275-0.706c1.844-0.366,3.682-0.734,5.579-0.489c0.219,0.029,0.509,0.064,0.642-0.13
		c0.368-0.539,0.879-0.958,1.135-1.608c0.133-0.338,0.229-0.798,0.556-1.03c0.636-0.456,1.007-1.148,1.439-1.735
		c0.831-1.127,1.754-2.18,2.591-3.3c0.975-1.304,1.781-2.728,2.879-3.946c0.613-0.682,1.06-1.509,1.642-2.221
		c1.107-1.354,2.205-2.713,3.226-4.135c0.65-0.906,1.383-1.756,2.02-2.671c0.62-0.888,1.389-1.646,2.049-2.493
		c0.667-0.857,1.413-1.671,1.943-2.607c0.394-0.691,0.997-1.171,1.453-1.787c0.386-0.52,0.829-1.021,1.275-1.564
		c-0.206-0.065-0.38-0.031-0.531-0.141c-1.15-0.826-2.34-1.604-3.458-2.473c-0.949-0.739-1.771-1.645-2.735-2.357
		c-1.324-0.976-2.275-2.327-3.56-3.344c-0.399-0.316-0.929-0.512-1.203-1.006c-0.094-0.168-0.229-0.005-0.31,0.099
		c-0.451,0.586-0.967,1.117-1.389,1.733c-0.243,0.355-0.448,0.832-1.018,0.913c0.083-0.36,0.402-0.446,0.558-0.675
		c0.058-0.084,0.2-0.17,0.044-0.273c-0.102-0.066-0.179,0.024-0.23,0.105c-0.153,0.248-0.288,0.507-0.531,0.06
		c-0.067-0.126-0.177-0.082-0.263,0.041c-0.39,0.563-0.731,1.164-1.307,1.65c0.844-0.087,0.943-1.05,1.644-1.229
		c-0.074,0.173-0.38,0.22-0.299,0.424c0.093,0.23,0.334-0.019,0.622,0.104c-0.446,0.147-0.423,0.893-1.088,0.559
		c-0.045-0.023-0.162,0.018-0.196,0.063c-0.077,0.109-0.031,0.223,0.07,0.3c0.079,0.06,0.248,0.065,0.082,0.223
		c-0.085,0.081-0.107,0.256-0.262,0.033c-0.083-0.119-0.182,0.068-0.259,0.135c-0.063,0.055-0.024,0.098,0.022,0.174
		c0.303,0.525-0.486,0.533-0.477,0.961c0.003,0.168-0.223,0.154-0.376,0.082c-0.051-0.023-0.111-0.03-0.156-0.061
		c-0.445-0.305-0.559-0.279-0.827,0.196c0.495-0.11,0.968,0.195,0.787,0.521c-0.227,0.405-0.578,0.742-0.869,1.114
		c-0.218,0.278-0.302-0.143-0.475-0.084c-0.015,0.006-0.036-0.003-0.053-0.006c0.068,0.516-0.503,0.259-0.637,0.525
		c-0.069-0.357,0.145-0.586,0.36-0.829c-0.662,0.012-0.521,0.806-1.02,0.971C26.373,21.504,26.527,21.273,26.75,21.252z
		 M36.412,6.154c-0.014-0.023-0.028-0.048-0.044-0.072c0.053-0.048,0.14-0.09,0.15-0.146c0.026-0.123-0.073-0.076-0.142-0.076
		c-0.318,0.007-0.572,0.181-0.703,0.426c-0.426,0.798-0.557,1.666-0.428,2.561c0.033,0.239,0.271,0.493,0.221,0.693
		c-0.191,0.781,0.035,1.542,0.024,2.31c-0.008,0.606,0.267,1.05,0.741,1.396c1.161,0.847,2.189,1.849,3.267,2.792
		c0.464,0.407,0.805,0.923,1.265,1.318c1.526,1.312,3.188,2.457,4.691,3.8c0.2,0.179,0.386,0.433,0.724,0.418
		c1.235-0.056,2.477,0.044,3.702-0.007c1.302-0.052,2.549,0.207,3.822,0.284c0.186,0.01,0.269,0.131,0.342,0.266
		c0.143,0.257,0.306,0.221,0.424,0.006c0.217-0.39,0.609-0.623,0.842-0.993c0.117-0.188,0.456-0.224,0.406-0.507
		c-0.083-0.491,0.133-0.93,0.187-1.391c0.167-1.457,0.546-2.872,0.786-4.314c0.033-0.203-0.015-0.326-0.111-0.508
		c-0.188-0.359-0.535-0.397-0.828-0.532c-0.499-0.231-0.725-0.748-1.182-1.038c-0.979-0.621-1.845-1.386-2.539-2.333
		c-1.096-1.494-2.508-2.693-3.803-3.999c-0.133-0.131-0.296-0.165-0.469-0.188c-1.508-0.21-3.027-0.264-4.546-0.321
		c-1.061-0.04-2.177,0.119-3.163-0.168c-0.983-0.286-1.891,0.348-2.815-0.048c-0.081-0.035-0.237,0.101-0.358,0.157
		C36.722,6.01,36.568,6.081,36.412,6.154z M16.702,55.588c-0.128,0.179-0.309,0.101-0.418,0.148
		c-0.504,0.223-1.013-0.074-1.502,0.053c-0.885,0.23-1.706,0.244-2.421-0.461c-0.236-0.231-0.559-0.487-0.863-0.518
		c-0.771-0.08-0.923-0.718-1.161-1.215c-0.229-0.482-0.281-1.048-0.371-1.589c-0.108-0.644-0.184-1.358-0.521-1.881
		c-0.381-0.591-0.256-1.233-0.468-1.83c-0.174-0.487-0.415-1.019-0.164-1.656c0.195-0.499-0.063-1.118-0.177-1.679
		c-0.096-0.475-0.299-0.648-0.804-0.469c-0.676,0.241-1.385,0.381-2.062,0.619c-0.284,0.101-0.841-0.028-0.795,0.421
		c0.059,0.589-0.236,1.009-0.412,1.494c-0.086,0.239-0.023,0.488-0.005,0.737c0.037,0.539,0.098,1.216-0.122,1.586
		c-0.305,0.51-0.194,0.882-0.083,1.321c0.108,0.42-0.002,0.833-0.067,1.226c-0.124,0.768,0.21,1.566-0.244,2.322
		c-0.173,0.289-0.167,0.724,0.052,1.095c0.072,0.119,0.208,0.397-0.116,0.493c-0.431,0.129-0.294,0.425-0.075,0.551
		c0.167,0.098,0.167,0.199,0.144,0.291c-0.219,0.871,0.146,1.21,0.993,1.451c0.735,0.208,1.367,0.763,1.953,1.297
		c0.339,0.307,0.855,0.38,1.12,0.757c0.384,0.548,0.958,0.92,1.311,1.488c0.077,0.122,0.168,0.206,0.322,0.194
		c0.624-0.051,1.299,0.034,1.86-0.177c1.268-0.479,2.635-0.565,3.88-1.103c0.677-0.293,1.477-0.227,2.118-0.601
		c0.584-0.341,1.209-0.524,1.84-0.712c0.672-0.203,1.374-0.26,2.029-0.564c0.499-0.23,1.014-0.501,1.63-0.407
		c0.638,0.098,1.157-0.617,0.876-1.201c-0.153-0.315-0.231-0.656-0.413-0.97c-0.188-0.325-0.362-0.775-0.395-1.09
		c-0.046-0.455-0.115-0.407-0.422-0.3c-0.104,0.036-0.229,0.068-0.328,0.042c-0.954-0.24-1.822,0.217-2.732,0.327
		c-0.582,0.069-1.156,0.31-1.728,0.298C17.495,55.367,17.118,55.603,16.702,55.588z M25.022,56.24
		c0.175,0.384,0.558,0.425,0.863,0.096c0.73-0.783,1.38-1.634,2.141-2.391c0.776-0.771,1.523-1.584,2.192-2.449
		c0.553-0.716,1.068-1.474,1.629-2.177c0.782-0.979,1.458-2.036,2.293-2.983c0.697-0.792,1.367-1.639,1.975-2.502
		c0.748-1.059,1.697-1.937,2.438-2.991c0.887-1.269,2.125-2.225,3.032-3.487c0.649-0.907,1.429-1.734,2.226-2.522
		c0.861-0.85,1.352-1.983,2.297-2.773c0.64-0.535,0.988-1.359,1.602-1.948c0.973-0.935,1.829-1.98,2.764-2.953
		c0.81-0.843,1.489-1.849,2.205-2.803c0.131-0.178,0.455-0.313,0.346-0.542c-0.114-0.245-0.401,0.007-0.619-0.021
		c-0.538-0.063-1.087-0.142-1.621-0.099c-0.945,0.08-1.89,0.137-2.831,0.068c-0.339-0.024-0.56,0.03-0.72,0.303
		c-0.338,0.578-0.758,1.093-1.17,1.617c-1.676,2.122-3.229,4.339-4.929,6.443c-1.113,1.377-2.194,2.78-3.269,4.188
		c-0.983,1.287-1.931,2.603-2.906,3.896c-1.113,1.477-2.234,2.946-3.366,4.409c-1.188,1.534-2.3,3.126-3.563,4.607
		c-1.051,1.232-2.185,2.391-3.195,3.658c-0.358,0.449-0.688,0.92-0.372,1.53c0.154,0.296,0.181,0.83,0.295,0.891
		c0.444,0.229,0.353,0.465,0.197,0.782C24.938,56.12,24.998,56.189,25.022,56.24z M6.442,41.646
		c0.687-0.031,1.354-0.074,2.019-0.183c0.146-0.024,0.382,0.06,0.466,0.173c0.463,0.64,0.56-0.066,0.741-0.224
		c0.127-0.109,0.179-0.287,0.356-0.425c0.347-0.27,0.553-0.712,0.871-1.027c0.243-0.24-0.405-0.197-0.087-0.392
		c0.54-0.33,0.705-0.928,0.95-1.436c0.248-0.511,0.747-0.792,0.946-1.4c0.164-0.504,0.642-1.018,0.966-1.539
		c0.675-1.083,1.622-1.953,2.317-3.032c0.628-0.975,1.493-1.788,2.122-2.781c0.614-0.971,1.466-1.767,2.051-2.769
		c0.598-1.027,1.29-1.996,2.154-2.827c0.271-0.261,0.265-0.731,0.612-0.909c0.393-0.201,0.65-0.506,0.909-0.843
		c0.38-0.493,0.688-1.034,1.131-1.485c0.405-0.412,0.812-0.818,1.148-1.309c0.306-0.445,0.651-0.953,1.098-1.231
		c0.734-0.462,1.174-1.133,1.608-1.816c0.414-0.649,0.818-1.305,1.35-1.858c0.429-0.447,0.93-0.827,1.137-1.445
		c0.043-0.133,0.135-0.222,0.238-0.312c0.535-0.465,1.096-0.922,0.905-1.762c-0.017-0.069-0.008-0.162,0.027-0.222
		c0.072-0.12,0.254-0.208-0.03-0.317c-0.198-0.075-0.351-0.147-0.457,0.1c-0.326,0.756-1.104,1.097-1.603,1.708
		c-0.252,0.308-0.273,0.743-0.637,0.96c-0.481,0.288-0.639,0.863-1.046,1.216c-0.481,0.417-0.557,1.119-1.126,1.496
		c-0.239,0.159-0.642,0.457-0.649,0.602c-0.022,0.457-0.278,0.79-0.521,1.039c-1.111,1.137-2.116,2.365-3.172,3.55
		c-0.314,0.352-0.608,0.735-0.892,1.107c-0.45,0.589-0.881,1.194-1.436,1.679c-0.468,0.41-0.886,0.928-1.169,1.4
		c-0.367,0.612-0.698,1.236-1.286,1.601c-0.587,0.366-0.867,0.927-1.276,1.414c-0.354,0.419-0.509,1.114-1.246,1.135
		c-0.091,0.002-0.117,0.063-0.126,0.188c-0.05,0.69-0.499,1.189-0.955,1.631c-0.351,0.339-0.511,0.886-1.059,1.019
		c0.075,0.468-0.258,0.748-0.542,0.982c-0.52,0.428-0.901,0.995-1.297,1.499c-0.708,0.897-1.384,1.836-2.028,2.789
		c-0.7,1.036-1.617,1.868-2.488,2.75C7.023,40.559,6.448,40.941,6.442,41.646z"/>
	<path fill-rule="evenodd" clip-rule="evenodd" fill="none" d="M26.738,21.273c0.136-0.27,0.707-0.013,0.639-0.528
		c0.017,0.003,0.038,0.012,0.053,0.006c0.173-0.059,0.257,0.362,0.475,0.084c0.291-0.372,0.642-0.709,0.869-1.114
		c0.182-0.325-0.292-0.631-0.787-0.521c0.268-0.476,0.382-0.501,0.827-0.196c0.045,0.03,0.105,0.037,0.156,0.061
		c0.153,0.072,0.38,0.086,0.376-0.082c-0.01-0.428,0.78-0.436,0.477-0.961c-0.046-0.076-0.085-0.119-0.022-0.174
		c0.077-0.066,0.176-0.254,0.259-0.135c0.155,0.223,0.177,0.048,0.262-0.033c0.166-0.157-0.003-0.163-0.082-0.223
		c-0.102-0.077-0.147-0.19-0.07-0.3c0.034-0.046,0.151-0.087,0.196-0.063c0.665,0.334,0.642-0.411,1.088-0.559
		c-0.288-0.122-0.529,0.127-0.622-0.104c-0.082-0.204,0.225-0.251,0.299-0.424c-0.701,0.18-0.8,1.143-1.644,1.229
		c0.575-0.486,0.917-1.087,1.307-1.65c0.086-0.123,0.196-0.167,0.263-0.041c0.243,0.447,0.378,0.188,0.531-0.06
		c0.052-0.081,0.129-0.172,0.23-0.105c0.156,0.104,0.014,0.189-0.044,0.273c-0.155,0.229-0.475,0.314-0.558,0.675
		c0.569-0.081,0.774-0.558,1.018-0.913c0.422-0.616,0.938-1.147,1.389-1.733c0.08-0.104,0.216-0.267,0.31-0.099
		c0.274,0.494,0.804,0.689,1.203,1.006c1.284,1.017,2.235,2.368,3.56,3.344c0.965,0.713,1.786,1.618,2.735,2.357
		c1.118,0.869,2.308,1.646,3.458,2.473c0.151,0.109,0.325,0.075,0.531,0.141c-0.446,0.543-0.89,1.045-1.275,1.564
		c-0.456,0.616-1.06,1.096-1.453,1.787c-0.53,0.937-1.276,1.75-1.943,2.607c-0.66,0.848-1.429,1.605-2.049,2.493
		c-0.637,0.915-1.369,1.765-2.02,2.671c-1.021,1.422-2.118,2.781-3.226,4.135c-0.582,0.712-1.028,1.539-1.642,2.221
		c-1.098,1.219-1.904,2.643-2.879,3.946c-0.836,1.12-1.76,2.173-2.591,3.3c-0.433,0.587-0.804,1.279-1.439,1.735
		c-0.327,0.232-0.423,0.692-0.556,1.03c-0.255,0.65-0.767,1.069-1.135,1.608c-0.133,0.194-0.423,0.159-0.642,0.13
		c-1.897-0.245-3.735,0.123-5.579,0.489c-1.415,0.28-2.841,0.521-4.275,0.706c-0.319,0.041-0.47-0.033-0.551-0.312
		c-0.225-0.785-0.42-1.578-0.634-2.365c-0.258-0.96-0.42-1.938-0.58-2.906c-0.22-1.335-0.438-2.665-0.79-3.973
		c-0.083-0.299,0.172-0.481,0.337-0.688c0.999-1.246,2.083-2.423,3.003-3.736c1.269-1.809,2.689-3.504,4.069-5.231
		c1.731-2.168,3.33-4.446,4.987-6.675c0.193-0.259,0.41-0.502,0.594-0.767c0.11-0.159,0.441-0.302,0.048-0.559
		c-0.121-0.079,0.06-0.311,0.228-0.345c0.503-0.104,0.505-0.094,0.776-0.477c-0.304-0.091-0.359,0.498-0.716,0.247
		c-0.047-0.109,0.084-0.2,0.115-0.211c0.528-0.17,0.656-0.734,1.05-1.028c0.132-0.099,0.182-0.43,0.487-0.199
		c0.03,0.022,0.462-0.225,0.325-0.553c-0.086-0.203-0.069-0.367,0.081-0.521c0.252,0.061,0.021,0.25,0.1,0.359
		c0.479-0.097,0.462-0.62,0.783-0.831c-0.091-0.157-0.424,0.131-0.322-0.24c0.014-0.045-0.004-0.118-0.036-0.151
		c-0.104-0.115-0.545,0.183-0.354-0.231c0.062-0.135,0.474,0.016,0.704,0.135c0.1,0.052,0.043,0.34,0.246,0.209
		c0.152-0.097,0.093-0.23-0.011-0.403c-0.083-0.141,0.053-0.411,0.092-0.623L26.738,21.273z"/>
	<path fill-rule="evenodd" clip-rule="evenodd" fill="none" d="M36.412,6.154c0.156-0.073,0.31-0.145,0.463-0.217
		c0.121-0.057,0.277-0.192,0.358-0.157c0.925,0.396,1.832-0.238,2.815,0.048c0.986,0.287,2.103,0.128,3.163,0.168
		c1.519,0.058,3.038,0.111,4.546,0.321c0.173,0.023,0.336,0.058,0.469,0.188c1.295,1.306,2.707,2.505,3.803,3.999
		c0.694,0.947,1.56,1.712,2.539,2.333c0.457,0.29,0.683,0.807,1.182,1.038c0.293,0.135,0.64,0.173,0.828,0.532
		c0.097,0.182,0.145,0.305,0.111,0.508c-0.24,1.442-0.619,2.857-0.786,4.314c-0.054,0.461-0.27,0.899-0.187,1.391
		c0.05,0.283-0.289,0.319-0.406,0.507c-0.232,0.37-0.625,0.604-0.842,0.993c-0.118,0.215-0.281,0.251-0.424-0.006
		c-0.073-0.135-0.156-0.256-0.342-0.266c-1.273-0.077-2.521-0.336-3.822-0.284c-1.226,0.051-2.467-0.049-3.702,0.007
		c-0.338,0.015-0.523-0.239-0.724-0.418c-1.504-1.343-3.165-2.488-4.691-3.8c-0.46-0.396-0.801-0.911-1.265-1.318
		c-1.077-0.943-2.105-1.945-3.267-2.792c-0.475-0.346-0.749-0.789-0.741-1.396c0.011-0.768-0.216-1.528-0.024-2.31
		c0.051-0.2-0.188-0.454-0.221-0.693c-0.129-0.895,0.002-1.763,0.428-2.561c0.131-0.245,0.385-0.419,0.703-0.426
		c0.068,0,0.168-0.047,0.142,0.076c-0.011,0.057-0.098,0.099-0.15,0.146C36.384,6.106,36.398,6.131,36.412,6.154z M50.58,12.345
		c-0.468-1.103-1.303-2.274-1.955-2.628c-1.23-0.668-2.427-1.408-3.845-1.667c-0.755-0.138-1.729,0.296-2.208,0.837
		c-0.255,0.289,0.084,0.475-0.111,0.69c-0.667,0.736-0.607,1.748-0.94,2.615c-0.062,0.161,0.047,0.265,0.142,0.345
		c0.136,0.115,0.299,0.246,0.291,0.407c-0.03,0.673,0.505,1.003,0.875,1.392c0.35,0.367,0.811,0.704,1.285,0.861
		c0.662,0.221,1.31,0.434,1.887,0.828c0.23,0.16,0.537,0.498,0.681,0.439c0.483-0.195,0.777,0.131,1.14,0.261
		c0.527,0.19,1.061,0.336,1.624,0.251c0.36-0.056,0.703-0.147,0.884-0.536c0.238-0.515,0.491-1.024,0.769-1.52
		c0.081-0.146,0.086-0.267,0.091-0.422C51.212,13.713,50.902,13.028,50.58,12.345z"/>
	<path fill-rule="evenodd" clip-rule="evenodd" fill="none" d="M16.702,55.588c0.416,0.015,0.793-0.221,1.262-0.209
		c0.572,0.012,1.146-0.229,1.728-0.298c0.91-0.11,1.778-0.567,2.732-0.327c0.099,0.026,0.225-0.006,0.328-0.042
		c0.307-0.107,0.375-0.155,0.422,0.3c0.033,0.314,0.207,0.765,0.395,1.09c0.182,0.313,0.26,0.654,0.413,0.97
		c0.281,0.584-0.239,1.299-0.876,1.201c-0.616-0.094-1.131,0.177-1.63,0.407c-0.655,0.305-1.357,0.361-2.029,0.564
		c-0.631,0.188-1.256,0.371-1.84,0.712c-0.641,0.374-1.441,0.308-2.118,0.601c-1.245,0.537-2.613,0.623-3.88,1.103
		c-0.562,0.211-1.237,0.126-1.86,0.177c-0.154,0.012-0.246-0.072-0.322-0.194c-0.353-0.568-0.926-0.94-1.311-1.488
		c-0.264-0.377-0.781-0.45-1.12-0.757c-0.586-0.534-1.218-1.089-1.953-1.297c-0.847-0.241-1.212-0.58-0.993-1.451
		c0.023-0.092,0.023-0.193-0.144-0.291c-0.219-0.126-0.356-0.422,0.075-0.551c0.323-0.096,0.188-0.374,0.116-0.493
		c-0.218-0.371-0.225-0.806-0.052-1.095c0.454-0.756,0.12-1.555,0.244-2.322c0.064-0.393,0.175-0.806,0.067-1.226
		c-0.112-0.439-0.222-0.812,0.083-1.321c0.219-0.37,0.158-1.047,0.122-1.586c-0.019-0.249-0.082-0.498,0.005-0.737
		c0.176-0.485,0.471-0.905,0.412-1.494c-0.045-0.449,0.511-0.32,0.795-0.421c0.676-0.238,1.386-0.378,2.062-0.619
		c0.505-0.18,0.708-0.006,0.804,0.469c0.113,0.561,0.372,1.18,0.177,1.679c-0.251,0.638-0.011,1.169,0.164,1.656
		c0.212,0.597,0.087,1.239,0.468,1.83c0.337,0.522,0.413,1.237,0.521,1.881c0.09,0.541,0.142,1.106,0.371,1.589
		c0.238,0.497,0.389,1.135,1.161,1.215c0.304,0.03,0.627,0.286,0.863,0.518c0.716,0.705,1.537,0.691,2.421,0.461
		c0.489-0.127,0.998,0.17,1.502-0.053C16.393,55.688,16.574,55.767,16.702,55.588z"/>
	<path fill-rule="evenodd" clip-rule="evenodd" fill="none" d="M25.022,56.24c-0.025-0.051-0.084-0.12-0.068-0.153
		c0.155-0.317,0.247-0.554-0.197-0.782c-0.114-0.061-0.141-0.595-0.295-0.891c-0.316-0.61,0.014-1.081,0.372-1.53
		c1.011-1.268,2.145-2.426,3.195-3.658c1.263-1.481,2.375-3.073,3.563-4.607c1.132-1.463,2.253-2.933,3.366-4.409
		c0.976-1.293,1.923-2.608,2.906-3.896c1.074-1.407,2.155-2.811,3.269-4.188c1.7-2.104,3.253-4.321,4.929-6.443
		c0.412-0.524,0.832-1.039,1.17-1.617c0.16-0.272,0.381-0.327,0.72-0.303c0.941,0.068,1.886,0.012,2.831-0.068
		c0.534-0.043,1.083,0.035,1.621,0.099c0.218,0.027,0.505-0.225,0.619,0.021c0.109,0.229-0.215,0.364-0.346,0.542
		c-0.716,0.954-1.396,1.96-2.205,2.803c-0.935,0.973-1.791,2.019-2.764,2.953c-0.613,0.589-0.962,1.413-1.602,1.948
		c-0.945,0.79-1.436,1.924-2.297,2.773c-0.797,0.788-1.576,1.615-2.226,2.522c-0.907,1.263-2.146,2.219-3.032,3.487
		c-0.74,1.055-1.689,1.933-2.438,2.991c-0.607,0.863-1.277,1.71-1.975,2.502c-0.835,0.947-1.511,2.005-2.293,2.983
		c-0.561,0.703-1.076,1.461-1.629,2.177c-0.668,0.865-1.416,1.678-2.192,2.449c-0.761,0.757-1.411,1.607-2.141,2.391
		C25.58,56.665,25.198,56.624,25.022,56.24z"/>
	<path fill-rule="evenodd" clip-rule="evenodd" fill="none" d="M6.442,41.646c0.006-0.704,0.581-1.087,0.994-1.508
		c0.871-0.882,1.789-1.714,2.488-2.75c0.644-0.953,1.32-1.892,2.028-2.789c0.396-0.504,0.777-1.071,1.297-1.499
		c0.284-0.234,0.618-0.515,0.542-0.982c0.548-0.133,0.708-0.68,1.059-1.019c0.456-0.441,0.905-0.94,0.955-1.631
		c0.009-0.125,0.035-0.187,0.126-0.188c0.737-0.021,0.892-0.716,1.246-1.135c0.409-0.487,0.688-1.048,1.276-1.414
		c0.587-0.364,0.918-0.988,1.286-1.601c0.283-0.473,0.701-0.99,1.169-1.4c0.555-0.484,0.986-1.09,1.436-1.679
		c0.284-0.372,0.578-0.756,0.892-1.107c1.056-1.185,2.061-2.413,3.172-3.55c0.243-0.249,0.499-0.582,0.521-1.039
		c0.007-0.145,0.41-0.442,0.649-0.602c0.57-0.377,0.646-1.079,1.126-1.496c0.407-0.353,0.564-0.928,1.046-1.216
		c0.364-0.217,0.384-0.652,0.637-0.96c0.499-0.611,1.276-0.952,1.603-1.708c0.106-0.247,0.259-0.175,0.457-0.1
		c0.284,0.109,0.103,0.197,0.03,0.317c-0.035,0.06-0.044,0.152-0.027,0.222c0.19,0.84-0.37,1.297-0.905,1.762
		c-0.104,0.091-0.195,0.18-0.238,0.312c-0.207,0.618-0.708,0.998-1.137,1.445c-0.532,0.554-0.936,1.209-1.35,1.858
		c-0.434,0.684-0.874,1.354-1.608,1.816c-0.447,0.278-0.792,0.786-1.098,1.231c-0.337,0.49-0.743,0.896-1.148,1.309
		c-0.443,0.451-0.751,0.992-1.131,1.485c-0.258,0.337-0.516,0.642-0.909,0.843c-0.347,0.178-0.341,0.648-0.612,0.909
		c-0.864,0.831-1.556,1.8-2.154,2.827c-0.584,1.002-1.437,1.798-2.051,2.769c-0.629,0.993-1.494,1.807-2.122,2.781
		c-0.695,1.079-1.642,1.949-2.317,3.032c-0.324,0.521-0.802,1.035-0.966,1.539c-0.199,0.608-0.699,0.89-0.946,1.4
		c-0.245,0.508-0.41,1.105-0.95,1.436c-0.318,0.194,0.331,0.151,0.087,0.392c-0.318,0.315-0.524,0.758-0.871,1.027
		c-0.177,0.138-0.229,0.315-0.356,0.425c-0.182,0.157-0.278,0.863-0.741,0.224c-0.084-0.113-0.319-0.197-0.466-0.173
		C7.797,41.571,7.129,41.614,6.442,41.646z"/>
	<path fill-rule="evenodd" clip-rule="evenodd" fill="none" d="M26.75,21.252c-0.223,0.021-0.376,0.252-0.669,0.16
		c0.499-0.165,0.357-0.959,1.02-0.971c-0.215,0.243-0.429,0.472-0.361,0.83C26.738,21.273,26.75,21.252,26.75,21.252z"/>
	<path fill-rule="evenodd" clip-rule="evenodd" fill="#742C16" d="M50.58,12.345c0.322,0.684,0.632,1.368,0.607,2.154
		c-0.005,0.155-0.01,0.276-0.091,0.422c-0.277,0.495-0.53,1.005-0.769,1.52c-0.181,0.389-0.523,0.48-0.884,0.536
		c-0.563,0.085-1.097-0.061-1.624-0.251c-0.362-0.13-0.656-0.456-1.14-0.261c-0.144,0.059-0.45-0.279-0.681-0.439
		c-0.577-0.395-1.225-0.607-1.887-0.828c-0.475-0.157-0.936-0.494-1.285-0.861c-0.37-0.389-0.905-0.719-0.875-1.392
		c0.008-0.161-0.155-0.292-0.291-0.407c-0.095-0.08-0.203-0.184-0.142-0.345c0.333-0.867,0.273-1.879,0.94-2.615
		c0.195-0.216-0.144-0.401,0.111-0.69c0.479-0.541,1.453-0.975,2.208-0.837c1.418,0.259,2.614,0.999,3.845,1.667
		C49.277,10.07,50.112,11.242,50.58,12.345z"/>
</g>
</svg>
