<?xml version="1.0" encoding="utf-8"?>
<!-- Generator: Adobe Illustrator 16.0.0, SVG Export Plug-In . SVG Version: 6.00 Build 0)  -->
<!DOCTYPE svg PUBLIC "-//W3C//DTD SVG 1.1//EN" "http://www.w3.org/Graphics/SVG/1.1/DTD/svg11.dtd">
<svg version="1.1" id="Layer_1" xmlns="http://www.w3.org/2000/svg" xmlns:xlink="http://www.w3.org/1999/xlink" x="0px" y="0px"
	 width="68.75px" height="68.25px" viewBox="0 0 68.75 68.25" enable-background="new 0 0 68.75 68.25" xml:space="preserve">
<g>
	<path fill="none" d="M67.01,66.729c-0.855,0.049-1.703-0.133-2.556-0.134c-6.022-0.012-12.044-0.005-18.065-0.008
		c-6.689-0.002-13.379-0.01-20.07-0.011c-5.297,0-10.595,0.008-15.894,0.009c-2.769,0-5.539-0.002-8.308-0.009
		c-0.606-0.002-1.162-0.725-1.032-1.331c0.154-0.726,0.367-1.443,0.458-2.177c0.055-0.444,0.478-0.604,0.572-0.996
		c0.048-0.195,0.18-0.369,0.229-0.58c0.049-0.205,0.19-0.441,0.385-0.483c0.561-0.118,0.836-0.598,1.214-0.924
		c0.799-0.692,1.527-1.467,2.405-2.068c1.175-0.807,2.395-1.588,3.776-1.91c1.351-0.315,2.691-0.773,4.113-0.75
		c0.982,0.016,1.961-0.134,2.938-0.144c0.546-0.007,1.111-0.126,1.659,0.044c0.049,0.016,0.129,0.013,0.164-0.018
		c0.466-0.414,1.07-0.258,1.604-0.379c0.573-0.131,0.997-0.502,1.47-0.791c0.589-0.36,1.152-0.8,1.532-1.356
		c0.482-0.707,1.093-1.376,1.215-2.264c-0.381,0.504-0.648,1.075-0.931,1.646c-0.105,0.214-0.375,0.113-0.425-0.07
		c-0.029,0.038-0.055,0.08-0.086,0.119c-0.132,0.167-0.333,0.051-0.377-0.116c-0.25,0.147-0.473-0.248-0.226-0.415
		c0.326-0.219,0.642-0.446,0.916-0.704c0.282-0.419,0.549-0.85,0.811-1.282c0.021-0.079,0.045-0.155,0.06-0.24
		c0.051-0.301,0.508-0.173,0.457,0.126c-0.001,0.008-0.003,0.014-0.005,0.021c0.008,0.019,0.01,0.041,0.011,0.062
		c0.008-0.006,0.014-0.014,0.024-0.019c0.023,0.05,0.025,0.102,0.021,0.153c0.108,0.077,0.166,0.237,0.046,0.361
		c-0.028,0.028-0.048,0.062-0.075,0.09c0.02,0.053,0.051,0.104,0.109,0.159c0.147-0.718,0.327-1.385,0.281-2.084
		c-0.015-0.233-0.149-0.479-0.372-0.535c-0.521-0.133-0.667-0.618-0.983-0.942c-0.079-0.08-0.116-0.205-0.201-0.273
		c-0.833-0.665-1.164-1.591-1.449-2.573c-0.085-0.291-0.236-0.562-0.253-0.884c-0.013-0.249-0.309-0.335-0.378-0.611
		c-0.155-0.614-0.473-1.19-0.621-1.808c-0.227-0.946-0.63-1.83-0.878-2.771c-0.282-1.07-0.51-2.16-0.882-3.207
		c-0.095-0.265-0.246-0.402-0.498-0.457c-0.691-0.147-1.16-0.608-1.573-1.134c-0.396-0.504-0.606-1.115-0.921-1.667
		c-0.076-0.133-0.004-0.272-0.05-0.401c-0.215-0.239-0.316-0.543-0.39-0.836c-0.152-0.602-0.252-1.218-0.362-1.829
		c-0.012-0.068,0.091-0.156,0.079-0.223c-0.018-0.089,0.175-0.278-0.151-0.277c-0.132,0-0.29-0.36-0.068-0.565
		c0.142-0.13,0.164-0.206,0.014-0.328c-0.041-0.033-0.085-0.104-0.078-0.147c0.154-0.822-0.171-1.685,0.317-2.502
		c0.167-0.281,0.415-0.672,0.322-1.093c-0.032-0.146,0.055-0.214,0.174-0.245c0.57-0.149,1.026-0.53,1.549-0.779
		c0.305-0.145,0.514-0.488,0.902-0.529c0.038-0.003,0.083-0.069,0.104-0.116c0.199-0.456,0.226-1.216,0.146-1.759
		c-0.054-0.365,0.051-0.751-0.151-1.097c-0.005-0.009,0-0.03,0.008-0.04c0.542-0.635,0.326-1.407,0.366-2.128
		c0.011-0.192,0.262-0.198,0.199-0.427c-0.095-0.346-0.199-0.684,0.032-1.065c0.195-0.321,0.11-0.762,0.177-1.126
		c0.088-0.476,0.207-0.966,0.354-1.44c0.145-0.464,0.256-0.961,0.444-1.395c0.226-0.521,0.303-1.086,0.685-1.585
		c0.412-0.537,0.668-1.228,0.982-1.855c0.155-0.31,0.358-0.503,0.748-0.513c0.271-0.006,0.326-0.362,0.42-0.54
		c0.177-0.334,0.444-0.668,0.829-0.627c0.275,0.028,0.498-0.049,0.697-0.205c0.576-0.454,1.195-0.86,1.841-1.184
		c1.027-0.516,2.056-1.032,3.15-1.419c0.812-0.287,1.626-0.548,2.458-0.766c0.44-0.115,0.892-0.096,1.328-0.168
		c0.493-0.083,0.982-0.17,1.481-0.207c0.53-0.038,1.043-0.094,1.588,0.012c0.397,0.076,0.848-0.067,1.275,0.001
		c0.844,0.135,1.732-0.125,2.541,0.216c0.567,0.241,1.174,0.312,1.748,0.555c0.676,0.285,1.347,0.615,2.061,0.818
		c0.176,0.05,0.328,0.125,0.451,0.289c0.318,0.425,0.805,0.623,1.254,0.874c0.334,0.188,0.628,0.466,0.899,0.714
		c0.347,0.317,0.689,0.647,1.077,0.908c0.484,0.325,0.73,0.846,1.099,1.262c0.468,0.527,0.897,1.105,1.253,1.729
		c0.449,0.788,0.758,1.629,1.008,2.495c0.026,0.092,0.033,0.194,0.031,0.293c-0.004,0.406,0.012,0.795,0.164,1.195
		c0.211,0.555,0.393,1.142,0.453,1.729c0.133,1.301,0.438,2.597,0.301,3.911c-0.051,0.472,0.13,0.893,0.098,1.362
		c-0.045,0.634-0.072,1.273-0.102,1.912c-0.008,0.152-0.001,0.307-0.001,0.471c0.274-0.119,0.482-0.342,0.842-0.176
		c0.606,0.28,1.132,0.619,1.144,1.343c0.005,0.286,0.254,0.385,0.271,0.637c0.051,0.657,0.107,1.292-0.131,1.946
		c-0.24,0.658-0.285,1.384-0.574,2.033c-0.426,0.958-0.57,2.018-1.074,2.944c-0.323,0.593-0.482,1.274-1.035,1.742
		c-0.398,0.335-0.502,0.896-0.873,1.267c-0.316,0.317-0.303,0.785-0.487,1.166c-0.2,0.414-0.392,0.838-0.538,1.273
		c-0.305,0.899-0.727,1.75-1.086,2.624c-0.315,0.77-0.57,1.582-1.115,2.271c-0.279,0.35-0.357,0.881-0.615,1.297
		c-0.568,0.92-1.094,1.865-1.668,2.783c-0.297,0.475-0.615,0.925-0.954,1.367c-0.038,0.049-0.065,0.098-0.036,0.152
		c0.658,1.234,0.424,2.593,0.57,3.9c0.057,0.504,0.244,1.056,0.545,1.452c0.403,0.527,0.725,1.165,1.342,1.499
		c0.861,0.468,1.756,0.79,2.773,0.711c0.508-0.04,1.028,0.106,1.543,0.101c0.783-0.007,1.508,0.28,2.268,0.38
		c1.313,0.173,2.585,0.531,3.845,0.916c1.097,0.335,2.128,0.838,3.161,1.339c0.607,0.294,1.275,0.493,1.821,0.886
		c0.874,0.631,1.886,1.111,2.45,2.116c0.155,0.276,0.498,0.391,0.701,0.658c0.174,0.23,0.33,0.46,0.406,0.729
		c0.064,0.228,0.213,0.389,0.33,0.579c0.213,0.347,0.559,0.623,0.584,1.076c0.013,0.206,0.232,0.296,0.302,0.496
		c0.259,0.747,0.337,1.525,0.454,2.297C67.395,66.871,67.135,66.723,67.01,66.729z"/>
	<path fill-rule="evenodd" clip-rule="evenodd" fill="#742C16" d="M67.342,66.527c-0.117-0.771-0.195-1.55-0.454-2.297
		c-0.069-0.2-0.289-0.29-0.302-0.496c-0.025-0.453-0.371-0.729-0.584-1.076c-0.117-0.19-0.266-0.352-0.33-0.579
		c-0.076-0.269-0.232-0.498-0.406-0.729c-0.203-0.268-0.546-0.382-0.701-0.658c-0.564-1.005-1.576-1.485-2.45-2.116
		c-0.546-0.393-1.214-0.592-1.821-0.886c-1.033-0.501-2.064-1.004-3.161-1.339c-1.26-0.385-2.531-0.743-3.845-0.916
		c-0.76-0.1-1.484-0.387-2.268-0.38c-0.515,0.006-1.035-0.141-1.543-0.101c-1.018,0.079-1.912-0.243-2.773-0.711
		c-0.617-0.334-0.938-0.972-1.342-1.499c-0.301-0.396-0.488-0.948-0.545-1.452c-0.146-1.308,0.088-2.666-0.57-3.9
		c-0.029-0.055-0.002-0.104,0.036-0.152c0.339-0.442,0.657-0.893,0.954-1.367c0.574-0.918,1.1-1.863,1.668-2.783
		c0.258-0.416,0.336-0.947,0.615-1.297c0.545-0.688,0.8-1.501,1.115-2.271c0.359-0.874,0.781-1.725,1.086-2.624
		c0.146-0.436,0.338-0.859,0.538-1.273c0.185-0.381,0.171-0.849,0.487-1.166c0.371-0.371,0.475-0.932,0.873-1.267
		c0.553-0.468,0.712-1.149,1.035-1.742c0.504-0.927,0.648-1.986,1.074-2.944c0.289-0.649,0.334-1.375,0.574-2.033
		c0.238-0.654,0.182-1.289,0.131-1.946c-0.018-0.252-0.267-0.351-0.271-0.637c-0.012-0.724-0.537-1.062-1.144-1.343
		c-0.359-0.166-0.567,0.057-0.842,0.176c0-0.164-0.007-0.318,0.001-0.471c0.029-0.639,0.057-1.278,0.102-1.912
		c0.032-0.47-0.148-0.891-0.098-1.362c0.137-1.314-0.168-2.61-0.301-3.911c-0.061-0.587-0.242-1.174-0.453-1.729
		c-0.152-0.4-0.168-0.789-0.164-1.195c0.002-0.099-0.005-0.201-0.031-0.293c-0.25-0.866-0.559-1.707-1.008-2.495
		c-0.355-0.623-0.785-1.201-1.253-1.729c-0.368-0.416-0.614-0.937-1.099-1.262c-0.388-0.261-0.73-0.591-1.077-0.908
		c-0.271-0.248-0.565-0.525-0.899-0.714c-0.449-0.251-0.936-0.449-1.254-0.874c-0.123-0.164-0.275-0.239-0.451-0.289
		c-0.714-0.203-1.385-0.533-2.061-0.818c-0.574-0.242-1.181-0.313-1.748-0.555c-0.809-0.341-1.697-0.081-2.541-0.216
		c-0.428-0.068-0.878,0.075-1.275-0.001c-0.545-0.105-1.059-0.05-1.588-0.012c-0.499,0.037-0.988,0.124-1.481,0.207
		c-0.436,0.072-0.888,0.053-1.328,0.168c-0.832,0.218-1.646,0.479-2.458,0.766c-1.094,0.387-2.123,0.903-3.15,1.419
		c-0.646,0.323-1.265,0.729-1.841,1.184c-0.199,0.156-0.421,0.233-0.697,0.205c-0.385-0.041-0.651,0.293-0.829,0.627
		c-0.094,0.178-0.148,0.534-0.42,0.54c-0.389,0.01-0.592,0.203-0.748,0.513c-0.314,0.628-0.571,1.318-0.982,1.855
		c-0.382,0.499-0.459,1.064-0.685,1.585c-0.188,0.434-0.3,0.931-0.444,1.395c-0.147,0.475-0.265,0.965-0.354,1.44
		c-0.067,0.364,0.018,0.805-0.177,1.126c-0.231,0.382-0.127,0.72-0.032,1.065c0.063,0.229-0.188,0.234-0.199,0.427
		c-0.041,0.721,0.176,1.493-0.366,2.128c-0.008,0.01-0.013,0.031-0.008,0.04c0.202,0.346,0.097,0.731,0.151,1.097
		c0.08,0.543,0.053,1.303-0.146,1.759c-0.021,0.047-0.066,0.113-0.104,0.116c-0.388,0.041-0.597,0.385-0.902,0.529
		c-0.522,0.249-0.979,0.63-1.549,0.779c-0.12,0.031-0.207,0.1-0.174,0.245c0.093,0.421-0.155,0.812-0.322,1.093
		c-0.489,0.817-0.164,1.68-0.317,2.502c-0.008,0.044,0.037,0.114,0.078,0.147c0.15,0.122,0.127,0.198-0.014,0.328
		c-0.222,0.205-0.063,0.565,0.068,0.565c0.326-0.001,0.133,0.188,0.151,0.277c0.012,0.066-0.09,0.154-0.079,0.223
		c0.11,0.611,0.21,1.228,0.362,1.829c0.074,0.293,0.175,0.598,0.39,0.836c0-0.001,0-0.003,0-0.003
		c0.001,0.002,0.004,0.003,0.005,0.006c-0.135-0.682-0.262-1.365-0.408-2.044c-0.136-0.63-0.095-1.261-0.052-1.895
		c0.116,0.542,0.04,1.095,0.117,1.643c0.106,0.754,0.304,1.481,0.493,2.214c0.017,0.066,0.108,0.155-0.034,0.18
		c-0.032,0.006-0.076-0.06-0.116-0.098c0,0.002,0.001,0.004,0.001,0.006c-0.003-0.002-0.004-0.005-0.007-0.009
		c0.046,0.129-0.026,0.269,0.05,0.401c0.315,0.552,0.525,1.163,0.921,1.667c0.413,0.525,0.882,0.986,1.573,1.134
		c0.251,0.055,0.403,0.192,0.498,0.457c0.372,1.047,0.6,2.137,0.882,3.207c0.248,0.941,0.652,1.825,0.878,2.771
		c0.148,0.617,0.465,1.193,0.621,1.808c0.069,0.276,0.365,0.362,0.378,0.611c0.017,0.322,0.168,0.593,0.253,0.884
		c0.285,0.982,0.616,1.908,1.449,2.573c0.085,0.068,0.123,0.193,0.201,0.273c0.315,0.324,0.462,0.81,0.983,0.942
		c0.222,0.057,0.356,0.302,0.372,0.535c0.046,0.699-0.134,1.366-0.281,2.084c-0.059-0.055-0.089-0.106-0.109-0.159
		c-0.077,0.087-0.15,0.176-0.22,0.268c-0.123,0.888-0.733,1.557-1.215,2.264c-0.38,0.557-0.943,0.996-1.532,1.356
		c-0.473,0.289-0.897,0.66-1.47,0.791c-0.535,0.121-1.139-0.035-1.604,0.379c-0.034,0.03-0.114,0.033-0.164,0.018
		c-0.547-0.17-1.113-0.051-1.659-0.044c-0.977,0.01-1.956,0.159-2.938,0.144c-1.421-0.023-2.762,0.435-4.113,0.75
		c-1.382,0.322-2.602,1.104-3.776,1.91c-0.878,0.602-1.606,1.376-2.405,2.068c-0.378,0.326-0.653,0.806-1.214,0.924
		c-0.194,0.042-0.335,0.278-0.385,0.483c-0.05,0.211-0.182,0.385-0.229,0.58c-0.095,0.392-0.518,0.552-0.572,0.996
		c-0.091,0.733-0.304,1.451-0.458,2.177c-0.13,0.606,0.426,1.329,1.032,1.331c2.769,0.007,5.539,0.009,8.308,0.009
		c5.298-0.001,10.596-0.009,15.894-0.009c6.69,0.001,13.38,0.009,20.07,0.011c6.021,0.003,12.043-0.004,18.065,0.008
		c0.853,0.001,1.7,0.183,2.556,0.134C67.135,66.723,67.395,66.871,67.342,66.527z M52.035,23.869
		c0.168-0.134,0.199,0.078,0.301,0.137c0.479,0.283,0.451,0.722,0.471,1.182c0.049,1.149-0.057,2.271-0.506,3.341
		c-0.148,0.354-0.32,0.7-0.482,1.051c-0.078-0.485,0.062-0.934,0.068-1.398c0.008-0.528-0.004-1.061,0.074-1.591
		c0.113-0.783-0.08-1.551-0.17-2.322C51.766,24.051,51.914,23.963,52.035,23.869z M20.483,21.461
		c0.102-0.279,0.097-0.549,0.108-0.838c0.026-0.638,0.014-1.275,0.034-1.911c0.019-0.572,0.127-1.136,0.075-1.716
		c-0.042-0.473,0.195-0.92,0.248-1.387c0.09-0.793,0.346-1.549,0.502-2.326c0.242-1.2,0.515-2.402,1.269-3.428
		C23.348,9,23.973,8.168,24.823,7.488c1.035-0.826,2.094-1.6,3.271-2.199c0.94-0.48,1.918-0.873,2.922-1.214
		c0.644-0.219,1.3-0.417,1.955-0.526c0.625-0.104,1.269-0.18,1.909-0.229c0.355-0.027,0.715-0.171,1.055,0.063
		c0.029,0.021,0.089,0.02,0.125,0.005c0.915-0.392,1.824-0.035,2.711,0.092c1.033,0.148,2.047,0.453,3.045,0.781
		c0.879,0.289,1.664,0.741,2.408,1.276c0.633,0.455,1.273,0.891,1.836,1.44c1.338,1.312,2.281,2.851,2.873,4.632
		c0.225,0.677,0.475,1.361,0.578,2.047c0.125,0.829,0.346,1.656,0.297,2.513c-0.015,0.284,0.039,0.579,0.105,0.858
		c0.197,0.829,0.148,1.682,0.27,2.517c0.037,0.258-0.225,0.458-0.159,0.783c0.095,0.469,0.05,0.963-0.05,1.446
		c-0.047,0.237,0.117,0.477,0.178,0.698c0.125,0.447,0.129,0.932,0.358,1.35c0.06,0.108,0.067,0.199-0.048,0.291
		c-0.113,0.091-0.2,0.212-0.307,0.326c0.18,0.091,0.219-0.223,0.268-0.099c0.067,0.166,0.212,0.311,0.184,0.529
		c-0.072,0.531-0.118,1.057,0.054,1.594c0.1,0.314-0.099,0.653-0.159,0.976c-0.064,0.338-0.183,0.657-0.141,1.011
		c0.014,0.112,0.051,0.294-0.156,0.272c-0.178-0.019-0.16-0.217-0.137-0.302c0.146-0.545-0.076-1.112,0.121-1.655
		c0.038-0.107-0.095-0.264-0.104-0.401c-0.028-0.447-0.127-0.919-0.025-1.34c0.094-0.39-0.172-0.766,0.048-1.143
		c0.034-0.059-0.187-0.218-0.212-0.411c-0.08-0.594-0.148-1.182-0.184-1.782c-0.021-0.379-0.26-0.778-0.608-1.048
		c-0.323-0.248-0.539-0.602-0.788-0.911c-0.373-0.467-0.943-0.599-1.387-0.938c-0.064-0.049-0.521,0.022-0.751,0.227
		c-0.384,0.344-0.921,0.236-1.202-0.187c-0.193-0.289-1.166-0.672-1.484-0.586c-0.287,0.078-0.576,0.086-0.791,0.333
		c-0.071,0.082-0.188,0.024-0.271-0.04c-0.146-0.111-0.33-0.085-0.427,0.014c-0.378,0.385-0.731,0.098-1.056-0.041
		c-0.56-0.24-1.143-0.459-1.598-0.894c-0.166-0.159-0.334-0.117-0.497-0.009c-0.116,0.078-0.222,0.174-0.335,0.255
		c-0.367,0.261-0.766,0.46-1.225,0.444c-0.289-0.01-0.379,0.097-0.276,0.341c0.104,0.243-0.069,0.366-0.169,0.523
		c-0.064,0.101-0.139,0.099-0.246,0.026c-0.461-0.309-0.9-0.664-1.401-0.886c-0.733-0.325-1.144-1.044-1.872-1.386
		c-0.465-0.218-0.912-0.147-1.361-0.161c-0.659-0.022-0.644,0.019-0.708,0.692c-0.053,0.552-0.049,1.112-0.262,1.648
		c-0.068,0.172,0.047,0.413,0.069,0.624c0.023,0.22-0.067,0.288-0.272,0.183c-0.858-0.438-1.79-0.764-2.432-1.541
		c-0.068-0.083-0.089-0.128-0.179-0.033c-0.102,0.109-0.171-0.007-0.172-0.07c-0.011-0.356-0.292-0.568-0.44-0.851
		c-0.164-0.312-0.436-0.584-0.303-0.988c0.014-0.044-0.013-0.119-0.047-0.158c-0.622-0.708-0.7-1.62-0.891-2.478
		c-0.081-0.367-0.198-0.454-0.526-0.345c-0.146,0.049-0.302,0.113-0.449,0.105c-0.206-0.013-0.252,0.047-0.211,0.237
		c0.053,0.246-0.122,0.501,0.186,0.749c0.19,0.154-0.098,0.506-0.164,0.768c-0.066,0.262-0.143,0.485-0.129,0.781
		c0.011,0.244-0.176,0.566-0.228,0.866c-0.11,0.652-0.402,1.275-0.331,1.955c0.039,0.371,0.11,0.741,0.167,1.115
		c-0.448,0.002-0.199-0.412-0.354-0.583c-0.429,0.202-0.656,0.104-0.734-0.363c-0.068-0.399-0.379-0.665-0.516-1.035
		c-0.097-0.259-0.494-0.089-0.653,0.032c-0.271,0.204-0.585,0.123-0.876,0.248c0.12,0.279,0.549,0.268,0.55,0.646
		c0,0.117,0.026,0.223-0.004,0.354c-0.106,0.463-0.175,0.933-0.038,1.408c0.064,0.224-0.126,0.479-0.055,0.648
		c0.162,0.383-0.061,0.76,0.07,1.129c0.175,0.488-0.043,0.961-0.097,1.438c-0.174,1.541-0.234,3.088-0.26,4.636
		c-0.008,0.508-0.105,1.015-0.163,1.521c-0.007,0.067,0.001,0.163-0.095,0.155c-0.111-0.01-0.106-0.106-0.098-0.195
		c0.046-0.561,0.088-1.121,0.137-1.681c0.006-0.069,0.046-0.137-0.112-0.243c-0.024,1.069-0.201,2.068-0.586,3.035
		c0.091-0.37-0.212-0.703-0.065-1.076c0.015-0.038,0.058-0.082,0.048-0.111c-0.372-1.188-0.08-2.389-0.069-3.582
		c0.009-0.974,0.046-1.947,0.072-2.922c0.007-0.253-0.086-0.469-0.166-0.705C20.443,22.375,20.318,21.906,20.483,21.461z
		 M24.75,43.597c-0.182-0.343-0.329-0.735-0.414-1.085c-0.114-0.472-0.429-0.828-0.521-1.304c-0.193-1.009-0.637-1.948-0.894-2.949
		c-0.248-0.965-0.358-1.978-0.778-2.892c-0.198-0.429-0.437-0.858-0.368-1.317c0.048-0.326-0.1-0.433-0.289-0.573
		c-0.053-0.038-0.134-0.062-0.199-0.059c-0.518,0.041-1.046-0.146-1.555,0.071c-0.178,0.075-0.278-0.007-0.393-0.142
		c-0.332-0.386-0.549-0.84-0.811-1.269c-0.598-0.98-0.718-2.115-1.077-3.171c-0.298-0.875-0.271-1.809-0.354-2.721
		c-0.032-0.358,0.022-0.717-0.056-1.08c-0.036-0.165,0.119-0.397,0.165-0.613c0.091-0.43,0.004-0.934,0.399-1.271
		c0.148-0.128,0.003-0.336,0.125-0.476c0.255-0.292,0.549-0.297,0.841-0.09c0.398,0.282,0.727,0.626,1.003,1.043
		c0.465,0.704,0.374,1.45,0.351,2.223c-0.012,0.433,0.027,0.874,0.02,1.313c-0.006,0.344-0.172,0.715,0.114,1.026
		c-0.369,0.472-0.116,1.024-0.109,1.512c0.004,0.329-0.202,0.714,0.068,1.088c0.107,0.146-0.067,0.506,0.042,0.78
		c0.047,0.118,0.033,0.193,0.201,0.166c0.621-0.101,1.248-0.05,1.872-0.037c0.235,0.005,0.375-0.098,0.406-0.281
		c0.066-0.392,0.174-0.799,0.047-1.189c-0.097-0.299,0.036-0.562,0.097-0.811c0.129-0.528,0.122-1.03,0.058-1.563
		c-0.043-0.362,0.104-0.735,0.094-1.126c-0.025-0.925,0.018-1.853,0.06-2.777c0.024-0.541,0.135-1.074,0.18-1.617
		c0.061-0.718,0.003-1.432,0-2.205c0.425,0.271,0.705,0.625,1.046,0.903c0.433,0.354,0.901,0.688,1.517,0.537
		c0.504-0.124,0.567-0.373,0.338-0.828c-0.345-0.688-0.583-1.376-0.624-2.198c-0.038-0.771,0.093-1.51,0.094-2.264
		c0-0.271,0.098-0.544,0.169-0.908c0.249,0.471,0.341,0.919,0.581,1.301c0.375,0.597,0.647,1.273,1.096,1.806
		c0.385,0.454,0.897,0.812,1.443,1.126c0.714,0.41,1.451,0.75,2.209,1.055c0.637,0.256,1.301,0.43,1.974,0.559
		c0.337,0.063,0.695-0.358,0.669-0.707c-0.038-0.512-0.197-1.007-0.141-1.532c0.027-0.254,0.116-0.211,0.258-0.128
		c0.257,0.148,0.529,0.281,0.762,0.461c1.158,0.898,2.52,1.305,3.905,1.654c0.443,0.111,0.911-0.284,0.957-0.799
		c0.028-0.336,0.005-0.677,0.005-1.041c0.793,0.198,1.504,0.492,2.188,0.848c0.322,0.168,0.666,0.293,0.994,0.439
		c0.412,0.184,0.887,0.062,1.23-0.268c0.139-0.131,0.223-0.136,0.354-0.043c0.548,0.383,1.173,0.604,1.802,0.783
		c0.373,0.104,0.766-0.046,1.005-0.363c0.124-0.165,0.188-0.128,0.292-0.047c0.543,0.419,0.896,0.923,1.023,1.638
		c0.096,0.533,0.19,1.073,0.199,1.603c0.012,0.58,0.137,1.145,0.135,1.722c-0.004,1.015,0.04,2.032-0.027,3.042
		c-0.035,0.544,0.023,1.088-0.055,1.631c-0.068,0.471,0.438,1.354,0.783,1.514c0.256,0.119,0.449-0.096,0.687-0.07
		c0.331,0.037,0.657-0.052,1.009-0.115c-0.117,0.817-0.598,1.42-1.104,2.011c-0.091,0.106-0.205,0.073-0.314,0.077
		c-0.199,0.007-0.4-0.012-0.597,0.01c-0.474,0.054-0.664,0.304-0.599,0.757c0.008,0.053,0.026,0.117,0.008,0.162
		c-0.24,0.551-0.15,1.187-0.408,1.721c-0.537,1.107-0.962,2.263-1.52,3.366c-0.455,0.904-1.141,1.636-1.584,2.518
		c-0.441,0.871-0.914,1.728-1.45,2.53c-0.677,1.014-1.401,2.024-2.571,2.574c-1.172,0.548-2.355,0.995-3.68,1.053
		c-0.908,0.039-1.76-0.278-2.647-0.265c-0.979,0.014-1.953-0.032-2.922-0.138c-0.315-0.033-0.583-0.268-0.905-0.341
		c-0.275-0.062-0.534-0.196-0.809-0.252c-0.928-0.188-1.763-0.496-2.41-1.264c-0.326-0.387-0.849-0.599-1.239-0.94
		C25.681,44.632,25.087,44.229,24.75,43.597z M42.676,57.758c-0.08,0.272-0.363,0.471-0.367,0.59
		c-0.012,0.455-0.346,0.701-0.503,1.05c-0.143,0.318-0.441,0.505-0.628,0.79c-0.137,0.207-0.232-0.028-0.288-0.128
		c-0.255-0.461-0.593-0.837-0.974-1.209c-0.603-0.591-1.299-1.091-1.818-1.769c-0.074-0.1-0.179-0.176-0.363-0.353
		c2.299-0.191,4.4-0.779,6.352-2.015c-0.154,0.5-0.284,0.918-0.414,1.339c0.109-0.161,0.219-0.322,0.326-0.479
		c0.025,0.102,0.162,0.211,0.057,0.331c-0.28,0.317-0.242,0.761-0.454,1.099c-0.083,0.131-0.158,0.248-0.163,0.411
		c-0.004,0.168-0.102,0.263-0.283,0.218c-0.239-0.061-0.061-0.208-0.043-0.299c0.088-0.476,0.486-0.818,0.575-1.297
		C43.252,56.555,42.864,57.112,42.676,57.758z M29.94,54.092c-0.465-0.177-0.909-0.388-1.283-0.721
		c-0.438-0.39-1.045-0.454-1.511-0.811c-0.194-0.149-0.54,0.109-0.816-0.016c-0.067-0.03-0.188,0.038-0.198-0.097
		c-0.006-0.08,0.09-0.096,0.126-0.143c0.333-0.442,0.69-0.902,0.713-1.464c0.021-0.481,0.21-0.926,0.205-1.413
		c-0.002-0.164,0.253-0.349,0.208-0.689c0.241,0.301,0.487,0.4,0.761,0.474c0.338,0.089,0.608,0.322,0.897,0.513
		c0.65,0.427,1.43,0.38,2.146,0.57c1.539,0.406,3.095,0.362,4.677,0.244c1.201-0.089,2.389-0.188,3.553-0.487
		c0.534-0.137,1.062-0.325,1.564-0.556c0.552-0.254,1.151-0.413,1.637-0.827c0.193,0.606,0.046,1.172,0.049,1.738
		c0.004,0.438,0.166,0.865,0.011,1.315c-0.04,0.114,0.292,0.034,0.319,0.274c0.035,0.326,0.199,0.615,0.394,0.885
		c0.046,0.062,0.06,0.158,0.065,0.24c0.012,0.168-0.115,0.32-0.234,0.311c-0.874-0.077-1.486,0.527-2.217,0.821
		c-0.836,0.335-1.64,0.779-2.502,1.012c-0.709,0.19-1.475,0.148-2.21-0.106c-0.431-0.149-0.901-0.05-1.353-0.063
		c-0.445-0.017-0.887,0-1.315-0.187c-0.188-0.082-0.436-0.016-0.637-0.078C31.987,54.523,30.925,54.465,29.94,54.092z
		 M32.502,56.114c-1.858,0.991-3.354,2.303-4.915,3.548c-0.212-0.86-0.411-1.63-0.589-2.403c-0.153-0.669-0.302-1.34-0.415-2.017
		c-0.067-0.404-0.123-0.802-0.401-1.121c-0.096-0.111-0.024-0.142,0.056-0.175c0.133-0.052,0.253,0.009,0.366,0.065
		c0.631,0.311,1.26,0.627,1.889,0.941c0.375,0.186,0.76,0.325,1.18,0.416C30.583,55.565,31.523,55.663,32.502,56.114z
		 M63.785,64.594c-2.963,0.017-5.926,0.004-8.889,0.006c-3.076,0.001-6.152,0.005-9.23,0.005c-2.92,0-5.842-0.004-8.762-0.007
		c-1.021,0-2.043,0-3.065,0v0.014c-3.161,0-6.323,0.002-9.483,0c-3.46-0.003-6.92-0.011-10.38-0.012
		c-3.402-0.002-6.804,0.004-10.207,0.007c-0.227,0-0.454,0.004-0.681-0.005c-0.306-0.011-0.325-0.198-0.198-0.403
		c0.192-0.31,0.416-0.601,0.627-0.899c0.259-0.367,0.236-0.855,0.566-1.205c0.42-0.444,0.729-0.979,1.185-1.407
		c0.335-0.313,0.543-0.764,0.953-1.018c0.978-0.603,1.884-1.318,2.937-1.801c0.493-0.226,1.019-0.334,1.537-0.464
		c1.175-0.296,2.356-0.568,3.575-0.607c1.999-0.064,3.991-0.207,5.965-0.537c1.308-0.221,2.525-0.701,3.695-1.312
		c0.096-0.05,0.156-0.162,0.244-0.23c0.142-0.108,0.298-0.107,0.469-0.055c0.196,0.06,0.115,0.221,0.109,0.316
		c-0.049,0.869,0.309,1.673,0.391,2.521c0.107,1.114,0.361,2.195,0.972,3.147c0.22,0.344,0.59,0.521,1.007,0.658
		c0.351,0.115,0.669-0.134,0.984,0.047c0.069,0.038,0.129-0.001,0.193-0.041c0.868-0.53,1.743-1.076,2.471-1.771
		c0.854-0.816,1.909-1.318,2.802-2.05c0.253-0.208,0.584-0.279,0.79-0.552c0.133-0.176,0.314-0.162,0.473,0.002
		c1.064,1.111,2.336,1.993,3.396,3.116c0.752,0.796,1.592,1.528,2.645,1.924c0.359,0.136,0.766,0.15,1.151,0.211
		c0.062,0.01,0.136,0.005,0.178-0.078c0.36-0.716,1.071-1.172,1.427-1.881c0.342-0.678,0.839-1.251,1.191-1.921
		c0.438-0.831,0.827-1.683,1.201-2.542c0.099-0.223,0.23-0.312,0.498-0.197c0.887,0.376,1.809,0.521,2.78,0.549
		c1.729,0.049,3.413,0.434,5.09,0.867c1.185,0.306,2.312,0.741,3.455,1.157c1.147,0.416,2.178,1.052,3.266,1.572
		c0.714,0.34,1.341,0.918,1.804,1.605c0.486,0.728,0.977,1.452,1.434,2.196C64.967,64.524,64.939,64.589,63.785,64.594z"/>
	<path fill-rule="evenodd" clip-rule="evenodd" fill="none" d="M50.955,31.51c-0.117,0.817-0.598,1.42-1.104,2.011
		c-0.091,0.106-0.205,0.073-0.314,0.077c-0.199,0.007-0.4-0.012-0.597,0.01c-0.474,0.054-0.664,0.304-0.599,0.757
		c0.008,0.053,0.026,0.117,0.008,0.162c-0.24,0.551-0.15,1.187-0.408,1.721c-0.537,1.107-0.962,2.263-1.52,3.366
		c-0.455,0.904-1.141,1.636-1.584,2.518c-0.441,0.871-0.914,1.728-1.45,2.53c-0.677,1.014-1.401,2.024-2.571,2.574
		c-1.172,0.548-2.355,0.995-3.68,1.053c-0.908,0.039-1.76-0.278-2.647-0.265c-0.979,0.014-1.953-0.032-2.922-0.138
		c-0.315-0.033-0.583-0.268-0.905-0.341c-0.275-0.062-0.534-0.196-0.809-0.252c-0.928-0.188-1.763-0.496-2.41-1.264
		c-0.326-0.387-0.849-0.599-1.239-0.94c-0.523-0.457-1.117-0.859-1.454-1.492c-0.182-0.343-0.329-0.735-0.414-1.085
		c-0.114-0.472-0.429-0.828-0.521-1.304c-0.193-1.009-0.637-1.948-0.894-2.949c-0.248-0.965-0.358-1.978-0.778-2.892
		c-0.198-0.429-0.437-0.858-0.368-1.317c0.048-0.326-0.1-0.433-0.289-0.573c-0.053-0.038-0.134-0.062-0.199-0.059
		c-0.518,0.041-1.046-0.146-1.555,0.071c-0.178,0.075-0.278-0.007-0.393-0.142c-0.332-0.386-0.549-0.84-0.811-1.269
		c-0.598-0.98-0.718-2.115-1.077-3.171c-0.298-0.875-0.271-1.809-0.354-2.721c-0.032-0.358,0.022-0.717-0.056-1.08
		c-0.036-0.165,0.119-0.397,0.165-0.613c0.091-0.43,0.004-0.934,0.399-1.271c0.148-0.128,0.003-0.336,0.125-0.476
		c0.255-0.292,0.549-0.297,0.841-0.09c0.398,0.282,0.727,0.626,1.003,1.043c0.465,0.704,0.374,1.45,0.351,2.223
		c-0.012,0.433,0.027,0.874,0.02,1.313c-0.006,0.344-0.172,0.715,0.114,1.026c-0.369,0.472-0.116,1.024-0.109,1.512
		c0.004,0.329-0.202,0.714,0.068,1.088c0.107,0.146-0.067,0.506,0.042,0.78c0.047,0.118,0.033,0.193,0.201,0.166
		c0.621-0.101,1.248-0.05,1.872-0.037c0.235,0.005,0.375-0.098,0.406-0.281c0.066-0.392,0.174-0.799,0.047-1.189
		c-0.097-0.299,0.036-0.562,0.097-0.811c0.129-0.528,0.122-1.03,0.058-1.563c-0.043-0.362,0.104-0.735,0.094-1.126
		c-0.025-0.925,0.018-1.853,0.06-2.777c0.024-0.541,0.135-1.074,0.18-1.617c0.061-0.718,0.003-1.432,0-2.205
		c0.425,0.271,0.705,0.625,1.046,0.903c0.433,0.354,0.901,0.688,1.517,0.537c0.504-0.124,0.567-0.373,0.338-0.828
		c-0.345-0.688-0.583-1.376-0.624-2.198c-0.038-0.771,0.093-1.51,0.094-2.264c0-0.271,0.098-0.544,0.169-0.908
		c0.249,0.471,0.341,0.919,0.581,1.301c0.375,0.597,0.647,1.273,1.096,1.806c0.385,0.454,0.897,0.812,1.443,1.126
		c0.714,0.41,1.451,0.75,2.209,1.055c0.637,0.256,1.301,0.43,1.974,0.559c0.337,0.063,0.695-0.358,0.669-0.707
		c-0.038-0.512-0.197-1.007-0.141-1.532c0.027-0.254,0.116-0.211,0.258-0.128c0.257,0.148,0.529,0.281,0.762,0.461
		c1.158,0.898,2.52,1.305,3.905,1.654c0.443,0.111,0.911-0.284,0.957-0.799c0.028-0.336,0.005-0.677,0.005-1.041
		c0.793,0.198,1.504,0.492,2.188,0.848c0.322,0.168,0.666,0.293,0.994,0.439c0.412,0.184,0.887,0.062,1.23-0.268
		c0.139-0.131,0.223-0.136,0.354-0.043c0.548,0.383,1.173,0.604,1.802,0.783c0.373,0.104,0.766-0.046,1.005-0.363
		c0.124-0.165,0.188-0.128,0.292-0.047c0.543,0.419,0.896,0.923,1.023,1.638c0.096,0.533,0.19,1.073,0.199,1.603
		c0.012,0.58,0.137,1.145,0.135,1.722c-0.004,1.015,0.04,2.032-0.027,3.042c-0.035,0.544,0.023,1.088-0.055,1.631
		c-0.068,0.471,0.438,1.354,0.783,1.514c0.256,0.119,0.449-0.096,0.687-0.07C50.277,31.662,50.604,31.573,50.955,31.51z"/>
	<path fill-rule="evenodd" clip-rule="evenodd" fill="none" d="M33.839,64.611c-3.161,0-6.323,0.002-9.483,0
		c-3.46-0.003-6.92-0.011-10.38-0.012c-3.402-0.002-6.804,0.004-10.207,0.007c-0.227,0-0.454,0.004-0.681-0.005
		c-0.306-0.011-0.325-0.198-0.198-0.403c0.192-0.31,0.416-0.601,0.627-0.899c0.259-0.367,0.236-0.855,0.566-1.205
		c0.42-0.444,0.729-0.979,1.185-1.407c0.335-0.313,0.543-0.764,0.953-1.018c0.978-0.603,1.884-1.318,2.937-1.801
		c0.493-0.226,1.019-0.334,1.537-0.464c1.175-0.296,2.356-0.568,3.575-0.607c1.999-0.064,3.991-0.207,5.965-0.537
		c1.308-0.221,2.525-0.701,3.695-1.312c0.096-0.05,0.156-0.162,0.244-0.23c0.142-0.108,0.298-0.107,0.469-0.055
		c0.196,0.06,0.115,0.221,0.109,0.316c-0.049,0.869,0.309,1.673,0.391,2.521c0.107,1.114,0.361,2.195,0.972,3.147
		c0.22,0.344,0.59,0.521,1.007,0.658c0.351,0.115,0.669-0.134,0.984,0.047c0.069,0.038,0.129-0.001,0.193-0.041
		c0.868-0.53,1.743-1.076,2.471-1.771c0.854-0.816,1.909-1.318,2.802-2.05c0.253-0.208,0.584-0.279,0.79-0.552
		c0.133-0.176,0.314-0.162,0.473,0.002c1.064,1.111,2.336,1.993,3.396,3.116c0.752,0.796,1.592,1.528,2.645,1.924
		c0.359,0.136,0.766,0.15,1.151,0.211c0.062,0.01,0.136,0.005,0.178-0.078c0.36-0.716,1.071-1.172,1.427-1.881
		c0.342-0.678,0.839-1.251,1.191-1.921c0.438-0.831,0.827-1.683,1.201-2.542c0.099-0.223,0.23-0.312,0.498-0.197
		c0.887,0.376,1.809,0.521,2.78,0.549c1.729,0.049,3.413,0.434,5.09,0.867c1.185,0.306,2.312,0.741,3.455,1.157
		c1.147,0.416,2.178,1.052,3.266,1.572c0.714,0.34,1.341,0.918,1.804,1.605c0.486,0.728,0.977,1.452,1.434,2.196
		c0.617,1.006,0.59,1.07-0.564,1.075c-2.963,0.017-5.926,0.004-8.889,0.006c-3.076,0.001-6.152,0.005-9.23,0.005
		c-2.92,0-5.842-0.004-8.762-0.007c-1.021,0-2.043,0-3.065,0C33.839,64.604,33.839,64.607,33.839,64.611z"/>
	<path fill-rule="evenodd" clip-rule="evenodd" fill="none" d="M24.644,20.027c-0.448,0.002-0.199-0.412-0.354-0.583
		c-0.429,0.202-0.656,0.104-0.734-0.363c-0.068-0.399-0.379-0.665-0.516-1.035c-0.097-0.259-0.494-0.089-0.653,0.032
		c-0.271,0.204-0.585,0.123-0.876,0.248c0.12,0.279,0.549,0.268,0.55,0.646c0,0.117,0.026,0.223-0.004,0.354
		c-0.106,0.463-0.175,0.933-0.038,1.408c0.064,0.224-0.126,0.479-0.055,0.648c0.162,0.383-0.061,0.76,0.07,1.129
		c0.175,0.488-0.043,0.961-0.097,1.438c-0.174,1.541-0.234,3.088-0.26,4.636c-0.008,0.508-0.105,1.015-0.163,1.521
		c-0.007,0.067,0.001,0.163-0.095,0.155c-0.111-0.01-0.106-0.106-0.098-0.195c0.046-0.561,0.088-1.121,0.137-1.681
		c0.006-0.069,0.046-0.137-0.112-0.243c-0.024,1.069-0.201,2.068-0.586,3.035c0.091-0.37-0.212-0.703-0.065-1.076
		c0.015-0.038,0.058-0.082,0.048-0.111c-0.372-1.188-0.08-2.389-0.069-3.582c0.009-0.974,0.046-1.947,0.072-2.922
		c0.007-0.253-0.086-0.469-0.166-0.705c-0.137-0.406-0.261-0.875-0.097-1.32c0.102-0.279,0.097-0.549,0.108-0.838
		c0.026-0.638,0.014-1.275,0.034-1.911c0.019-0.572,0.127-1.136,0.075-1.716c-0.042-0.473,0.195-0.92,0.248-1.387
		c0.09-0.793,0.346-1.549,0.502-2.326c0.242-1.2,0.515-2.402,1.269-3.428C23.348,9,23.973,8.168,24.823,7.488
		c1.035-0.826,2.094-1.6,3.271-2.199c0.94-0.48,1.918-0.873,2.922-1.214c0.644-0.219,1.3-0.417,1.955-0.526
		c0.625-0.104,1.269-0.18,1.909-0.229c0.355-0.027,0.715-0.171,1.055,0.063c0.029,0.021,0.089,0.02,0.125,0.005
		c0.915-0.392,1.824-0.035,2.711,0.092c1.033,0.148,2.047,0.453,3.045,0.781c0.879,0.289,1.664,0.741,2.408,1.276
		c0.633,0.455,1.273,0.891,1.836,1.44c1.338,1.312,2.281,2.851,2.873,4.632c0.225,0.677,0.475,1.361,0.578,2.047
		c0.125,0.829,0.346,1.656,0.297,2.513c-0.015,0.284,0.039,0.579,0.105,0.858c0.197,0.829,0.148,1.682,0.27,2.517
		c0.037,0.258-0.225,0.458-0.159,0.783c0.095,0.469,0.05,0.963-0.05,1.446c-0.047,0.237,0.117,0.477,0.178,0.698
		c0.125,0.447,0.129,0.932,0.358,1.35c0.06,0.108,0.067,0.199-0.048,0.291c-0.113,0.091-0.2,0.212-0.307,0.326
		c0.18,0.091,0.219-0.223,0.268-0.099c0.067,0.166,0.212,0.311,0.184,0.529c-0.072,0.531-0.118,1.057,0.054,1.594
		c0.1,0.314-0.099,0.653-0.159,0.976c-0.064,0.338-0.183,0.657-0.141,1.011c0.014,0.112,0.051,0.294-0.156,0.272
		c-0.178-0.019-0.16-0.217-0.137-0.302c0.146-0.545-0.076-1.112,0.121-1.655c0.038-0.107-0.095-0.264-0.104-0.401
		c-0.028-0.447-0.127-0.919-0.025-1.34c0.094-0.39-0.172-0.766,0.048-1.143c0.034-0.059-0.187-0.218-0.212-0.411
		c-0.08-0.594-0.148-1.182-0.184-1.782c-0.021-0.379-0.26-0.778-0.608-1.048c-0.323-0.248-0.539-0.602-0.788-0.911
		c-0.373-0.467-0.943-0.599-1.387-0.938c-0.064-0.049-0.521,0.022-0.751,0.227c-0.384,0.344-0.921,0.236-1.202-0.187
		c-0.193-0.289-1.166-0.672-1.484-0.586c-0.287,0.078-0.576,0.086-0.791,0.333c-0.071,0.082-0.188,0.024-0.271-0.04
		c-0.146-0.111-0.33-0.085-0.427,0.014c-0.378,0.385-0.731,0.098-1.056-0.041c-0.56-0.24-1.143-0.459-1.598-0.894
		c-0.166-0.159-0.334-0.117-0.497-0.009c-0.116,0.078-0.222,0.174-0.335,0.255c-0.367,0.261-0.766,0.46-1.225,0.444
		c-0.289-0.01-0.379,0.097-0.276,0.341c0.104,0.243-0.069,0.366-0.169,0.523c-0.064,0.101-0.139,0.099-0.246,0.026
		c-0.461-0.309-0.9-0.664-1.401-0.886c-0.733-0.325-1.144-1.044-1.872-1.386c-0.465-0.218-0.912-0.147-1.361-0.161
		c-0.659-0.022-0.644,0.019-0.708,0.692c-0.053,0.552-0.049,1.112-0.262,1.648c-0.068,0.172,0.047,0.413,0.069,0.624
		c0.023,0.22-0.067,0.288-0.272,0.183c-0.858-0.438-1.79-0.764-2.432-1.541c-0.068-0.083-0.089-0.128-0.179-0.033
		c-0.102,0.109-0.171-0.007-0.172-0.07c-0.011-0.356-0.292-0.568-0.44-0.851c-0.164-0.312-0.436-0.584-0.303-0.988
		c0.014-0.044-0.013-0.119-0.047-0.158c-0.622-0.708-0.7-1.62-0.891-2.478c-0.081-0.367-0.198-0.454-0.526-0.345
		c-0.146,0.049-0.302,0.113-0.449,0.105c-0.206-0.013-0.252,0.047-0.211,0.237c0.053,0.246-0.122,0.501,0.186,0.749
		c0.19,0.154-0.098,0.506-0.164,0.768c-0.066,0.262-0.143,0.485-0.129,0.781c0.011,0.244-0.176,0.566-0.228,0.866
		c-0.11,0.652-0.402,1.275-0.331,1.955C24.516,19.283,24.586,19.653,24.644,20.027z"/>
	<path fill-rule="evenodd" clip-rule="evenodd" fill="none" d="M42.619,48.67c0.193,0.606,0.046,1.172,0.049,1.738
		c0.004,0.438,0.166,0.865,0.011,1.315c-0.04,0.114,0.292,0.034,0.319,0.274c0.035,0.326,0.199,0.615,0.394,0.885
		c0.046,0.062,0.06,0.158,0.065,0.24c0.012,0.168-0.115,0.32-0.234,0.311c-0.874-0.077-1.486,0.527-2.217,0.821
		c-0.836,0.335-1.64,0.779-2.502,1.012c-0.709,0.19-1.475,0.148-2.21-0.106c-0.431-0.149-0.901-0.05-1.353-0.063
		c-0.445-0.017-0.887,0-1.315-0.187c-0.188-0.082-0.436-0.016-0.637-0.078c-1.001-0.309-2.063-0.367-3.048-0.74
		c-0.465-0.177-0.909-0.388-1.283-0.721c-0.438-0.39-1.045-0.454-1.511-0.811c-0.194-0.149-0.54,0.109-0.816-0.016
		c-0.067-0.03-0.188,0.038-0.198-0.097c-0.006-0.08,0.09-0.096,0.126-0.143c0.333-0.442,0.69-0.902,0.713-1.464
		c0.021-0.481,0.21-0.926,0.205-1.413c-0.002-0.164,0.253-0.349,0.208-0.689c0.241,0.301,0.487,0.4,0.761,0.474
		c0.338,0.089,0.608,0.322,0.897,0.513c0.65,0.427,1.43,0.38,2.146,0.57c1.539,0.406,3.095,0.362,4.677,0.244
		c1.201-0.089,2.389-0.188,3.553-0.487c0.534-0.137,1.062-0.325,1.564-0.556C41.534,49.243,42.134,49.084,42.619,48.67z"/>
	<path fill-rule="evenodd" clip-rule="evenodd" fill="none" d="M32.502,56.114c-1.858,0.991-3.354,2.303-4.915,3.548
		c-0.212-0.86-0.411-1.63-0.589-2.403c-0.153-0.669-0.302-1.34-0.415-2.017c-0.067-0.404-0.123-0.802-0.401-1.121
		c-0.096-0.111-0.024-0.142,0.056-0.175c0.133-0.052,0.253,0.009,0.366,0.065c0.631,0.311,1.26,0.627,1.889,0.941
		c0.375,0.186,0.76,0.325,1.18,0.416C30.583,55.565,31.523,55.663,32.502,56.114z"/>
	<path fill-rule="evenodd" clip-rule="evenodd" fill="none" d="M43.686,56.038c-0.434,0.517-0.821,1.074-1.01,1.72
		c-0.08,0.272-0.363,0.471-0.367,0.59c-0.012,0.455-0.346,0.701-0.503,1.05c-0.143,0.318-0.441,0.505-0.628,0.79
		c-0.137,0.207-0.232-0.028-0.288-0.128c-0.255-0.461-0.593-0.837-0.974-1.209c-0.603-0.591-1.299-1.091-1.818-1.769
		c-0.074-0.1-0.179-0.176-0.363-0.353c2.299-0.191,4.4-0.779,6.352-2.015c-0.154,0.5-0.284,0.918-0.414,1.339L43.686,56.038z"/>
	<path fill-rule="evenodd" clip-rule="evenodd" fill="none" d="M51.818,29.579c-0.078-0.485,0.062-0.934,0.068-1.398
		c0.008-0.528-0.004-1.061,0.074-1.591c0.113-0.783-0.08-1.551-0.17-2.322c-0.025-0.217,0.123-0.305,0.244-0.398
		c0.168-0.134,0.199,0.078,0.301,0.137c0.479,0.283,0.451,0.722,0.471,1.182c0.049,1.149-0.057,2.271-0.506,3.341
		C52.152,28.883,51.98,29.229,51.818,29.579z"/>
	<path fill-rule="evenodd" clip-rule="evenodd" fill="none" d="M43.672,56.054c0.109-0.161,0.219-0.322,0.326-0.479
		c0.025,0.102,0.162,0.211,0.057,0.331c-0.28,0.317-0.242,0.761-0.454,1.099c-0.083,0.131-0.158,0.248-0.163,0.411
		c-0.004,0.168-0.102,0.263-0.283,0.218c-0.239-0.061-0.061-0.208-0.043-0.299c0.088-0.476,0.486-0.818,0.574-1.296L43.672,56.054z"
		/>
	<path fill-rule="evenodd" clip-rule="evenodd" fill="none" d="M16.38,31.002c-0.135-0.684-0.263-1.368-0.409-2.05
		c-0.136-0.63-0.095-1.261-0.052-1.895c0.116,0.542,0.04,1.095,0.117,1.643c0.106,0.754,0.304,1.481,0.493,2.214
		c0.017,0.066,0.108,0.155-0.034,0.18c-0.034,0.006-0.081-0.067-0.122-0.104C16.372,30.988,16.38,31.002,16.38,31.002z"/>
</g>
</svg>
