<?xml version="1.0" encoding="utf-8"?>
<!-- Generator: Adobe Illustrator 16.0.0, SVG Export Plug-In . SVG Version: 6.00 Build 0)  -->
<!DOCTYPE svg PUBLIC "-//W3C//DTD SVG 1.1//EN" "http://www.w3.org/Graphics/SVG/1.1/DTD/svg11.dtd">
<svg version="1.1" id="Layer_1" xmlns="http://www.w3.org/2000/svg" xmlns:xlink="http://www.w3.org/1999/xlink" x="0px" y="0px"
	 width="62.806px" height="43.875px" viewBox="0 0 62.806 43.875" enable-background="new 0 0 62.806 43.875" xml:space="preserve">
<g>
	<path fill="#FFEC00" d="M61.573,5.993c-0.295-0.424-0.778-0.676-1.294-0.676H18.087c-0.503,0-0.975,0.239-1.271,0.644
		c-0.297,0.405-0.384,0.927-0.233,1.406l4.569,14.518c0.261,0.831,1.146,1.291,1.978,1.031c0.83-0.262,1.292-1.147,1.03-1.978
		l-1.543-4.905h8.255v9.422h2.535v-9.422h10.926v9.422h2.536v-9.422h8.348L50.85,27.839H21.344L12.045,2.115
		c-0.226-0.625-0.818-1.041-1.482-1.041H2.5c-0.871,0-1.576,0.706-1.576,1.577c0,0.871,0.705,1.577,1.576,1.577h6.955l9.299,25.724
		c0.226,0.625,0.818,1.041,1.482,1.041h31.711c0.66,0,1.25-0.41,1.479-1.029l8.331-22.522C61.936,6.957,61.868,6.416,61.573,5.993z
		 M21.836,13.555l-1.6-5.084h10.635v5.084H21.836z M33.407,13.555V8.471h10.926v5.084H33.407z M46.869,13.555V8.471h11.146
		l-1.881,5.084H46.869z"/>
	<circle fill="#FFEC00" cx="25.477" cy="37.588" r="5.395"/>
	<circle fill="#FFEC00" cx="45.6" cy="37.588" r="5.395"/>
</g>
</svg>
